<mxfile host="app.diagrams.net" modified="2022-12-30T07:00:33.335Z" agent="5.0 (Windows NT 10.0; Win64; x64) AppleWebKit/537.36 (KHTML, like Gecko) Chrome/107.0.0.0 Safari/537.36 Edg/107.0.1418.62" etag="EHT4xfwGLfEwEebjFWjE" version="20.7.4" type="github">
  <diagram name="Page-1" id="c7558073-3199-34d8-9f00-42111426c3f3">
    <mxGraphModel dx="3077" dy="1140" grid="1" gridSize="10" guides="1" tooltips="1" connect="1" arrows="1" fold="1" page="1" pageScale="1" pageWidth="826" pageHeight="1169" background="none" math="0" shadow="0">
      <root>
        <mxCell id="0" />
        <mxCell id="1" parent="0" />
        <mxCell id="CsERCyUt-G2kQSy3FByw-110" value="" style="rounded=1;whiteSpace=wrap;html=1;fillColor=#FFFFCC;" vertex="1" parent="1">
          <mxGeometry x="-246.5" y="8977" width="707.5" height="80" as="geometry" />
        </mxCell>
        <mxCell id="CsERCyUt-G2kQSy3FByw-99" value="" style="rounded=1;whiteSpace=wrap;html=1;fillColor=#9AC7BF;" vertex="1" parent="1">
          <mxGeometry x="-245" y="8853" width="705" height="80" as="geometry" />
        </mxCell>
        <mxCell id="CsERCyUt-G2kQSy3FByw-97" value="" style="rounded=1;whiteSpace=wrap;html=1;fillColor=#F0A30A;" vertex="1" parent="1">
          <mxGeometry x="-245" y="8639" width="705" height="62" as="geometry" />
        </mxCell>
        <mxCell id="CsERCyUt-G2kQSy3FByw-96" value="" style="rounded=1;whiteSpace=wrap;html=1;fillColor=#FFCCCC;" vertex="1" parent="1">
          <mxGeometry x="-245" y="8532" width="705" height="62" as="geometry" />
        </mxCell>
        <mxCell id="iUn0GgRghp78xL2DHV3C-722" value="&lt;b&gt;main.py&lt;/b&gt;" style="shape=umlFrame;whiteSpace=wrap;html=1;strokeColor=default;strokeWidth=3;fontFamily=Helvetica;fontSize=12;fontColor=#000000;fillColor=default;swimlaneFillColor=#99FFFF;" parent="1" vertex="1">
          <mxGeometry x="860" y="790" width="240" height="210" as="geometry" />
        </mxCell>
        <mxCell id="iUn0GgRghp78xL2DHV3C-677" value="&lt;b&gt;handler.py&lt;/b&gt;" style="shape=umlFrame;whiteSpace=wrap;html=1;strokeColor=default;strokeWidth=3;fontFamily=Helvetica;fontSize=12;fontColor=#000000;fillColor=default;swimlaneFillColor=#99FFFF;" parent="1" vertex="1">
          <mxGeometry x="1757.5" y="7689" width="290" height="811" as="geometry" />
        </mxCell>
        <mxCell id="iUn0GgRghp78xL2DHV3C-660" value="&lt;b&gt;main.py&lt;/b&gt;" style="shape=umlFrame;whiteSpace=wrap;html=1;strokeColor=default;strokeWidth=3;fontFamily=Helvetica;fontSize=12;fontColor=#000000;fillColor=default;swimlaneFillColor=#99FFFF;" parent="1" vertex="1">
          <mxGeometry x="964" y="7689" width="240" height="331" as="geometry" />
        </mxCell>
        <mxCell id="iUn0GgRghp78xL2DHV3C-600" value="&lt;b&gt;handler.py&lt;/b&gt;" style="shape=umlFrame;whiteSpace=wrap;html=1;strokeColor=default;strokeWidth=3;fontFamily=Helvetica;fontSize=12;fontColor=#000000;fillColor=default;swimlaneFillColor=#99FFFF;" parent="1" vertex="1">
          <mxGeometry x="1540" y="5772" width="240" height="676" as="geometry" />
        </mxCell>
        <mxCell id="iUn0GgRghp78xL2DHV3C-546" value="&lt;b&gt;main.py&lt;/b&gt;" style="shape=umlFrame;whiteSpace=wrap;html=1;strokeColor=default;strokeWidth=3;fontFamily=Helvetica;fontSize=12;fontColor=#000000;fillColor=default;swimlaneFillColor=#99FFFF;" parent="1" vertex="1">
          <mxGeometry x="850" y="5740" width="214" height="1360" as="geometry" />
        </mxCell>
        <mxCell id="iUn0GgRghp78xL2DHV3C-453" value="&lt;b&gt;handler.py&lt;/b&gt;" style="shape=umlFrame;whiteSpace=wrap;html=1;strokeColor=default;strokeWidth=3;fontFamily=Helvetica;fontSize=12;fontColor=#000000;fillColor=default;swimlaneFillColor=#99FFFF;" parent="1" vertex="1">
          <mxGeometry x="1714.75" y="4060" width="265.25" height="450" as="geometry" />
        </mxCell>
        <mxCell id="iUn0GgRghp78xL2DHV3C-408" value="&lt;b&gt;main.py&lt;/b&gt;" style="shape=umlFrame;whiteSpace=wrap;html=1;strokeColor=default;strokeWidth=3;fontFamily=Helvetica;fontSize=12;fontColor=#000000;fillColor=default;swimlaneFillColor=#99FFFF;" parent="1" vertex="1">
          <mxGeometry x="929.87" y="3960" width="300.25" height="1250" as="geometry" />
        </mxCell>
        <mxCell id="iUn0GgRghp78xL2DHV3C-242" value="&lt;b&gt;main.py&lt;/b&gt;" style="shape=umlFrame;whiteSpace=wrap;html=1;strokeColor=default;strokeWidth=3;fontFamily=Helvetica;fontSize=12;fontColor=#000000;fillColor=default;swimlaneFillColor=#99FFFF;" parent="1" vertex="1">
          <mxGeometry x="914" y="1940" width="266" height="970" as="geometry" />
        </mxCell>
        <mxCell id="iUn0GgRghp78xL2DHV3C-243" value="&lt;b&gt;handler.py&lt;/b&gt;" style="shape=umlFrame;whiteSpace=wrap;html=1;strokeColor=default;strokeWidth=3;fontFamily=Helvetica;fontSize=12;fontColor=#000000;fillColor=#FFFFCC;swimlaneFillColor=#E1D5E7;" parent="1" vertex="1">
          <mxGeometry x="1250" y="1950" width="210" height="960" as="geometry" />
        </mxCell>
        <mxCell id="iUn0GgRghp78xL2DHV3C-98" value="" style="edgeStyle=orthogonalEdgeStyle;rounded=0;orthogonalLoop=1;jettySize=auto;html=1;exitX=1;exitY=0.5;exitDx=0;exitDy=0;exitPerimeter=0;" parent="1" source="iUn0GgRghp78xL2DHV3C-120" target="iUn0GgRghp78xL2DHV3C-97" edge="1">
          <mxGeometry relative="1" as="geometry">
            <mxPoint x="58.5" y="1090" as="sourcePoint" />
          </mxGeometry>
        </mxCell>
        <mxCell id="iUn0GgRghp78xL2DHV3C-111" style="edgeStyle=orthogonalEdgeStyle;rounded=0;orthogonalLoop=1;jettySize=auto;html=1;exitX=1;exitY=0.5;exitDx=0;exitDy=0;entryX=0;entryY=0;entryDx=0;entryDy=47.5;entryPerimeter=0;" parent="1" source="iUn0GgRghp78xL2DHV3C-97" target="iUn0GgRghp78xL2DHV3C-312" edge="1">
          <mxGeometry relative="1" as="geometry">
            <mxPoint x="629.9999999999995" y="854.9999999999995" as="targetPoint" />
            <Array as="points">
              <mxPoint x="440" y="1105" />
              <mxPoint x="440" y="858" />
            </Array>
          </mxGeometry>
        </mxCell>
        <mxCell id="iUn0GgRghp78xL2DHV3C-314" value="&lt;b&gt;&lt;br&gt;&lt;span style=&quot;border-color: var(--border-color); color: rgb(0, 0, 0); font-family: Helvetica; font-size: 12px; font-style: normal; font-variant-ligatures: normal; font-variant-caps: normal; letter-spacing: normal; orphans: 2; text-align: center; text-indent: 0px; text-transform: none; widows: 2; word-spacing: 0px; -webkit-text-stroke-width: 0px; background-color: rgb(251, 251, 251); text-decoration-thickness: initial; text-decoration-style: initial; text-decoration-color: initial;&quot;&gt;/auth&lt;/span&gt;&lt;br&gt;&lt;/b&gt;" style="edgeLabel;html=1;align=center;verticalAlign=middle;resizable=0;points=[];fontSize=12;fontFamily=Helvetica;fontColor=#000000;" parent="iUn0GgRghp78xL2DHV3C-111" vertex="1" connectable="0">
          <mxGeometry x="0.7379" y="1" relative="1" as="geometry">
            <mxPoint x="-61" y="-7" as="offset" />
          </mxGeometry>
        </mxCell>
        <mxCell id="iUn0GgRghp78xL2DHV3C-327" style="edgeStyle=orthogonalEdgeStyle;rounded=0;orthogonalLoop=1;jettySize=auto;html=1;exitX=1;exitY=0.5;exitDx=0;exitDy=0;entryX=0;entryY=0;entryDx=0;entryDy=47.5;entryPerimeter=0;fontFamily=Helvetica;fontSize=12;fontColor=#000000;" parent="1" source="iUn0GgRghp78xL2DHV3C-97" target="iUn0GgRghp78xL2DHV3C-315" edge="1">
          <mxGeometry relative="1" as="geometry">
            <Array as="points">
              <mxPoint x="440" y="1105" />
              <mxPoint x="440" y="972" />
            </Array>
          </mxGeometry>
        </mxCell>
        <mxCell id="iUn0GgRghp78xL2DHV3C-328" value="&lt;b&gt;/ehdd&lt;/b&gt;" style="edgeLabel;html=1;align=center;verticalAlign=middle;resizable=0;points=[];fontSize=12;fontFamily=Helvetica;fontColor=#000000;" parent="iUn0GgRghp78xL2DHV3C-327" vertex="1" connectable="0">
          <mxGeometry x="0.6554" y="-1" relative="1" as="geometry">
            <mxPoint x="-65" y="-3" as="offset" />
          </mxGeometry>
        </mxCell>
        <mxCell id="iUn0GgRghp78xL2DHV3C-329" style="edgeStyle=orthogonalEdgeStyle;rounded=0;orthogonalLoop=1;jettySize=auto;html=1;exitX=1;exitY=0.5;exitDx=0;exitDy=0;entryX=0;entryY=0;entryDx=0;entryDy=65;entryPerimeter=0;fontFamily=Helvetica;fontSize=12;fontColor=#000000;" parent="1" source="iUn0GgRghp78xL2DHV3C-97" target="iUn0GgRghp78xL2DHV3C-318" edge="1">
          <mxGeometry relative="1" as="geometry" />
        </mxCell>
        <mxCell id="iUn0GgRghp78xL2DHV3C-330" value="&lt;b&gt;/compute&lt;/b&gt;" style="edgeLabel;html=1;align=center;verticalAlign=middle;resizable=0;points=[];fontSize=12;fontFamily=Helvetica;fontColor=#000000;" parent="iUn0GgRghp78xL2DHV3C-329" vertex="1" connectable="0">
          <mxGeometry x="0.2985" y="-1" relative="1" as="geometry">
            <mxPoint x="-50" y="-3" as="offset" />
          </mxGeometry>
        </mxCell>
        <mxCell id="iUn0GgRghp78xL2DHV3C-331" style="edgeStyle=orthogonalEdgeStyle;rounded=0;orthogonalLoop=1;jettySize=auto;html=1;exitX=1;exitY=0.5;exitDx=0;exitDy=0;entryX=0;entryY=0;entryDx=0;entryDy=65;entryPerimeter=0;fontFamily=Helvetica;fontSize=12;fontColor=#000000;" parent="1" source="iUn0GgRghp78xL2DHV3C-97" target="iUn0GgRghp78xL2DHV3C-321" edge="1">
          <mxGeometry relative="1" as="geometry">
            <Array as="points">
              <mxPoint x="440" y="1105" />
              <mxPoint x="440" y="1225" />
            </Array>
          </mxGeometry>
        </mxCell>
        <mxCell id="iUn0GgRghp78xL2DHV3C-332" value="&lt;b&gt;/sdn&lt;/b&gt;" style="edgeLabel;html=1;align=center;verticalAlign=middle;resizable=0;points=[];fontSize=12;fontFamily=Helvetica;fontColor=#000000;" parent="iUn0GgRghp78xL2DHV3C-331" vertex="1" connectable="0">
          <mxGeometry x="0.4853" y="2" relative="1" as="geometry">
            <mxPoint x="-42" y="-3" as="offset" />
          </mxGeometry>
        </mxCell>
        <mxCell id="iUn0GgRghp78xL2DHV3C-333" style="edgeStyle=orthogonalEdgeStyle;rounded=0;orthogonalLoop=1;jettySize=auto;html=1;entryX=0;entryY=0;entryDx=0;entryDy=65;entryPerimeter=0;fontFamily=Helvetica;fontSize=12;fontColor=#000000;" parent="1" source="iUn0GgRghp78xL2DHV3C-97" target="iUn0GgRghp78xL2DHV3C-324" edge="1">
          <mxGeometry relative="1" as="geometry">
            <Array as="points">
              <mxPoint x="440" y="1105" />
              <mxPoint x="440" y="1355" />
            </Array>
          </mxGeometry>
        </mxCell>
        <mxCell id="iUn0GgRghp78xL2DHV3C-334" value="&lt;b&gt;/console&lt;/b&gt;" style="edgeLabel;html=1;align=center;verticalAlign=middle;resizable=0;points=[];fontSize=12;fontFamily=Helvetica;fontColor=#000000;" parent="iUn0GgRghp78xL2DHV3C-333" vertex="1" connectable="0">
          <mxGeometry x="0.6917" y="-2" relative="1" as="geometry">
            <mxPoint x="-53" y="-2" as="offset" />
          </mxGeometry>
        </mxCell>
        <mxCell id="iUn0GgRghp78xL2DHV3C-97" value="Uvicorn server  listening..." style="shape=process;whiteSpace=wrap;align=center;verticalAlign=middle;size=0.0475;fontStyle=1;strokeWidth=3;fillColor=#FFCCCC" parent="1" vertex="1">
          <mxGeometry x="183.5" y="1080" width="226.5" height="50" as="geometry" />
        </mxCell>
        <mxCell id="iUn0GgRghp78xL2DHV3C-120" value="浏览器" style="html=1;dashed=0;whitespace=wrap;shape=mxgraph.dfd.start;strokeColor=default;strokeWidth=3;fontFamily=Helvetica;fontSize=12;fontColor=default;fillColor=#FFFFCC;" parent="1" vertex="1">
          <mxGeometry x="35" y="1089" width="80" height="30" as="geometry" />
        </mxCell>
        <mxCell id="iUn0GgRghp78xL2DHV3C-126" style="edgeStyle=orthogonalEdgeStyle;rounded=0;orthogonalLoop=1;jettySize=auto;html=1;entryX=0;entryY=0.5;entryDx=0;entryDy=0;fontFamily=Helvetica;fontSize=12;fontColor=default;" parent="1" source="iUn0GgRghp78xL2DHV3C-123" target="iUn0GgRghp78xL2DHV3C-125" edge="1">
          <mxGeometry relative="1" as="geometry" />
        </mxCell>
        <mxCell id="iUn0GgRghp78xL2DHV3C-725" style="edgeStyle=orthogonalEdgeStyle;rounded=0;orthogonalLoop=1;jettySize=auto;html=1;exitX=0.5;exitY=1;exitDx=0;exitDy=0;entryX=0.5;entryY=0;entryDx=0;entryDy=0;fontFamily=Helvetica;fontSize=12;fontColor=#000000;" parent="1" source="iUn0GgRghp78xL2DHV3C-123" target="iUn0GgRghp78xL2DHV3C-340" edge="1">
          <mxGeometry relative="1" as="geometry" />
        </mxCell>
        <mxCell id="iUn0GgRghp78xL2DHV3C-726" value="&lt;b&gt;3&lt;/b&gt;" style="edgeLabel;html=1;align=center;verticalAlign=middle;resizable=0;points=[];fontSize=12;fontFamily=Helvetica;fontColor=#000000;" parent="iUn0GgRghp78xL2DHV3C-725" vertex="1" connectable="0">
          <mxGeometry x="0.1283" relative="1" as="geometry">
            <mxPoint as="offset" />
          </mxGeometry>
        </mxCell>
        <mxCell id="iUn0GgRghp78xL2DHV3C-123" value="&lt;span style=&quot;font-weight: 700;&quot;&gt;jwt_authenticate_user&lt;/span&gt;&lt;br style=&quot;border-color: var(--border-color); padding: 0px; margin: 0px; font-weight: 700;&quot;&gt;&lt;span style=&quot;font-weight: 700;&quot;&gt;验证账密&lt;/span&gt;" style="shape=rhombus;html=1;dashed=0;whitespace=wrap;perimeter=rhombusPerimeter;strokeColor=default;strokeWidth=3;fontFamily=Helvetica;fontSize=12;fontColor=default;fillColor=#FFFFCC;" parent="1" vertex="1">
          <mxGeometry x="1150" y="935" width="185" height="130" as="geometry" />
        </mxCell>
        <mxCell id="iUn0GgRghp78xL2DHV3C-144" style="edgeStyle=orthogonalEdgeStyle;rounded=0;orthogonalLoop=1;jettySize=auto;html=1;exitX=0.5;exitY=0;exitDx=0;exitDy=0;entryX=0.5;entryY=0.5;entryDx=0;entryDy=-15.000000000000002;entryPerimeter=0;fontFamily=Helvetica;fontSize=12;fontColor=default;" parent="1" source="iUn0GgRghp78xL2DHV3C-125" target="iUn0GgRghp78xL2DHV3C-120" edge="1">
          <mxGeometry relative="1" as="geometry">
            <Array as="points">
              <mxPoint x="1440" y="780" />
              <mxPoint x="75" y="780" />
            </Array>
          </mxGeometry>
        </mxCell>
        <mxCell id="iUn0GgRghp78xL2DHV3C-125" value="验证失败" style="shape=ellipse;html=1;dashed=0;whitespace=wrap;aspect=fixed;strokeWidth=5;perimeter=ellipsePerimeter;strokeColor=default;fontFamily=Helvetica;fontSize=12;fontColor=default;fillColor=#FF0000;" parent="1" vertex="1">
          <mxGeometry x="1410" y="970" width="60" height="60" as="geometry" />
        </mxCell>
        <mxCell id="iUn0GgRghp78xL2DHV3C-131" value="&lt;b&gt;返回token&lt;/b&gt;" style="text;html=1;align=center;verticalAlign=middle;resizable=0;points=[];autosize=1;strokeColor=none;fillColor=none;fontSize=12;fontFamily=Helvetica;fontColor=default;" parent="1" vertex="1">
          <mxGeometry x="590" y="1430" width="80" height="30" as="geometry" />
        </mxCell>
        <mxCell id="iUn0GgRghp78xL2DHV3C-341" style="edgeStyle=orthogonalEdgeStyle;rounded=0;orthogonalLoop=1;jettySize=auto;html=1;entryX=0;entryY=0.5;entryDx=0;entryDy=0;entryPerimeter=0;fontFamily=Helvetica;fontSize=12;fontColor=#000000;" parent="1" source="iUn0GgRghp78xL2DHV3C-141" target="iUn0GgRghp78xL2DHV3C-120" edge="1">
          <mxGeometry relative="1" as="geometry" />
        </mxCell>
        <mxCell id="iUn0GgRghp78xL2DHV3C-141" value="用户" style="shape=umlActor;verticalLabelPosition=bottom;verticalAlign=top;html=1;outlineConnect=0;strokeColor=default;strokeWidth=3;fontFamily=Helvetica;fontSize=12;fontColor=default;fillColor=#FFFFCC;" parent="1" vertex="1">
          <mxGeometry x="-40" y="1074" width="30" height="60" as="geometry" />
        </mxCell>
        <mxCell id="iUn0GgRghp78xL2DHV3C-145" value="&lt;b&gt;返回&lt;/b&gt;&lt;span style=&quot;background-color: initial;&quot;&gt;&lt;b&gt;HTTP_401_UNAUTHORIZED&lt;br&gt;&lt;/b&gt;&lt;br&gt;&lt;/span&gt;" style="text;html=1;align=center;verticalAlign=middle;resizable=0;points=[];autosize=1;strokeColor=none;fillColor=none;fontSize=12;fontFamily=Helvetica;fontColor=default;" parent="1" vertex="1">
          <mxGeometry x="725" y="740" width="210" height="40" as="geometry" />
        </mxCell>
        <mxCell id="iUn0GgRghp78xL2DHV3C-147" value="&lt;b&gt;True&lt;/b&gt;" style="text;html=1;align=center;verticalAlign=middle;resizable=0;points=[];autosize=1;strokeColor=none;fillColor=none;fontSize=12;fontFamily=Helvetica;fontColor=default;" parent="1" vertex="1">
          <mxGeometry x="1239" y="1119" width="50" height="30" as="geometry" />
        </mxCell>
        <mxCell id="iUn0GgRghp78xL2DHV3C-148" value="&lt;b&gt;False&lt;/b&gt;" style="text;html=1;align=center;verticalAlign=middle;resizable=0;points=[];autosize=1;strokeColor=none;fillColor=none;fontSize=12;fontFamily=Helvetica;fontColor=default;" parent="1" vertex="1">
          <mxGeometry x="1345" y="970" width="50" height="30" as="geometry" />
        </mxCell>
        <mxCell id="iUn0GgRghp78xL2DHV3C-149" value="" style="edgeStyle=orthogonalEdgeStyle;rounded=0;orthogonalLoop=1;jettySize=auto;html=1;exitX=1;exitY=0.5;exitDx=0;exitDy=0;exitPerimeter=0;" parent="1" source="iUn0GgRghp78xL2DHV3C-167" target="iUn0GgRghp78xL2DHV3C-156" edge="1">
          <mxGeometry relative="1" as="geometry">
            <mxPoint x="58.5" y="2422" as="sourcePoint" />
          </mxGeometry>
        </mxCell>
        <mxCell id="iUn0GgRghp78xL2DHV3C-150" style="edgeStyle=orthogonalEdgeStyle;rounded=0;orthogonalLoop=1;jettySize=auto;html=1;exitX=1;exitY=0.5;exitDx=0;exitDy=0;entryX=0;entryY=0;entryDx=0;entryDy=65;entryPerimeter=0;" parent="1" source="iUn0GgRghp78xL2DHV3C-156" target="iUn0GgRghp78xL2DHV3C-342" edge="1">
          <mxGeometry relative="1" as="geometry">
            <mxPoint x="578" y="2187" as="targetPoint" />
            <Array as="points">
              <mxPoint x="390" y="2422" />
              <mxPoint x="390" y="2175" />
            </Array>
          </mxGeometry>
        </mxCell>
        <mxCell id="iUn0GgRghp78xL2DHV3C-757" value="&lt;b style=&quot;border-color: var(--border-color); background-color: rgb(251, 251, 251);&quot;&gt;/auth&lt;/b&gt;" style="edgeLabel;html=1;align=center;verticalAlign=middle;resizable=0;points=[];fontSize=12;fontFamily=Helvetica;fontColor=#000000;" parent="iUn0GgRghp78xL2DHV3C-150" vertex="1" connectable="0">
          <mxGeometry x="0.3216" y="2" relative="1" as="geometry">
            <mxPoint x="37" y="-35" as="offset" />
          </mxGeometry>
        </mxCell>
        <mxCell id="iUn0GgRghp78xL2DHV3C-154" style="edgeStyle=orthogonalEdgeStyle;rounded=0;orthogonalLoop=1;jettySize=auto;html=1;exitX=1;exitY=0.5;exitDx=0;exitDy=0;entryX=0;entryY=0;entryDx=0;entryDy=65;fontFamily=Helvetica;fontSize=12;fontColor=default;entryPerimeter=0;" parent="1" source="iUn0GgRghp78xL2DHV3C-156" target="iUn0GgRghp78xL2DHV3C-349" edge="1">
          <mxGeometry relative="1" as="geometry">
            <mxPoint x="578" y="2546" as="targetPoint" />
            <Array as="points">
              <mxPoint x="390" y="2422" />
              <mxPoint x="390" y="2555" />
            </Array>
          </mxGeometry>
        </mxCell>
        <mxCell id="iUn0GgRghp78xL2DHV3C-767" value="&lt;b&gt;/sdn&lt;/b&gt;" style="edgeLabel;html=1;align=center;verticalAlign=middle;resizable=0;points=[];fontSize=12;fontFamily=Helvetica;fontColor=#000000;" parent="iUn0GgRghp78xL2DHV3C-154" vertex="1" connectable="0">
          <mxGeometry x="0.7949" y="1" relative="1" as="geometry">
            <mxPoint x="-28" y="-4" as="offset" />
          </mxGeometry>
        </mxCell>
        <mxCell id="iUn0GgRghp78xL2DHV3C-155" style="edgeStyle=orthogonalEdgeStyle;rounded=0;orthogonalLoop=1;jettySize=auto;html=1;exitX=1;exitY=0.5;exitDx=0;exitDy=0;entryX=0;entryY=0;entryDx=0;entryDy=65;entryPerimeter=0;fontFamily=Helvetica;fontSize=12;fontColor=default;" parent="1" source="iUn0GgRghp78xL2DHV3C-156" target="iUn0GgRghp78xL2DHV3C-351" edge="1">
          <mxGeometry relative="1" as="geometry">
            <mxPoint x="578.9899999999998" y="2665.01" as="targetPoint" />
            <Array as="points">
              <mxPoint x="390" y="2422" />
              <mxPoint x="390" y="2685" />
            </Array>
          </mxGeometry>
        </mxCell>
        <mxCell id="iUn0GgRghp78xL2DHV3C-768" value="&lt;b&gt;/console&lt;/b&gt;" style="edgeLabel;html=1;align=center;verticalAlign=middle;resizable=0;points=[];fontSize=12;fontFamily=Helvetica;fontColor=#000000;" parent="iUn0GgRghp78xL2DHV3C-155" vertex="1" connectable="0">
          <mxGeometry x="0.673" y="-1" relative="1" as="geometry">
            <mxPoint x="8" as="offset" />
          </mxGeometry>
        </mxCell>
        <mxCell id="iUn0GgRghp78xL2DHV3C-346" style="edgeStyle=orthogonalEdgeStyle;rounded=0;orthogonalLoop=1;jettySize=auto;html=1;exitX=1;exitY=0.5;exitDx=0;exitDy=0;entryX=0;entryY=0;entryDx=0;entryDy=65;entryPerimeter=0;fontFamily=Helvetica;fontSize=12;fontColor=#000000;" parent="1" source="iUn0GgRghp78xL2DHV3C-156" target="iUn0GgRghp78xL2DHV3C-344" edge="1">
          <mxGeometry relative="1" as="geometry">
            <Array as="points">
              <mxPoint x="390" y="2422" />
              <mxPoint x="390" y="2307" />
            </Array>
          </mxGeometry>
        </mxCell>
        <mxCell id="iUn0GgRghp78xL2DHV3C-758" value="&lt;b style=&quot;border-color: var(--border-color); background-color: rgb(251, 251, 251);&quot;&gt;/ehdd&lt;/b&gt;" style="edgeLabel;html=1;align=center;verticalAlign=middle;resizable=0;points=[];fontSize=12;fontFamily=Helvetica;fontColor=#000000;" parent="iUn0GgRghp78xL2DHV3C-346" vertex="1" connectable="0">
          <mxGeometry x="0.3615" y="3" relative="1" as="geometry">
            <mxPoint x="18" y="3" as="offset" />
          </mxGeometry>
        </mxCell>
        <mxCell id="iUn0GgRghp78xL2DHV3C-763" style="edgeStyle=orthogonalEdgeStyle;rounded=0;orthogonalLoop=1;jettySize=auto;html=1;exitX=1;exitY=0.5;exitDx=0;exitDy=0;entryX=0;entryY=0;entryDx=0;entryDy=65;entryPerimeter=0;fontFamily=Helvetica;fontSize=12;fontColor=#000000;" parent="1" source="iUn0GgRghp78xL2DHV3C-156" target="iUn0GgRghp78xL2DHV3C-347" edge="1">
          <mxGeometry relative="1" as="geometry">
            <Array as="points">
              <mxPoint x="416" y="2423" />
            </Array>
          </mxGeometry>
        </mxCell>
        <mxCell id="iUn0GgRghp78xL2DHV3C-766" value="&lt;b&gt;/compute&lt;/b&gt;" style="edgeLabel;html=1;align=center;verticalAlign=middle;resizable=0;points=[];fontSize=12;fontFamily=Helvetica;fontColor=#000000;" parent="iUn0GgRghp78xL2DHV3C-763" vertex="1" connectable="0">
          <mxGeometry x="0.2595" y="-1" relative="1" as="geometry">
            <mxPoint as="offset" />
          </mxGeometry>
        </mxCell>
        <mxCell id="iUn0GgRghp78xL2DHV3C-156" value="Uvicorn server  listening..." style="shape=process;whiteSpace=wrap;align=center;verticalAlign=middle;size=0.0475;fontStyle=1;strokeWidth=3;fillColor=#FFCCCC" parent="1" vertex="1">
          <mxGeometry x="163" y="2397" width="188.5" height="50" as="geometry" />
        </mxCell>
        <mxCell id="iUn0GgRghp78xL2DHV3C-192" value="&lt;b&gt;&lt;br&gt;&lt;span style=&quot;color: rgb(0, 0, 0); font-family: Helvetica; font-size: 12px; font-style: normal; font-variant-ligatures: normal; font-variant-caps: normal; letter-spacing: normal; orphans: 2; text-align: center; text-indent: 0px; text-transform: none; widows: 2; word-spacing: 0px; -webkit-text-stroke-width: 0px; background-color: rgb(251, 251, 251); text-decoration-thickness: initial; text-decoration-style: initial; text-decoration-color: initial; float: none; display: inline !important;&quot;&gt;/machine_type&lt;/span&gt;&lt;br&gt;&lt;/b&gt;" style="edgeStyle=orthogonalEdgeStyle;rounded=0;orthogonalLoop=1;jettySize=auto;html=1;fontFamily=Helvetica;fontSize=12;fontColor=default;entryX=0;entryY=0.5;entryDx=0;entryDy=0;" parent="1" target="iUn0GgRghp78xL2DHV3C-353" edge="1">
          <mxGeometry x="0.4429" y="7" relative="1" as="geometry">
            <mxPoint x="688" y="2422" as="sourcePoint" />
            <mxPoint x="950" y="2038" as="targetPoint" />
            <Array as="points">
              <mxPoint x="688" y="2038" />
            </Array>
            <mxPoint x="-1" as="offset" />
          </mxGeometry>
        </mxCell>
        <mxCell id="iUn0GgRghp78xL2DHV3C-771" value="&lt;b&gt;1.1&lt;/b&gt;" style="edgeLabel;html=1;align=center;verticalAlign=middle;resizable=0;points=[];fontSize=12;fontFamily=Helvetica;fontColor=#000000;" parent="iUn0GgRghp78xL2DHV3C-192" vertex="1" connectable="0">
          <mxGeometry x="0.2703" y="1" relative="1" as="geometry">
            <mxPoint as="offset" />
          </mxGeometry>
        </mxCell>
        <mxCell id="iUn0GgRghp78xL2DHV3C-193" value="&lt;b&gt;&lt;br&gt;&lt;span style=&quot;color: rgb(0, 0, 0); font-family: Helvetica; font-size: 12px; font-style: normal; font-variant-ligatures: normal; font-variant-caps: normal; letter-spacing: normal; orphans: 2; text-align: center; text-indent: 0px; text-transform: none; widows: 2; word-spacing: 0px; -webkit-text-stroke-width: 0px; background-color: rgb(251, 251, 251); text-decoration-thickness: initial; text-decoration-style: initial; text-decoration-color: initial; float: none; display: inline !important;&quot;&gt;/nodes_list&lt;/span&gt;&lt;br&gt;&lt;/b&gt;" style="edgeStyle=orthogonalEdgeStyle;rounded=0;orthogonalLoop=1;jettySize=auto;html=1;exitX=1;exitY=0.5;exitDx=0;exitDy=0;entryX=0;entryY=0.5;entryDx=0;entryDy=0;fontFamily=Helvetica;fontSize=12;fontColor=default;" parent="1" target="iUn0GgRghp78xL2DHV3C-365" edge="1">
          <mxGeometry x="0.3108" relative="1" as="geometry">
            <mxPoint x="688" y="2422" as="sourcePoint" />
            <mxPoint x="1195" y="2837" as="targetPoint" />
            <Array as="points">
              <mxPoint x="690" y="2422" />
              <mxPoint x="690" y="2738" />
            </Array>
            <mxPoint x="-1" as="offset" />
          </mxGeometry>
        </mxCell>
        <mxCell id="iUn0GgRghp78xL2DHV3C-194" style="edgeStyle=orthogonalEdgeStyle;rounded=0;orthogonalLoop=1;jettySize=auto;html=1;exitX=1;exitY=0.5;exitDx=0;exitDy=0;entryX=0;entryY=0.5;entryDx=0;entryDy=0;fontFamily=Helvetica;fontSize=12;fontColor=default;" parent="1" target="iUn0GgRghp78xL2DHV3C-355" edge="1">
          <mxGeometry relative="1" as="geometry">
            <mxPoint x="688" y="2422" as="sourcePoint" />
            <mxPoint x="1190" y="2137" as="targetPoint" />
            <Array as="points">
              <mxPoint x="690" y="2422" />
              <mxPoint x="690" y="2138" />
            </Array>
          </mxGeometry>
        </mxCell>
        <mxCell id="iUn0GgRghp78xL2DHV3C-211" value="&lt;span style=&quot;background-color: rgb(251, 251, 251);&quot;&gt;&lt;b&gt;/create_machine_type&lt;/b&gt;&lt;/span&gt;" style="edgeLabel;html=1;align=center;verticalAlign=middle;resizable=0;points=[];fontSize=12;fontFamily=Helvetica;fontColor=#000000;" parent="iUn0GgRghp78xL2DHV3C-194" vertex="1" connectable="0">
          <mxGeometry x="0.5415" y="1" relative="1" as="geometry">
            <mxPoint x="-51" as="offset" />
          </mxGeometry>
        </mxCell>
        <mxCell id="iUn0GgRghp78xL2DHV3C-773" value="2,1" style="edgeLabel;html=1;align=center;verticalAlign=middle;resizable=0;points=[];fontSize=12;fontFamily=Helvetica;fontColor=#000000;" parent="iUn0GgRghp78xL2DHV3C-194" vertex="1" connectable="0">
          <mxGeometry x="0.1" relative="1" as="geometry">
            <mxPoint as="offset" />
          </mxGeometry>
        </mxCell>
        <mxCell id="iUn0GgRghp78xL2DHV3C-196" value="&lt;br&gt;&lt;span style=&quot;color: rgb(0, 0, 0); font-family: Helvetica; font-size: 12px; font-style: normal; font-variant-ligatures: normal; font-variant-caps: normal; font-weight: 400; letter-spacing: normal; orphans: 2; text-align: center; text-indent: 0px; text-transform: none; widows: 2; word-spacing: 0px; -webkit-text-stroke-width: 0px; background-color: rgb(251, 251, 251); text-decoration-thickness: initial; text-decoration-style: initial; text-decoration-color: initial; float: none; display: inline !important;&quot;&gt;/&lt;/span&gt;&lt;span style=&quot;color: rgb(0, 0, 0); font-family: Helvetica; font-size: 12px; font-style: normal; font-variant-ligatures: normal; font-variant-caps: normal; letter-spacing: normal; orphans: 2; text-align: center; text-indent: 0px; text-transform: none; widows: 2; word-spacing: 0px; -webkit-text-stroke-width: 0px; background-color: rgb(251, 251, 251); text-decoration-thickness: initial; text-decoration-style: initial; text-decoration-color: initial; float: none; display: inline !important;&quot;&gt;&lt;b&gt;resource_usage_rate&lt;/b&gt;&lt;/span&gt;&lt;br&gt;" style="edgeStyle=orthogonalEdgeStyle;rounded=0;orthogonalLoop=1;jettySize=auto;html=1;exitX=1;exitY=0.5;exitDx=0;exitDy=0;entryX=0;entryY=0.5;entryDx=0;entryDy=0;fontFamily=Helvetica;fontSize=12;fontColor=default;" parent="1" target="iUn0GgRghp78xL2DHV3C-359" edge="1">
          <mxGeometry x="0.1273" y="9" relative="1" as="geometry">
            <mxPoint x="669.9999999999995" y="2419" as="sourcePoint" />
            <mxPoint x="1195" y="2573.5" as="targetPoint" />
            <Array as="points">
              <mxPoint x="670" y="2424" />
              <mxPoint x="690" y="2424" />
              <mxPoint x="690" y="2509" />
            </Array>
            <mxPoint as="offset" />
          </mxGeometry>
        </mxCell>
        <mxCell id="iUn0GgRghp78xL2DHV3C-239" style="edgeStyle=orthogonalEdgeStyle;rounded=0;orthogonalLoop=1;jettySize=auto;html=1;exitX=1;exitY=0.5;exitDx=0;exitDy=0;entryX=0;entryY=0.5;entryDx=0;entryDy=0;fontFamily=Helvetica;fontSize=12;fontColor=#000000;" parent="1" target="iUn0GgRghp78xL2DHV3C-356" edge="1">
          <mxGeometry relative="1" as="geometry">
            <mxPoint x="688" y="2422" as="sourcePoint" />
            <mxPoint x="1190" y="2277" as="targetPoint" />
            <Array as="points">
              <mxPoint x="688" y="2248" />
            </Array>
          </mxGeometry>
        </mxCell>
        <mxCell id="iUn0GgRghp78xL2DHV3C-240" value="&lt;br&gt;&lt;span style=&quot;color: rgb(0, 0, 0); font-family: Helvetica; font-size: 12px; font-style: normal; font-variant-ligatures: normal; font-variant-caps: normal; font-weight: 700; letter-spacing: normal; orphans: 2; text-align: center; text-indent: 0px; text-transform: none; widows: 2; word-spacing: 0px; -webkit-text-stroke-width: 0px; background-color: rgb(251, 251, 251); text-decoration-thickness: initial; text-decoration-style: initial; text-decoration-color: initial; float: none; display: inline !important;&quot;&gt;/edit_machine_type&lt;/span&gt;&lt;br&gt;" style="edgeLabel;html=1;align=center;verticalAlign=middle;resizable=0;points=[];fontSize=12;fontFamily=Helvetica;fontColor=#000000;" parent="iUn0GgRghp78xL2DHV3C-239" vertex="1" connectable="0">
          <mxGeometry x="0.2044" y="-2" relative="1" as="geometry">
            <mxPoint x="-22" y="-14" as="offset" />
          </mxGeometry>
        </mxCell>
        <mxCell id="iUn0GgRghp78xL2DHV3C-229" value="" style="edgeStyle=orthogonalEdgeStyle;rounded=0;orthogonalLoop=1;jettySize=auto;html=1;fontFamily=Helvetica;fontSize=12;fontColor=#000000;exitX=1;exitY=0.5;exitDx=0;exitDy=0;" parent="1" source="iUn0GgRghp78xL2DHV3C-353" target="iUn0GgRghp78xL2DHV3C-228" edge="1">
          <mxGeometry relative="1" as="geometry">
            <mxPoint x="1360" y="1997" as="sourcePoint" />
          </mxGeometry>
        </mxCell>
        <mxCell id="iUn0GgRghp78xL2DHV3C-772" value="&lt;b&gt;1.2&lt;/b&gt;" style="edgeLabel;html=1;align=center;verticalAlign=middle;resizable=0;points=[];fontSize=12;fontFamily=Helvetica;fontColor=#000000;" parent="iUn0GgRghp78xL2DHV3C-229" vertex="1" connectable="0">
          <mxGeometry x="0.2131" y="1" relative="1" as="geometry">
            <mxPoint as="offset" />
          </mxGeometry>
        </mxCell>
        <mxCell id="iUn0GgRghp78xL2DHV3C-167" value="浏览器" style="html=1;dashed=0;whitespace=wrap;shape=mxgraph.dfd.start;strokeColor=default;strokeWidth=3;fontFamily=Helvetica;fontSize=12;fontColor=default;fillColor=#FFFFCC;" parent="1" vertex="1">
          <mxGeometry x="35" y="2407" width="80" height="30" as="geometry" />
        </mxCell>
        <mxCell id="iUn0GgRghp78xL2DHV3C-178" value="&lt;b&gt;/sdn&lt;/b&gt;" style="text;html=1;align=center;verticalAlign=middle;resizable=0;points=[];autosize=1;strokeColor=none;fillColor=none;fontSize=12;fontFamily=Helvetica;fontColor=default;" parent="1" vertex="1">
          <mxGeometry x="503" y="2517" width="50" height="30" as="geometry" />
        </mxCell>
        <mxCell id="iUn0GgRghp78xL2DHV3C-180" style="edgeStyle=orthogonalEdgeStyle;rounded=0;orthogonalLoop=1;jettySize=auto;html=1;fontFamily=Helvetica;fontSize=12;fontColor=default;" parent="1" source="iUn0GgRghp78xL2DHV3C-181" edge="1">
          <mxGeometry relative="1" as="geometry">
            <mxPoint x="30" y="2422" as="targetPoint" />
          </mxGeometry>
        </mxCell>
        <mxCell id="iUn0GgRghp78xL2DHV3C-754" style="edgeStyle=orthogonalEdgeStyle;rounded=0;orthogonalLoop=1;jettySize=auto;html=1;exitX=0.5;exitY=0.5;exitDx=0;exitDy=0;exitPerimeter=0;fontFamily=Helvetica;fontSize=12;fontColor=#000000;" parent="1" source="iUn0GgRghp78xL2DHV3C-181" edge="1">
          <mxGeometry relative="1" as="geometry">
            <mxPoint x="-39.999999999999545" y="2422.666666666667" as="targetPoint" />
          </mxGeometry>
        </mxCell>
        <mxCell id="iUn0GgRghp78xL2DHV3C-181" value="用户" style="shape=umlActor;verticalLabelPosition=bottom;verticalAlign=top;html=1;outlineConnect=0;strokeColor=default;strokeWidth=3;fontFamily=Helvetica;fontSize=12;fontColor=default;fillColor=#FFFFCC;" parent="1" vertex="1">
          <mxGeometry x="-54" y="2392" width="30" height="60" as="geometry" />
        </mxCell>
        <mxCell id="iUn0GgRghp78xL2DHV3C-214" value="" style="edgeStyle=orthogonalEdgeStyle;rounded=0;orthogonalLoop=1;jettySize=auto;html=1;fontFamily=Helvetica;fontSize=12;fontColor=#000000;exitX=1;exitY=0.5;exitDx=0;exitDy=0;" parent="1" source="iUn0GgRghp78xL2DHV3C-360" target="iUn0GgRghp78xL2DHV3C-213" edge="1">
          <mxGeometry relative="1" as="geometry">
            <mxPoint x="1372.5" y="2967.0588235294117" as="sourcePoint" />
          </mxGeometry>
        </mxCell>
        <mxCell id="iUn0GgRghp78xL2DHV3C-217" value="" style="edgeStyle=orthogonalEdgeStyle;rounded=0;orthogonalLoop=1;jettySize=auto;html=1;fontFamily=Helvetica;fontSize=12;fontColor=#000000;exitX=1;exitY=0.5;exitDx=0;exitDy=0;" parent="1" source="iUn0GgRghp78xL2DHV3C-365" target="iUn0GgRghp78xL2DHV3C-216" edge="1">
          <mxGeometry relative="1" as="geometry">
            <mxPoint x="1375" y="2837" as="sourcePoint" />
          </mxGeometry>
        </mxCell>
        <mxCell id="iUn0GgRghp78xL2DHV3C-219" style="edgeStyle=orthogonalEdgeStyle;rounded=0;orthogonalLoop=1;jettySize=auto;html=1;entryX=0;entryY=0.5;entryDx=0;entryDy=0;fontFamily=Helvetica;fontSize=12;fontColor=#000000;exitX=1;exitY=0.5;exitDx=0;exitDy=0;" parent="1" source="iUn0GgRghp78xL2DHV3C-361" target="iUn0GgRghp78xL2DHV3C-218" edge="1">
          <mxGeometry relative="1" as="geometry">
            <mxPoint x="1375" y="2714.5" as="sourcePoint" />
          </mxGeometry>
        </mxCell>
        <mxCell id="iUn0GgRghp78xL2DHV3C-791" value="3.2" style="edgeLabel;html=1;align=center;verticalAlign=middle;resizable=0;points=[];fontSize=12;fontFamily=Helvetica;fontColor=#000000;" parent="iUn0GgRghp78xL2DHV3C-219" vertex="1" connectable="0">
          <mxGeometry x="-0.1074" y="-1" relative="1" as="geometry">
            <mxPoint x="42" y="-1" as="offset" />
          </mxGeometry>
        </mxCell>
        <mxCell id="iUn0GgRghp78xL2DHV3C-221" value="" style="edgeStyle=orthogonalEdgeStyle;rounded=0;orthogonalLoop=1;jettySize=auto;html=1;fontFamily=Helvetica;fontSize=12;fontColor=#000000;exitX=1;exitY=0.5;exitDx=0;exitDy=0;" parent="1" source="iUn0GgRghp78xL2DHV3C-359" target="iUn0GgRghp78xL2DHV3C-220" edge="1">
          <mxGeometry relative="1" as="geometry">
            <mxPoint x="1365" y="2573.5" as="sourcePoint" />
          </mxGeometry>
        </mxCell>
        <mxCell id="iUn0GgRghp78xL2DHV3C-223" value="" style="edgeStyle=orthogonalEdgeStyle;rounded=0;orthogonalLoop=1;jettySize=auto;html=1;fontFamily=Helvetica;fontSize=12;fontColor=#000000;exitX=1;exitY=0.5;exitDx=0;exitDy=0;" parent="1" source="iUn0GgRghp78xL2DHV3C-354" target="iUn0GgRghp78xL2DHV3C-222" edge="1">
          <mxGeometry relative="1" as="geometry">
            <mxPoint x="1360" y="2422" as="sourcePoint" />
          </mxGeometry>
        </mxCell>
        <mxCell id="iUn0GgRghp78xL2DHV3C-227" value="" style="edgeStyle=orthogonalEdgeStyle;rounded=0;orthogonalLoop=1;jettySize=auto;html=1;fontFamily=Helvetica;fontSize=12;fontColor=#000000;exitX=1;exitY=0.5;exitDx=0;exitDy=0;" parent="1" source="iUn0GgRghp78xL2DHV3C-355" target="iUn0GgRghp78xL2DHV3C-226" edge="1">
          <mxGeometry relative="1" as="geometry">
            <mxPoint x="1360" y="2137" as="sourcePoint" />
            <Array as="points">
              <mxPoint x="1340" y="2137" />
              <mxPoint x="1340" y="2137" />
            </Array>
          </mxGeometry>
        </mxCell>
        <mxCell id="iUn0GgRghp78xL2DHV3C-782" value="2.2" style="edgeLabel;html=1;align=center;verticalAlign=middle;resizable=0;points=[];fontSize=12;fontFamily=Helvetica;fontColor=#000000;" parent="iUn0GgRghp78xL2DHV3C-227" vertex="1" connectable="0">
          <mxGeometry x="0.2064" y="3" relative="1" as="geometry">
            <mxPoint x="-1" y="3" as="offset" />
          </mxGeometry>
        </mxCell>
        <mxCell id="iUn0GgRghp78xL2DHV3C-213" value="&lt;div&gt;get_instances_by_hostname&lt;/div&gt;&lt;div&gt;&lt;br&gt;&lt;/div&gt;" style="whiteSpace=wrap;html=1;fillColor=#FFFFCC;fontStyle=1;strokeWidth=3;" parent="1" vertex="1">
          <mxGeometry x="1260.63" y="2818" width="188.75" height="65" as="geometry" />
        </mxCell>
        <mxCell id="iUn0GgRghp78xL2DHV3C-216" value="get_nodes_list" style="whiteSpace=wrap;html=1;fillColor=#FFFFCC;fontStyle=1;strokeWidth=3;" parent="1" vertex="1">
          <mxGeometry x="1289" y="2707.5" width="120" height="60" as="geometry" />
        </mxCell>
        <mxCell id="iUn0GgRghp78xL2DHV3C-251" style="edgeStyle=orthogonalEdgeStyle;rounded=0;orthogonalLoop=1;jettySize=auto;html=1;entryX=0.5;entryY=0.5;entryDx=0;entryDy=15;entryPerimeter=0;fontFamily=Helvetica;fontSize=12;fontColor=#000000;exitX=1;exitY=0.5;exitDx=0;exitDy=0;" parent="1" source="iUn0GgRghp78xL2DHV3C-361" target="iUn0GgRghp78xL2DHV3C-167" edge="1">
          <mxGeometry relative="1" as="geometry">
            <Array as="points">
              <mxPoint x="1220" y="2628" />
              <mxPoint x="1220" y="2940" />
              <mxPoint x="75" y="2940" />
            </Array>
          </mxGeometry>
        </mxCell>
        <mxCell id="iUn0GgRghp78xL2DHV3C-252" value="&lt;b&gt;3.3 返回近30天资源使用率数据&lt;/b&gt;" style="edgeLabel;html=1;align=center;verticalAlign=middle;resizable=0;points=[];fontSize=12;fontFamily=Helvetica;fontColor=#000000;" parent="iUn0GgRghp78xL2DHV3C-251" vertex="1" connectable="0">
          <mxGeometry x="0.0123" y="-2" relative="1" as="geometry">
            <mxPoint x="15" as="offset" />
          </mxGeometry>
        </mxCell>
        <mxCell id="iUn0GgRghp78xL2DHV3C-218" value="&lt;div&gt;查询TinyDB&lt;/div&gt;&lt;div&gt;&lt;br&gt;&lt;/div&gt;" style="shape=cylinder;whiteSpace=wrap;html=1;boundedLbl=1;backgroundOutline=1;strokeColor=default;strokeWidth=3;fontFamily=Helvetica;fontSize=12;fontColor=#000000;fillColor=#FFFFCC;" parent="1" vertex="1">
          <mxGeometry x="1520" y="2587.5" width="60" height="80" as="geometry" />
        </mxCell>
        <mxCell id="iUn0GgRghp78xL2DHV3C-220" value="calculate_resource_size" style="whiteSpace=wrap;html=1;fillColor=#FFFFCC;fontStyle=1;strokeWidth=3;" parent="1" vertex="1">
          <mxGeometry x="1277.5" y="2481" width="155" height="55" as="geometry" />
        </mxCell>
        <mxCell id="iUn0GgRghp78xL2DHV3C-222" value="get_standby_hosts" style="whiteSpace=wrap;html=1;fillColor=#FFFFCC;fontStyle=1;strokeWidth=3;" parent="1" vertex="1">
          <mxGeometry x="1290" y="2346" width="120" height="60" as="geometry" />
        </mxCell>
        <mxCell id="iUn0GgRghp78xL2DHV3C-226" value="post请求os_aggregates_url" style="whiteSpace=wrap;html=1;fillColor=#FFFFCC;fontStyle=1;strokeWidth=3;" parent="1" vertex="1">
          <mxGeometry x="1500.75" y="2107" width="120" height="60" as="geometry" />
        </mxCell>
        <mxCell id="iUn0GgRghp78xL2DHV3C-228" value="get_os_aggregate" style="whiteSpace=wrap;html=1;fillColor=#FFFFCC;fontStyle=1;strokeWidth=3;" parent="1" vertex="1">
          <mxGeometry x="1289" y="2007.5" width="120" height="60" as="geometry" />
        </mxCell>
        <mxCell id="iUn0GgRghp78xL2DHV3C-720" style="edgeStyle=orthogonalEdgeStyle;rounded=0;orthogonalLoop=1;jettySize=auto;html=1;exitX=0;exitY=0;exitDx=150;exitDy=65;exitPerimeter=0;entryX=0;entryY=0.5;entryDx=0;entryDy=0;fontFamily=Helvetica;fontSize=12;fontColor=#000000;" parent="1" source="iUn0GgRghp78xL2DHV3C-312" target="iUn0GgRghp78xL2DHV3C-337" edge="1">
          <mxGeometry relative="1" as="geometry" />
        </mxCell>
        <mxCell id="iUn0GgRghp78xL2DHV3C-721" value="&lt;b&gt;1.&lt;span style=&quot;background-color: rgb(251, 251, 251);&quot;&gt;/jwt/token&lt;/span&gt;&lt;/b&gt;" style="edgeLabel;html=1;align=center;verticalAlign=middle;resizable=0;points=[];fontSize=12;fontFamily=Helvetica;fontColor=#000000;" parent="iUn0GgRghp78xL2DHV3C-720" vertex="1" connectable="0">
          <mxGeometry x="-0.2761" y="3" relative="1" as="geometry">
            <mxPoint as="offset" />
          </mxGeometry>
        </mxCell>
        <mxCell id="iUn0GgRghp78xL2DHV3C-312" value="auth" style="shape=folder;fontStyle=1;tabWidth=110;tabHeight=30;tabPosition=left;html=1;boundedLbl=1;labelInHeader=1;container=1;collapsible=0;strokeColor=default;strokeWidth=3;fontFamily=Helvetica;fontSize=12;fontColor=#000000;fillColor=#F0A30A;" parent="1" vertex="1">
          <mxGeometry x="621" y="810" width="150" height="100" as="geometry" />
        </mxCell>
        <mxCell id="iUn0GgRghp78xL2DHV3C-313" value="&lt;span style=&quot;font-weight: 700;&quot;&gt;登录认证，鉴权&lt;/span&gt;" style="html=1;strokeColor=none;resizeWidth=1;resizeHeight=1;fillColor=none;part=1;connectable=0;allowArrows=0;deletable=0;strokeWidth=3;fontFamily=Helvetica;fontSize=12;fontColor=#000000;" parent="iUn0GgRghp78xL2DHV3C-312" vertex="1">
          <mxGeometry width="150" height="70" relative="1" as="geometry">
            <mxPoint y="30" as="offset" />
          </mxGeometry>
        </mxCell>
        <mxCell id="iUn0GgRghp78xL2DHV3C-315" value="ehdd" style="shape=folder;fontStyle=1;tabWidth=110;tabHeight=30;tabPosition=left;html=1;boundedLbl=1;labelInHeader=1;container=1;collapsible=0;strokeColor=default;strokeWidth=3;fontFamily=Helvetica;fontSize=12;fontColor=#000000;fillColor=#E6FFCC;" parent="1" vertex="1">
          <mxGeometry x="623" y="925" width="150" height="100" as="geometry" />
        </mxCell>
        <mxCell id="iUn0GgRghp78xL2DHV3C-316" value="&lt;span style=&quot;font-weight: 700;&quot;&gt;云磁盘资源请求&lt;/span&gt;" style="html=1;strokeColor=none;resizeWidth=1;resizeHeight=1;fillColor=none;part=1;connectable=0;allowArrows=0;deletable=0;strokeWidth=3;fontFamily=Helvetica;fontSize=12;fontColor=#000000;" parent="iUn0GgRghp78xL2DHV3C-315" vertex="1">
          <mxGeometry width="150" height="70" relative="1" as="geometry">
            <mxPoint y="30" as="offset" />
          </mxGeometry>
        </mxCell>
        <mxCell id="iUn0GgRghp78xL2DHV3C-318" value="compute" style="shape=folder;fontStyle=1;tabWidth=110;tabHeight=30;tabPosition=left;html=1;boundedLbl=1;labelInHeader=1;container=1;collapsible=0;strokeColor=default;strokeWidth=3;fontFamily=Helvetica;fontSize=12;fontColor=#000000;fillColor=#E6FFCC;" parent="1" vertex="1">
          <mxGeometry x="625" y="1040" width="150" height="100" as="geometry" />
        </mxCell>
        <mxCell id="iUn0GgRghp78xL2DHV3C-319" value="&lt;b&gt;计算业务线&lt;/b&gt;" style="html=1;strokeColor=none;resizeWidth=1;resizeHeight=1;fillColor=none;part=1;connectable=0;allowArrows=0;deletable=0;strokeWidth=3;fontFamily=Helvetica;fontSize=12;fontColor=#000000;" parent="iUn0GgRghp78xL2DHV3C-318" vertex="1">
          <mxGeometry width="150" height="70" relative="1" as="geometry">
            <mxPoint y="30" as="offset" />
          </mxGeometry>
        </mxCell>
        <mxCell id="iUn0GgRghp78xL2DHV3C-321" value="sdn" style="shape=folder;fontStyle=1;tabWidth=110;tabHeight=30;tabPosition=left;html=1;boundedLbl=1;labelInHeader=1;container=1;collapsible=0;strokeColor=default;strokeWidth=3;fontFamily=Helvetica;fontSize=12;fontColor=#000000;fillColor=#E6FFCC;" parent="1" vertex="1">
          <mxGeometry x="624" y="1160" width="150" height="100" as="geometry" />
        </mxCell>
        <mxCell id="iUn0GgRghp78xL2DHV3C-322" value="&lt;span style=&quot;font-weight: 700;&quot;&gt;网络业务线&lt;/span&gt;" style="html=1;strokeColor=none;resizeWidth=1;resizeHeight=1;fillColor=none;part=1;connectable=0;allowArrows=0;deletable=0;strokeWidth=3;fontFamily=Helvetica;fontSize=12;fontColor=#000000;" parent="iUn0GgRghp78xL2DHV3C-321" vertex="1">
          <mxGeometry width="150" height="70" relative="1" as="geometry">
            <mxPoint y="30" as="offset" />
          </mxGeometry>
        </mxCell>
        <mxCell id="iUn0GgRghp78xL2DHV3C-324" value="console" style="shape=folder;fontStyle=1;tabWidth=110;tabHeight=30;tabPosition=left;html=1;boundedLbl=1;labelInHeader=1;container=1;collapsible=0;strokeColor=default;strokeWidth=3;fontFamily=Helvetica;fontSize=12;fontColor=#000000;fillColor=#E6FFCC;" parent="1" vertex="1">
          <mxGeometry x="624" y="1290" width="150" height="100" as="geometry" />
        </mxCell>
        <mxCell id="iUn0GgRghp78xL2DHV3C-325" value="&lt;span style=&quot;font-weight: 700;&quot;&gt;基础服务业务线&lt;/span&gt;" style="html=1;strokeColor=none;resizeWidth=1;resizeHeight=1;fillColor=none;part=1;connectable=0;allowArrows=0;deletable=0;strokeWidth=3;fontFamily=Helvetica;fontSize=12;fontColor=#000000;" parent="iUn0GgRghp78xL2DHV3C-324" vertex="1">
          <mxGeometry width="150" height="70" relative="1" as="geometry">
            <mxPoint y="30" as="offset" />
          </mxGeometry>
        </mxCell>
        <mxCell id="iUn0GgRghp78xL2DHV3C-723" style="edgeStyle=orthogonalEdgeStyle;rounded=0;orthogonalLoop=1;jettySize=auto;html=1;exitX=1;exitY=0.5;exitDx=0;exitDy=0;entryX=0.5;entryY=0;entryDx=0;entryDy=0;fontFamily=Helvetica;fontSize=12;fontColor=#000000;" parent="1" source="iUn0GgRghp78xL2DHV3C-337" target="iUn0GgRghp78xL2DHV3C-123" edge="1">
          <mxGeometry relative="1" as="geometry" />
        </mxCell>
        <mxCell id="iUn0GgRghp78xL2DHV3C-724" value="&lt;b&gt;2&lt;/b&gt;" style="edgeLabel;html=1;align=center;verticalAlign=middle;resizable=0;points=[];fontSize=12;fontFamily=Helvetica;fontColor=#000000;" parent="iUn0GgRghp78xL2DHV3C-723" vertex="1" connectable="0">
          <mxGeometry x="-0.1102" y="-3" relative="1" as="geometry">
            <mxPoint x="1" as="offset" />
          </mxGeometry>
        </mxCell>
        <mxCell id="iUn0GgRghp78xL2DHV3C-337" value="&lt;p style=&quot;margin: 4px 0px 0px; text-align: center;&quot;&gt;login_for_access_token&lt;strong style=&quot;text-decoration-line: underline;&quot;&gt;&lt;br&gt;&lt;/strong&gt;&lt;/p&gt;&lt;hr&gt;&lt;p style=&quot;margin: 0px; margin-left: 8px;&quot;&gt;验证账密，生成token&lt;/p&gt;" style="verticalAlign=middle;align=center;overflow=fill;fontSize=12;fontFamily=Helvetica;html=1;rounded=1;fontStyle=1;strokeWidth=3;fillColor=#FFFFCC;" parent="1" vertex="1">
          <mxGeometry x="900" y="835" width="150" height="75" as="geometry" />
        </mxCell>
        <mxCell id="iUn0GgRghp78xL2DHV3C-727" style="edgeStyle=orthogonalEdgeStyle;rounded=0;orthogonalLoop=1;jettySize=auto;html=1;entryX=0.5;entryY=0.5;entryDx=0;entryDy=15;entryPerimeter=0;fontFamily=Helvetica;fontSize=12;fontColor=#000000;" parent="1" source="iUn0GgRghp78xL2DHV3C-340" target="iUn0GgRghp78xL2DHV3C-120" edge="1">
          <mxGeometry relative="1" as="geometry">
            <Array as="points">
              <mxPoint x="1242" y="1420" />
              <mxPoint x="75" y="1420" />
            </Array>
          </mxGeometry>
        </mxCell>
        <mxCell id="iUn0GgRghp78xL2DHV3C-728" value="&lt;b&gt;4&lt;/b&gt;" style="edgeLabel;html=1;align=center;verticalAlign=middle;resizable=0;points=[];fontSize=12;fontFamily=Helvetica;fontColor=#000000;" parent="iUn0GgRghp78xL2DHV3C-727" vertex="1" connectable="0">
          <mxGeometry x="-0.1236" relative="1" as="geometry">
            <mxPoint as="offset" />
          </mxGeometry>
        </mxCell>
        <mxCell id="iUn0GgRghp78xL2DHV3C-340" value="&lt;p style=&quot;margin: 4px 0px 0px; text-align: center;&quot;&gt;&lt;span style=&quot;&quot;&gt;created_access_token&lt;/span&gt;&lt;strong style=&quot;text-decoration-line: underline;&quot;&gt;&lt;br&gt;&lt;/strong&gt;&lt;/p&gt;&lt;hr&gt;&lt;p style=&quot;margin: 0px; margin-left: 8px;&quot;&gt;&lt;span style=&quot;&quot;&gt;生成token&lt;/span&gt;&lt;br&gt;&lt;/p&gt;" style="verticalAlign=middle;align=center;overflow=fill;fontSize=12;fontFamily=Helvetica;html=1;rounded=1;fontStyle=1;strokeWidth=3;fillColor=#FFFFCC;" parent="1" vertex="1">
          <mxGeometry x="1167" y="1280" width="150" height="75" as="geometry" />
        </mxCell>
        <mxCell id="iUn0GgRghp78xL2DHV3C-342" value="auth" style="shape=folder;fontStyle=1;tabWidth=110;tabHeight=30;tabPosition=left;html=1;boundedLbl=1;labelInHeader=1;container=1;collapsible=0;strokeColor=default;strokeWidth=3;fontFamily=Helvetica;fontSize=12;fontColor=#000000;fillColor=#E6FFCC;" parent="1" vertex="1">
          <mxGeometry x="481" y="2110" width="150" height="100" as="geometry" />
        </mxCell>
        <mxCell id="iUn0GgRghp78xL2DHV3C-343" value="&lt;span style=&quot;font-weight: 700;&quot;&gt;登录认证，鉴权&lt;/span&gt;" style="html=1;strokeColor=none;resizeWidth=1;resizeHeight=1;fillColor=none;part=1;connectable=0;allowArrows=0;deletable=0;strokeWidth=3;fontFamily=Helvetica;fontSize=12;fontColor=#000000;" parent="iUn0GgRghp78xL2DHV3C-342" vertex="1">
          <mxGeometry width="150" height="70" relative="1" as="geometry">
            <mxPoint y="30" as="offset" />
          </mxGeometry>
        </mxCell>
        <mxCell id="iUn0GgRghp78xL2DHV3C-344" value="ehdd" style="shape=folder;fontStyle=1;tabWidth=110;tabHeight=30;tabPosition=left;html=1;boundedLbl=1;labelInHeader=1;container=1;collapsible=0;strokeColor=default;strokeWidth=3;fontFamily=Helvetica;fontSize=12;fontColor=#000000;fillColor=#E6FFCC;" parent="1" vertex="1">
          <mxGeometry x="485" y="2235" width="150" height="100" as="geometry" />
        </mxCell>
        <mxCell id="iUn0GgRghp78xL2DHV3C-345" value="&lt;span style=&quot;font-weight: 700;&quot;&gt;云磁盘资源请求&lt;/span&gt;" style="html=1;strokeColor=none;resizeWidth=1;resizeHeight=1;fillColor=none;part=1;connectable=0;allowArrows=0;deletable=0;strokeWidth=3;fontFamily=Helvetica;fontSize=12;fontColor=#000000;" parent="iUn0GgRghp78xL2DHV3C-344" vertex="1">
          <mxGeometry width="150" height="70" relative="1" as="geometry">
            <mxPoint y="30" as="offset" />
          </mxGeometry>
        </mxCell>
        <mxCell id="iUn0GgRghp78xL2DHV3C-357" style="edgeStyle=orthogonalEdgeStyle;rounded=0;orthogonalLoop=1;jettySize=auto;html=1;exitX=0;exitY=0;exitDx=150;exitDy=65;exitPerimeter=0;entryX=0;entryY=0.5;entryDx=0;entryDy=0;fontFamily=Helvetica;fontSize=12;fontColor=#000000;" parent="1" source="iUn0GgRghp78xL2DHV3C-347" target="iUn0GgRghp78xL2DHV3C-354" edge="1">
          <mxGeometry relative="1" as="geometry">
            <Array as="points">
              <mxPoint x="690" y="2425" />
              <mxPoint x="690" y="2376" />
            </Array>
          </mxGeometry>
        </mxCell>
        <mxCell id="iUn0GgRghp78xL2DHV3C-358" value="&lt;b style=&quot;border-color: var(--border-color);&quot;&gt;&lt;span style=&quot;border-color: var(--border-color); background-color: rgb(251, 251, 251);&quot;&gt;/standby_hosts&lt;/span&gt;&lt;/b&gt;" style="edgeLabel;html=1;align=center;verticalAlign=middle;resizable=0;points=[];fontSize=12;fontFamily=Helvetica;fontColor=#000000;" parent="iUn0GgRghp78xL2DHV3C-357" vertex="1" connectable="0">
          <mxGeometry x="-0.0565" y="4" relative="1" as="geometry">
            <mxPoint x="3" y="-1" as="offset" />
          </mxGeometry>
        </mxCell>
        <mxCell id="iUn0GgRghp78xL2DHV3C-363" style="edgeStyle=orthogonalEdgeStyle;rounded=0;orthogonalLoop=1;jettySize=auto;html=1;exitX=0;exitY=0;exitDx=150;exitDy=65;exitPerimeter=0;entryX=0;entryY=0.5;entryDx=0;entryDy=0;fontFamily=Helvetica;fontSize=12;fontColor=#000000;" parent="1" source="iUn0GgRghp78xL2DHV3C-347" target="iUn0GgRghp78xL2DHV3C-361" edge="1">
          <mxGeometry relative="1" as="geometry">
            <Array as="points">
              <mxPoint x="690" y="2423" />
              <mxPoint x="690" y="2628" />
            </Array>
          </mxGeometry>
        </mxCell>
        <mxCell id="iUn0GgRghp78xL2DHV3C-364" value="/&lt;span style=&quot;border-color: var(--border-color); font-weight: 700; background-color: rgb(251, 251, 251);&quot;&gt;resource_usage_trend&lt;/span&gt;" style="edgeLabel;html=1;align=center;verticalAlign=middle;resizable=0;points=[];fontSize=12;fontFamily=Helvetica;fontColor=#000000;" parent="iUn0GgRghp78xL2DHV3C-363" vertex="1" connectable="0">
          <mxGeometry x="0.3972" relative="1" as="geometry">
            <mxPoint x="-5" y="-1" as="offset" />
          </mxGeometry>
        </mxCell>
        <mxCell id="iUn0GgRghp78xL2DHV3C-790" value="3.1" style="edgeLabel;html=1;align=center;verticalAlign=middle;resizable=0;points=[];fontSize=12;fontFamily=Helvetica;fontColor=#000000;" parent="iUn0GgRghp78xL2DHV3C-363" vertex="1" connectable="0">
          <mxGeometry x="0.0379" y="-1" relative="1" as="geometry">
            <mxPoint x="-1" as="offset" />
          </mxGeometry>
        </mxCell>
        <mxCell id="iUn0GgRghp78xL2DHV3C-769" style="edgeStyle=orthogonalEdgeStyle;rounded=0;orthogonalLoop=1;jettySize=auto;html=1;exitX=0;exitY=0;exitDx=150;exitDy=65;exitPerimeter=0;entryX=0;entryY=0.5;entryDx=0;entryDy=0;fontFamily=Helvetica;fontSize=12;fontColor=#000000;" parent="1" source="iUn0GgRghp78xL2DHV3C-347" target="iUn0GgRghp78xL2DHV3C-360" edge="1">
          <mxGeometry relative="1" as="geometry">
            <Array as="points">
              <mxPoint x="690" y="2425" />
              <mxPoint x="690" y="2850" />
            </Array>
          </mxGeometry>
        </mxCell>
        <mxCell id="iUn0GgRghp78xL2DHV3C-770" value="&lt;span style=&quot;border-color: var(--border-color);&quot;&gt;&lt;span style=&quot;border-color: var(--border-color); background-color: rgb(251, 251, 251);&quot;&gt;&lt;b&gt;/instances_list_for_hostname&lt;/b&gt;&lt;/span&gt;&lt;/span&gt;" style="edgeLabel;html=1;align=center;verticalAlign=middle;resizable=0;points=[];fontSize=12;fontFamily=Helvetica;fontColor=#000000;" parent="iUn0GgRghp78xL2DHV3C-769" vertex="1" connectable="0">
          <mxGeometry x="0.4456" relative="1" as="geometry">
            <mxPoint x="20" as="offset" />
          </mxGeometry>
        </mxCell>
        <mxCell id="iUn0GgRghp78xL2DHV3C-347" value="compute" style="shape=folder;fontStyle=1;tabWidth=110;tabHeight=30;tabPosition=left;html=1;boundedLbl=1;labelInHeader=1;container=1;collapsible=0;strokeColor=default;strokeWidth=3;fontFamily=Helvetica;fontSize=12;fontColor=#000000;fillColor=#F0A30A;" parent="1" vertex="1">
          <mxGeometry x="491" y="2359.5" width="150" height="100" as="geometry" />
        </mxCell>
        <mxCell id="iUn0GgRghp78xL2DHV3C-348" value="&lt;b&gt;计算业务线&lt;/b&gt;" style="html=1;strokeColor=none;resizeWidth=1;resizeHeight=1;fillColor=none;part=1;connectable=0;allowArrows=0;deletable=0;strokeWidth=3;fontFamily=Helvetica;fontSize=12;fontColor=#000000;" parent="iUn0GgRghp78xL2DHV3C-347" vertex="1">
          <mxGeometry width="150" height="70" relative="1" as="geometry">
            <mxPoint y="30" as="offset" />
          </mxGeometry>
        </mxCell>
        <mxCell id="iUn0GgRghp78xL2DHV3C-349" value="sdn" style="shape=folder;fontStyle=1;tabWidth=110;tabHeight=30;tabPosition=left;html=1;boundedLbl=1;labelInHeader=1;container=1;collapsible=0;strokeColor=default;strokeWidth=3;fontFamily=Helvetica;fontSize=12;fontColor=#000000;fillColor=#E6FFCC;" parent="1" vertex="1">
          <mxGeometry x="485" y="2490" width="150" height="100" as="geometry" />
        </mxCell>
        <mxCell id="iUn0GgRghp78xL2DHV3C-350" value="&lt;span style=&quot;font-weight: 700;&quot;&gt;网络业务线&lt;/span&gt;" style="html=1;strokeColor=none;resizeWidth=1;resizeHeight=1;fillColor=none;part=1;connectable=0;allowArrows=0;deletable=0;strokeWidth=3;fontFamily=Helvetica;fontSize=12;fontColor=#000000;" parent="iUn0GgRghp78xL2DHV3C-349" vertex="1">
          <mxGeometry width="150" height="70" relative="1" as="geometry">
            <mxPoint y="30" as="offset" />
          </mxGeometry>
        </mxCell>
        <mxCell id="iUn0GgRghp78xL2DHV3C-351" value="console" style="shape=folder;fontStyle=1;tabWidth=110;tabHeight=30;tabPosition=left;html=1;boundedLbl=1;labelInHeader=1;container=1;collapsible=0;strokeColor=default;strokeWidth=3;fontFamily=Helvetica;fontSize=12;fontColor=#000000;fillColor=#E6FFCC;" parent="1" vertex="1">
          <mxGeometry x="486" y="2620" width="150" height="100" as="geometry" />
        </mxCell>
        <mxCell id="iUn0GgRghp78xL2DHV3C-352" value="&lt;span style=&quot;font-weight: 700;&quot;&gt;基础服务业务线&lt;/span&gt;" style="html=1;strokeColor=none;resizeWidth=1;resizeHeight=1;fillColor=none;part=1;connectable=0;allowArrows=0;deletable=0;strokeWidth=3;fontFamily=Helvetica;fontSize=12;fontColor=#000000;" parent="iUn0GgRghp78xL2DHV3C-351" vertex="1">
          <mxGeometry width="150" height="70" relative="1" as="geometry">
            <mxPoint y="30" as="offset" />
          </mxGeometry>
        </mxCell>
        <mxCell id="iUn0GgRghp78xL2DHV3C-780" style="edgeStyle=orthogonalEdgeStyle;rounded=0;orthogonalLoop=1;jettySize=auto;html=1;exitX=0.5;exitY=0;exitDx=0;exitDy=0;entryX=0.5;entryY=0.5;entryDx=0;entryDy=-15.000000000000002;entryPerimeter=0;fontFamily=Helvetica;fontSize=12;fontColor=#000000;" parent="1" source="iUn0GgRghp78xL2DHV3C-353" target="iUn0GgRghp78xL2DHV3C-167" edge="1">
          <mxGeometry relative="1" as="geometry" />
        </mxCell>
        <mxCell id="iUn0GgRghp78xL2DHV3C-781" value="1.3&amp;nbsp;&lt;b style=&quot;border-color: var(--border-color); background-color: rgb(251, 251, 251);&quot;&gt;返回机型信息列表&lt;/b&gt;" style="edgeLabel;html=1;align=center;verticalAlign=middle;resizable=0;points=[];fontSize=12;fontFamily=Helvetica;fontColor=#000000;" parent="iUn0GgRghp78xL2DHV3C-780" vertex="1" connectable="0">
          <mxGeometry x="-0.3678" y="1" relative="1" as="geometry">
            <mxPoint as="offset" />
          </mxGeometry>
        </mxCell>
        <mxCell id="iUn0GgRghp78xL2DHV3C-353" value="&lt;p style=&quot;margin: 4px 0px 0px; text-align: center;&quot;&gt;&lt;span style=&quot;&quot;&gt;machine_type&lt;/span&gt;&lt;strong style=&quot;text-decoration-line: underline;&quot;&gt;&lt;br&gt;&lt;/strong&gt;&lt;/p&gt;&lt;hr&gt;&lt;p style=&quot;margin: 0px; margin-left: 8px;&quot;&gt;&lt;span style=&quot;&quot;&gt;获取机型信息&lt;/span&gt;&lt;br&gt;&lt;/p&gt;" style="verticalAlign=middle;align=center;overflow=fill;fontSize=12;fontFamily=Helvetica;html=1;rounded=1;fontStyle=1;strokeWidth=3;fillColor=#FFFFCC;" parent="1" vertex="1">
          <mxGeometry x="964" y="2000" width="150" height="75" as="geometry" />
        </mxCell>
        <mxCell id="iUn0GgRghp78xL2DHV3C-354" value="&lt;p style=&quot;margin: 4px 0px 0px; text-align: center;&quot;&gt;&lt;span style=&quot;&quot;&gt;standby_hosts&lt;/span&gt;&lt;strong style=&quot;text-decoration-line: underline;&quot;&gt;&lt;br&gt;&lt;/strong&gt;&lt;/p&gt;&lt;hr&gt;&lt;p style=&quot;margin: 0px; margin-left: 8px;&quot;&gt;&lt;span style=&quot;&quot;&gt;获取备机信息&lt;/span&gt;&lt;br&gt;&lt;/p&gt;" style="verticalAlign=middle;align=center;overflow=fill;fontSize=12;fontFamily=Helvetica;html=1;rounded=1;fontStyle=1;strokeWidth=3;fillColor=#FFFFCC;" parent="1" vertex="1">
          <mxGeometry x="970" y="2338" width="150" height="75" as="geometry" />
        </mxCell>
        <mxCell id="iUn0GgRghp78xL2DHV3C-786" style="edgeStyle=orthogonalEdgeStyle;rounded=0;orthogonalLoop=1;jettySize=auto;html=1;exitX=0.5;exitY=0;exitDx=0;exitDy=0;entryX=0.5;entryY=0.5;entryDx=0;entryDy=-15.000000000000002;entryPerimeter=0;fontFamily=Helvetica;fontSize=12;fontColor=#000000;" parent="1" source="iUn0GgRghp78xL2DHV3C-355" target="iUn0GgRghp78xL2DHV3C-167" edge="1">
          <mxGeometry relative="1" as="geometry" />
        </mxCell>
        <mxCell id="iUn0GgRghp78xL2DHV3C-787" value="&lt;b style=&quot;border-color: var(--border-color);&quot;&gt;2.3 返回创建成功/失败信息&lt;/b&gt;" style="edgeLabel;html=1;align=center;verticalAlign=middle;resizable=0;points=[];fontSize=12;fontFamily=Helvetica;fontColor=#000000;" parent="iUn0GgRghp78xL2DHV3C-786" vertex="1" connectable="0">
          <mxGeometry x="-0.1881" relative="1" as="geometry">
            <mxPoint as="offset" />
          </mxGeometry>
        </mxCell>
        <mxCell id="iUn0GgRghp78xL2DHV3C-355" value="&lt;p style=&quot;margin: 4px 0px 0px; text-align: center;&quot;&gt;&lt;span style=&quot;&quot;&gt;create_machine_type&lt;/span&gt;&lt;strong style=&quot;text-decoration-line: underline;&quot;&gt;&lt;br&gt;&lt;/strong&gt;&lt;/p&gt;&lt;hr&gt;&lt;p style=&quot;margin: 0px; margin-left: 8px;&quot;&gt;&lt;span style=&quot;&quot;&gt;创建机型信息&lt;/span&gt;&lt;br&gt;&lt;/p&gt;" style="verticalAlign=middle;align=center;overflow=fill;fontSize=12;fontFamily=Helvetica;html=1;rounded=1;fontStyle=1;strokeWidth=3;fillColor=#FFFFCC;" parent="1" vertex="1">
          <mxGeometry x="970" y="2099.5" width="150" height="75" as="geometry" />
        </mxCell>
        <mxCell id="iUn0GgRghp78xL2DHV3C-356" value="&lt;p style=&quot;margin: 4px 0px 0px; text-align: center;&quot;&gt;&lt;span style=&quot;&quot;&gt;edit_machine_type&lt;/span&gt;&lt;strong style=&quot;text-decoration-line: underline;&quot;&gt;&lt;br&gt;&lt;/strong&gt;&lt;/p&gt;&lt;hr&gt;&lt;p style=&quot;margin: 0px; margin-left: 8px;&quot;&gt;&lt;span style=&quot;&quot;&gt;编辑机型信息&lt;/span&gt;&lt;br&gt;&lt;/p&gt;" style="verticalAlign=middle;align=center;overflow=fill;fontSize=12;fontFamily=Helvetica;html=1;rounded=1;fontStyle=1;strokeWidth=3;fillColor=#FFFFCC;" parent="1" vertex="1">
          <mxGeometry x="970" y="2210" width="150" height="75" as="geometry" />
        </mxCell>
        <mxCell id="iUn0GgRghp78xL2DHV3C-359" value="&lt;p style=&quot;margin: 4px 0px 0px; text-align: center;&quot;&gt;&lt;span style=&quot;&quot;&gt;resource_usage_rate&lt;/span&gt;&lt;strong style=&quot;text-decoration-line: underline;&quot;&gt;&lt;br&gt;&lt;/strong&gt;&lt;/p&gt;&lt;hr&gt;&lt;p style=&quot;margin: 0px; margin-left: 8px;&quot;&gt;&lt;span style=&quot;&quot;&gt;计算资源使用率&lt;/span&gt;&lt;br&gt;&lt;/p&gt;" style="verticalAlign=middle;align=center;overflow=fill;fontSize=12;fontFamily=Helvetica;html=1;rounded=1;fontStyle=1;strokeWidth=3;fillColor=#FFFFCC;" parent="1" vertex="1">
          <mxGeometry x="970" y="2471" width="150" height="75" as="geometry" />
        </mxCell>
        <mxCell id="iUn0GgRghp78xL2DHV3C-360" value="&lt;p style=&quot;margin: 4px 0px 0px; text-align: center;&quot;&gt;&lt;span style=&quot;&quot;&gt;instances_list_for_hostname&lt;/span&gt;&lt;strong style=&quot;text-decoration-line: underline;&quot;&gt;&lt;br&gt;&lt;/strong&gt;&lt;/p&gt;&lt;hr&gt;&lt;p style=&quot;margin: 0px; margin-left: 8px;&quot;&gt;&lt;span style=&quot;&quot;&gt;获取云主机列表&lt;/span&gt;&lt;br&gt;&lt;/p&gt;" style="verticalAlign=middle;align=center;overflow=fill;fontSize=12;fontFamily=Helvetica;html=1;rounded=1;fontStyle=1;strokeWidth=3;fillColor=#FFFFCC;" parent="1" vertex="1">
          <mxGeometry x="970" y="2820" width="180" height="59" as="geometry" />
        </mxCell>
        <mxCell id="iUn0GgRghp78xL2DHV3C-361" value="&lt;p style=&quot;margin: 4px 0px 0px; text-align: center;&quot;&gt;&lt;span style=&quot;&quot;&gt;resource_usage_trend&lt;/span&gt;&lt;strong style=&quot;text-decoration-line: underline;&quot;&gt;&lt;br&gt;&lt;/strong&gt;&lt;/p&gt;&lt;hr&gt;&lt;p style=&quot;margin: 0px; margin-left: 8px;&quot;&gt;&lt;span style=&quot;&quot;&gt;查询资源使用率趋势&lt;/span&gt;&lt;br&gt;&lt;/p&gt;" style="verticalAlign=middle;align=center;overflow=fill;fontSize=12;fontFamily=Helvetica;html=1;rounded=1;fontStyle=1;strokeWidth=3;fillColor=#FFFFCC;" parent="1" vertex="1">
          <mxGeometry x="979" y="2590" width="150" height="75" as="geometry" />
        </mxCell>
        <mxCell id="iUn0GgRghp78xL2DHV3C-365" value="&lt;p style=&quot;margin: 4px 0px 0px; text-align: center;&quot;&gt;&lt;span style=&quot;&quot;&gt;nodes_list&lt;/span&gt;&lt;strong style=&quot;text-decoration-line: underline;&quot;&gt;&lt;br&gt;&lt;/strong&gt;&lt;/p&gt;&lt;hr&gt;&lt;p style=&quot;margin: 0px; margin-left: 8px;&quot;&gt;&lt;span style=&quot;&quot;&gt;获取节点列表&lt;/span&gt;&lt;br&gt;&lt;/p&gt;" style="verticalAlign=middle;align=center;overflow=fill;fontSize=12;fontFamily=Helvetica;html=1;rounded=1;fontStyle=1;strokeWidth=3;fillColor=#FFFFCC;" parent="1" vertex="1">
          <mxGeometry x="979" y="2700" width="150" height="75" as="geometry" />
        </mxCell>
        <mxCell id="iUn0GgRghp78xL2DHV3C-366" value="" style="edgeStyle=orthogonalEdgeStyle;rounded=0;orthogonalLoop=1;jettySize=auto;html=1;exitX=1;exitY=0.5;exitDx=0;exitDy=0;exitPerimeter=0;" parent="1" source="iUn0GgRghp78xL2DHV3C-381" target="iUn0GgRghp78xL2DHV3C-378" edge="1">
          <mxGeometry relative="1" as="geometry">
            <mxPoint x="128.5" y="4460" as="sourcePoint" />
          </mxGeometry>
        </mxCell>
        <mxCell id="iUn0GgRghp78xL2DHV3C-367" style="edgeStyle=orthogonalEdgeStyle;rounded=0;orthogonalLoop=1;jettySize=auto;html=1;exitX=1;exitY=0.5;exitDx=0;exitDy=0;entryX=0;entryY=0;entryDx=0;entryDy=47.5;entryPerimeter=0;" parent="1" source="iUn0GgRghp78xL2DHV3C-378" target="iUn0GgRghp78xL2DHV3C-396" edge="1">
          <mxGeometry x="0.0928" y="45" relative="1" as="geometry">
            <mxPoint x="699.9999999999995" y="4225" as="targetPoint" />
            <Array as="points">
              <mxPoint x="520" y="4475" />
              <mxPoint x="520" y="4228" />
            </Array>
            <mxPoint as="offset" />
          </mxGeometry>
        </mxCell>
        <mxCell id="iUn0GgRghp78xL2DHV3C-369" value="&lt;b&gt;&lt;br&gt;&lt;span style=&quot;border-color: var(--border-color); color: rgb(0, 0, 0); font-family: Helvetica; font-size: 12px; font-style: normal; font-variant-ligatures: normal; font-variant-caps: normal; letter-spacing: normal; orphans: 2; text-align: center; text-indent: 0px; text-transform: none; widows: 2; word-spacing: 0px; -webkit-text-stroke-width: 0px; background-color: rgb(251, 251, 251); text-decoration-thickness: initial; text-decoration-style: initial; text-decoration-color: initial;&quot;&gt;/auth&lt;/span&gt;&lt;br&gt;&lt;/b&gt;" style="edgeLabel;html=1;align=center;verticalAlign=middle;resizable=0;points=[];fontSize=12;fontFamily=Helvetica;fontColor=#000000;" parent="iUn0GgRghp78xL2DHV3C-367" vertex="1" connectable="0">
          <mxGeometry x="0.7379" y="1" relative="1" as="geometry">
            <mxPoint x="5" y="-12" as="offset" />
          </mxGeometry>
        </mxCell>
        <mxCell id="iUn0GgRghp78xL2DHV3C-370" style="edgeStyle=orthogonalEdgeStyle;rounded=0;orthogonalLoop=1;jettySize=auto;html=1;exitX=1;exitY=0.5;exitDx=0;exitDy=0;entryX=0;entryY=0;entryDx=0;entryDy=47.5;entryPerimeter=0;fontFamily=Helvetica;fontSize=12;fontColor=#000000;" parent="1" source="iUn0GgRghp78xL2DHV3C-378" target="iUn0GgRghp78xL2DHV3C-398" edge="1">
          <mxGeometry relative="1" as="geometry">
            <Array as="points">
              <mxPoint x="520" y="4475" />
              <mxPoint x="520" y="4342" />
            </Array>
          </mxGeometry>
        </mxCell>
        <mxCell id="iUn0GgRghp78xL2DHV3C-371" value="&lt;b&gt;/ehdd&lt;/b&gt;" style="edgeLabel;html=1;align=center;verticalAlign=middle;resizable=0;points=[];fontSize=12;fontFamily=Helvetica;fontColor=#000000;" parent="iUn0GgRghp78xL2DHV3C-370" vertex="1" connectable="0">
          <mxGeometry x="0.6554" y="-1" relative="1" as="geometry">
            <mxPoint x="1" y="-3" as="offset" />
          </mxGeometry>
        </mxCell>
        <mxCell id="iUn0GgRghp78xL2DHV3C-372" style="edgeStyle=orthogonalEdgeStyle;rounded=0;orthogonalLoop=1;jettySize=auto;html=1;exitX=1;exitY=0.5;exitDx=0;exitDy=0;entryX=0;entryY=0;entryDx=0;entryDy=65;entryPerimeter=0;fontFamily=Helvetica;fontSize=12;fontColor=#000000;" parent="1" source="iUn0GgRghp78xL2DHV3C-378" target="iUn0GgRghp78xL2DHV3C-400" edge="1">
          <mxGeometry relative="1" as="geometry" />
        </mxCell>
        <mxCell id="iUn0GgRghp78xL2DHV3C-373" value="&lt;b&gt;/compute&lt;/b&gt;" style="edgeLabel;html=1;align=center;verticalAlign=middle;resizable=0;points=[];fontSize=12;fontFamily=Helvetica;fontColor=#000000;" parent="iUn0GgRghp78xL2DHV3C-372" vertex="1" connectable="0">
          <mxGeometry x="0.2985" y="-1" relative="1" as="geometry">
            <mxPoint y="-3" as="offset" />
          </mxGeometry>
        </mxCell>
        <mxCell id="iUn0GgRghp78xL2DHV3C-374" style="edgeStyle=orthogonalEdgeStyle;rounded=0;orthogonalLoop=1;jettySize=auto;html=1;exitX=1;exitY=0.5;exitDx=0;exitDy=0;entryX=0;entryY=0;entryDx=0;entryDy=65;entryPerimeter=0;fontFamily=Helvetica;fontSize=12;fontColor=#000000;" parent="1" source="iUn0GgRghp78xL2DHV3C-378" target="iUn0GgRghp78xL2DHV3C-402" edge="1">
          <mxGeometry x="-0.7005" y="-45" relative="1" as="geometry">
            <Array as="points">
              <mxPoint x="520" y="4475" />
              <mxPoint x="520" y="4595" />
            </Array>
            <mxPoint x="-1" as="offset" />
          </mxGeometry>
        </mxCell>
        <mxCell id="iUn0GgRghp78xL2DHV3C-375" value="&lt;b&gt;/sdn&lt;/b&gt;" style="edgeLabel;html=1;align=center;verticalAlign=middle;resizable=0;points=[];fontSize=12;fontFamily=Helvetica;fontColor=#000000;" parent="iUn0GgRghp78xL2DHV3C-374" vertex="1" connectable="0">
          <mxGeometry x="0.4853" y="2" relative="1" as="geometry">
            <mxPoint x="18" y="-3" as="offset" />
          </mxGeometry>
        </mxCell>
        <mxCell id="iUn0GgRghp78xL2DHV3C-376" style="edgeStyle=orthogonalEdgeStyle;rounded=0;orthogonalLoop=1;jettySize=auto;html=1;entryX=0;entryY=0;entryDx=0;entryDy=65;entryPerimeter=0;fontFamily=Helvetica;fontSize=12;fontColor=#000000;" parent="1" source="iUn0GgRghp78xL2DHV3C-378" target="iUn0GgRghp78xL2DHV3C-404" edge="1">
          <mxGeometry relative="1" as="geometry">
            <Array as="points">
              <mxPoint x="520" y="4475" />
              <mxPoint x="520" y="4725" />
            </Array>
          </mxGeometry>
        </mxCell>
        <mxCell id="iUn0GgRghp78xL2DHV3C-377" value="&lt;b&gt;/console&lt;/b&gt;" style="edgeLabel;html=1;align=center;verticalAlign=middle;resizable=0;points=[];fontSize=12;fontFamily=Helvetica;fontColor=#000000;" parent="iUn0GgRghp78xL2DHV3C-376" vertex="1" connectable="0">
          <mxGeometry x="0.6917" y="-2" relative="1" as="geometry">
            <mxPoint x="5" y="-2" as="offset" />
          </mxGeometry>
        </mxCell>
        <mxCell id="iUn0GgRghp78xL2DHV3C-378" value="Uvicorn server  listening..." style="shape=process;whiteSpace=wrap;align=center;verticalAlign=middle;size=0.0475;fontStyle=1;strokeWidth=3;fillColor=#FFCCCC" parent="1" vertex="1">
          <mxGeometry x="253.5" y="4450" width="226.5" height="50" as="geometry" />
        </mxCell>
        <mxCell id="iUn0GgRghp78xL2DHV3C-381" value="浏览器" style="html=1;dashed=0;whitespace=wrap;shape=mxgraph.dfd.start;strokeColor=default;strokeWidth=3;fontFamily=Helvetica;fontSize=12;fontColor=default;fillColor=#FFFFCC;" parent="1" vertex="1">
          <mxGeometry x="105" y="4459" width="80" height="30" as="geometry" />
        </mxCell>
        <mxCell id="iUn0GgRghp78xL2DHV3C-389" style="edgeStyle=orthogonalEdgeStyle;rounded=0;orthogonalLoop=1;jettySize=auto;html=1;entryX=0;entryY=0.5;entryDx=0;entryDy=0;entryPerimeter=0;fontFamily=Helvetica;fontSize=12;fontColor=#000000;" parent="1" source="iUn0GgRghp78xL2DHV3C-390" target="iUn0GgRghp78xL2DHV3C-381" edge="1">
          <mxGeometry relative="1" as="geometry" />
        </mxCell>
        <mxCell id="iUn0GgRghp78xL2DHV3C-390" value="用户" style="shape=umlActor;verticalLabelPosition=bottom;verticalAlign=top;html=1;outlineConnect=0;strokeColor=default;strokeWidth=3;fontFamily=Helvetica;fontSize=12;fontColor=default;fillColor=#FFFFCC;" parent="1" vertex="1">
          <mxGeometry x="30" y="4444" width="30" height="60" as="geometry" />
        </mxCell>
        <mxCell id="iUn0GgRghp78xL2DHV3C-396" value="auth" style="shape=folder;fontStyle=1;tabWidth=110;tabHeight=30;tabPosition=left;html=1;boundedLbl=1;labelInHeader=1;container=1;collapsible=0;strokeColor=default;strokeWidth=3;fontFamily=Helvetica;fontSize=12;fontColor=#000000;fillColor=#E6FFCC;" parent="1" vertex="1">
          <mxGeometry x="590" y="4180" width="150" height="100" as="geometry" />
        </mxCell>
        <mxCell id="iUn0GgRghp78xL2DHV3C-397" value="&lt;span style=&quot;font-weight: 700;&quot;&gt;登录认证，鉴权&lt;/span&gt;" style="html=1;strokeColor=none;resizeWidth=1;resizeHeight=1;fillColor=none;part=1;connectable=0;allowArrows=0;deletable=0;strokeWidth=3;fontFamily=Helvetica;fontSize=12;fontColor=#000000;" parent="iUn0GgRghp78xL2DHV3C-396" vertex="1">
          <mxGeometry width="150" height="70" relative="1" as="geometry">
            <mxPoint y="30" as="offset" />
          </mxGeometry>
        </mxCell>
        <mxCell id="iUn0GgRghp78xL2DHV3C-420" style="edgeStyle=orthogonalEdgeStyle;rounded=0;orthogonalLoop=1;jettySize=auto;html=1;exitX=0;exitY=0;exitDx=150;exitDy=65;exitPerimeter=0;entryX=0;entryY=0.5;entryDx=0;entryDy=0;fontFamily=Helvetica;fontSize=12;fontColor=#000000;" parent="1" source="iUn0GgRghp78xL2DHV3C-398" target="iUn0GgRghp78xL2DHV3C-409" edge="1">
          <mxGeometry x="0.078" y="41" relative="1" as="geometry">
            <Array as="points">
              <mxPoint x="780" y="4360" />
              <mxPoint x="780" y="4028" />
            </Array>
            <mxPoint as="offset" />
          </mxGeometry>
        </mxCell>
        <mxCell id="iUn0GgRghp78xL2DHV3C-422" value="&lt;b&gt;/&lt;span style=&quot;background-color: rgb(251, 251, 251);&quot;&gt;ehdd_sla&lt;/span&gt;&lt;/b&gt;" style="edgeLabel;html=1;align=center;verticalAlign=middle;resizable=0;points=[];fontSize=12;fontFamily=Helvetica;fontColor=#000000;" parent="iUn0GgRghp78xL2DHV3C-420" vertex="1" connectable="0">
          <mxGeometry x="0.4682" y="3" relative="1" as="geometry">
            <mxPoint x="22" y="3" as="offset" />
          </mxGeometry>
        </mxCell>
        <mxCell id="iUn0GgRghp78xL2DHV3C-474" value="&lt;b&gt;1.1&lt;/b&gt;" style="edgeLabel;html=1;align=center;verticalAlign=middle;resizable=0;points=[];fontSize=12;fontFamily=Helvetica;fontColor=#000000;" parent="iUn0GgRghp78xL2DHV3C-420" vertex="1" connectable="0">
          <mxGeometry x="0.3678" y="1" relative="1" as="geometry">
            <mxPoint as="offset" />
          </mxGeometry>
        </mxCell>
        <mxCell id="iUn0GgRghp78xL2DHV3C-423" style="edgeStyle=orthogonalEdgeStyle;rounded=0;orthogonalLoop=1;jettySize=auto;html=1;exitX=0;exitY=0;exitDx=150;exitDy=65;exitPerimeter=0;entryX=0;entryY=0.5;entryDx=0;entryDy=0;fontFamily=Helvetica;fontSize=12;fontColor=#000000;" parent="1" source="iUn0GgRghp78xL2DHV3C-398" target="iUn0GgRghp78xL2DHV3C-412" edge="1">
          <mxGeometry relative="1" as="geometry">
            <Array as="points">
              <mxPoint x="780" y="4360" />
              <mxPoint x="780" y="4127" />
            </Array>
          </mxGeometry>
        </mxCell>
        <mxCell id="iUn0GgRghp78xL2DHV3C-424" value="/&lt;span style=&quot;font-weight: 700; background-color: rgb(251, 251, 251);&quot;&gt;ehdd_sla_total&lt;/span&gt;" style="edgeLabel;html=1;align=center;verticalAlign=middle;resizable=0;points=[];fontSize=12;fontFamily=Helvetica;fontColor=#000000;" parent="iUn0GgRghp78xL2DHV3C-423" vertex="1" connectable="0">
          <mxGeometry x="0.3231" relative="1" as="geometry">
            <mxPoint x="24" as="offset" />
          </mxGeometry>
        </mxCell>
        <mxCell id="iUn0GgRghp78xL2DHV3C-425" style="edgeStyle=orthogonalEdgeStyle;rounded=0;orthogonalLoop=1;jettySize=auto;html=1;exitX=0;exitY=0;exitDx=150;exitDy=65;exitPerimeter=0;entryX=0;entryY=0.5;entryDx=0;entryDy=0;fontFamily=Helvetica;fontSize=12;fontColor=#000000;" parent="1" source="iUn0GgRghp78xL2DHV3C-398" target="iUn0GgRghp78xL2DHV3C-414" edge="1">
          <mxGeometry relative="1" as="geometry">
            <Array as="points">
              <mxPoint x="780" y="4360" />
              <mxPoint x="780" y="4230" />
            </Array>
          </mxGeometry>
        </mxCell>
        <mxCell id="iUn0GgRghp78xL2DHV3C-426" value="&lt;b&gt;/&lt;span style=&quot;background-color: rgb(251, 251, 251);&quot;&gt;vdi_type&lt;/span&gt;&lt;/b&gt;" style="edgeLabel;html=1;align=center;verticalAlign=middle;resizable=0;points=[];fontSize=12;fontFamily=Helvetica;fontColor=#000000;" parent="iUn0GgRghp78xL2DHV3C-425" vertex="1" connectable="0">
          <mxGeometry x="0.0514" relative="1" as="geometry">
            <mxPoint x="48" as="offset" />
          </mxGeometry>
        </mxCell>
        <mxCell id="iUn0GgRghp78xL2DHV3C-489" value="&lt;b&gt;2.1&lt;/b&gt;" style="edgeLabel;html=1;align=center;verticalAlign=middle;resizable=0;points=[];fontSize=12;fontFamily=Helvetica;fontColor=#000000;" parent="iUn0GgRghp78xL2DHV3C-425" vertex="1" connectable="0">
          <mxGeometry x="-0.1989" y="1" relative="1" as="geometry">
            <mxPoint x="41" y="-17" as="offset" />
          </mxGeometry>
        </mxCell>
        <mxCell id="iUn0GgRghp78xL2DHV3C-427" style="edgeStyle=orthogonalEdgeStyle;rounded=0;orthogonalLoop=1;jettySize=auto;html=1;exitX=0;exitY=0;exitDx=150;exitDy=65;exitPerimeter=0;entryX=0;entryY=0.5;entryDx=0;entryDy=0;fontFamily=Helvetica;fontSize=12;fontColor=#000000;" parent="1" source="iUn0GgRghp78xL2DHV3C-398" target="iUn0GgRghp78xL2DHV3C-413" edge="1">
          <mxGeometry x="-0.5624" y="-50" relative="1" as="geometry">
            <Array as="points">
              <mxPoint x="780" y="4360" />
              <mxPoint x="780" y="4330" />
              <mxPoint x="994" y="4330" />
            </Array>
            <mxPoint as="offset" />
          </mxGeometry>
        </mxCell>
        <mxCell id="iUn0GgRghp78xL2DHV3C-428" value="/&lt;span style=&quot;font-weight: 700; background-color: rgb(251, 251, 251);&quot;&gt;cluster_capacity&lt;/span&gt;" style="edgeLabel;html=1;align=center;verticalAlign=middle;resizable=0;points=[];fontSize=12;fontFamily=Helvetica;fontColor=#000000;" parent="iUn0GgRghp78xL2DHV3C-427" vertex="1" connectable="0">
          <mxGeometry x="0.0986" y="1" relative="1" as="geometry">
            <mxPoint x="-10" y="4" as="offset" />
          </mxGeometry>
        </mxCell>
        <mxCell id="iUn0GgRghp78xL2DHV3C-429" style="edgeStyle=orthogonalEdgeStyle;rounded=0;orthogonalLoop=1;jettySize=auto;html=1;exitX=0;exitY=0;exitDx=150;exitDy=65;exitPerimeter=0;entryX=0;entryY=0.5;entryDx=0;entryDy=0;fontFamily=Helvetica;fontSize=12;fontColor=#000000;" parent="1" source="iUn0GgRghp78xL2DHV3C-398" target="iUn0GgRghp78xL2DHV3C-411" edge="1">
          <mxGeometry relative="1" as="geometry">
            <Array as="points">
              <mxPoint x="780" y="4360" />
              <mxPoint x="780" y="4452" />
            </Array>
          </mxGeometry>
        </mxCell>
        <mxCell id="iUn0GgRghp78xL2DHV3C-430" value="/&lt;span style=&quot;font-weight: 700; background-color: rgb(251, 251, 251);&quot;&gt;vdi_topn&lt;/span&gt;" style="edgeLabel;html=1;align=center;verticalAlign=middle;resizable=0;points=[];fontSize=12;fontFamily=Helvetica;fontColor=#000000;" parent="iUn0GgRghp78xL2DHV3C-429" vertex="1" connectable="0">
          <mxGeometry x="0.3874" y="-2" relative="1" as="geometry">
            <mxPoint x="-32" y="-3" as="offset" />
          </mxGeometry>
        </mxCell>
        <mxCell id="iUn0GgRghp78xL2DHV3C-431" style="edgeStyle=orthogonalEdgeStyle;rounded=0;orthogonalLoop=1;jettySize=auto;html=1;exitX=0;exitY=0;exitDx=150;exitDy=65;exitPerimeter=0;entryX=0;entryY=0.5;entryDx=0;entryDy=0;fontFamily=Helvetica;fontSize=12;fontColor=#000000;" parent="1" source="iUn0GgRghp78xL2DHV3C-398" target="iUn0GgRghp78xL2DHV3C-410" edge="1">
          <mxGeometry relative="1" as="geometry">
            <Array as="points">
              <mxPoint x="780" y="4360" />
              <mxPoint x="780" y="4560" />
              <mxPoint x="1000" y="4560" />
            </Array>
          </mxGeometry>
        </mxCell>
        <mxCell id="iUn0GgRghp78xL2DHV3C-432" value="/&lt;span style=&quot;font-weight: 700; background-color: rgb(251, 251, 251);&quot;&gt;resource_allocation&lt;/span&gt;" style="edgeLabel;html=1;align=center;verticalAlign=middle;resizable=0;points=[];fontSize=12;fontFamily=Helvetica;fontColor=#000000;" parent="iUn0GgRghp78xL2DHV3C-431" vertex="1" connectable="0">
          <mxGeometry x="0.4995" y="2" relative="1" as="geometry">
            <mxPoint x="-28" y="2" as="offset" />
          </mxGeometry>
        </mxCell>
        <mxCell id="iUn0GgRghp78xL2DHV3C-433" style="edgeStyle=orthogonalEdgeStyle;rounded=0;orthogonalLoop=1;jettySize=auto;html=1;exitX=0;exitY=0;exitDx=150;exitDy=65;exitPerimeter=0;entryX=0;entryY=0.5;entryDx=0;entryDy=0;fontFamily=Helvetica;fontSize=12;fontColor=#000000;" parent="1" source="iUn0GgRghp78xL2DHV3C-398" target="iUn0GgRghp78xL2DHV3C-416" edge="1">
          <mxGeometry relative="1" as="geometry">
            <Array as="points">
              <mxPoint x="780" y="4360" />
              <mxPoint x="780" y="4680" />
              <mxPoint x="1000" y="4680" />
            </Array>
          </mxGeometry>
        </mxCell>
        <mxCell id="iUn0GgRghp78xL2DHV3C-434" value="/&lt;span style=&quot;font-weight: 700; background-color: rgb(251, 251, 251);&quot;&gt;cluster_replica&lt;/span&gt;" style="edgeLabel;html=1;align=center;verticalAlign=middle;resizable=0;points=[];fontSize=12;fontFamily=Helvetica;fontColor=#000000;" parent="iUn0GgRghp78xL2DHV3C-433" vertex="1" connectable="0">
          <mxGeometry x="0.5837" y="3" relative="1" as="geometry">
            <mxPoint x="-33" y="-1" as="offset" />
          </mxGeometry>
        </mxCell>
        <mxCell id="iUn0GgRghp78xL2DHV3C-435" style="edgeStyle=orthogonalEdgeStyle;rounded=0;orthogonalLoop=1;jettySize=auto;html=1;exitX=0;exitY=0;exitDx=150;exitDy=65;exitPerimeter=0;entryX=0;entryY=0.5;entryDx=0;entryDy=0;fontFamily=Helvetica;fontSize=12;fontColor=#000000;" parent="1" source="iUn0GgRghp78xL2DHV3C-398" target="iUn0GgRghp78xL2DHV3C-415" edge="1">
          <mxGeometry relative="1" as="geometry">
            <Array as="points">
              <mxPoint x="780" y="4360" />
              <mxPoint x="780" y="4810" />
              <mxPoint x="1000" y="4810" />
            </Array>
          </mxGeometry>
        </mxCell>
        <mxCell id="iUn0GgRghp78xL2DHV3C-436" value="/&lt;span style=&quot;font-weight: 700; background-color: rgb(251, 251, 251);&quot;&gt;zone_info&lt;/span&gt;" style="edgeLabel;html=1;align=center;verticalAlign=middle;resizable=0;points=[];fontSize=12;fontFamily=Helvetica;fontColor=#000000;" parent="iUn0GgRghp78xL2DHV3C-435" vertex="1" connectable="0">
          <mxGeometry x="0.651" y="3" relative="1" as="geometry">
            <mxPoint x="-32" as="offset" />
          </mxGeometry>
        </mxCell>
        <mxCell id="iUn0GgRghp78xL2DHV3C-437" style="edgeStyle=orthogonalEdgeStyle;rounded=0;orthogonalLoop=1;jettySize=auto;html=1;exitX=0;exitY=0;exitDx=150;exitDy=65;exitPerimeter=0;entryX=0;entryY=0.5;entryDx=0;entryDy=0;fontFamily=Helvetica;fontSize=12;fontColor=#000000;" parent="1" source="iUn0GgRghp78xL2DHV3C-398" target="iUn0GgRghp78xL2DHV3C-417" edge="1">
          <mxGeometry relative="1" as="geometry">
            <Array as="points">
              <mxPoint x="780" y="4360" />
              <mxPoint x="780" y="4938" />
            </Array>
          </mxGeometry>
        </mxCell>
        <mxCell id="iUn0GgRghp78xL2DHV3C-438" value="/&lt;span style=&quot;font-weight: 700; background-color: rgb(251, 251, 251);&quot;&gt;disk_used&lt;/span&gt;" style="edgeLabel;html=1;align=center;verticalAlign=middle;resizable=0;points=[];fontSize=12;fontFamily=Helvetica;fontColor=#000000;" parent="iUn0GgRghp78xL2DHV3C-437" vertex="1" connectable="0">
          <mxGeometry x="0.6969" y="1" relative="1" as="geometry">
            <mxPoint x="-27" y="1" as="offset" />
          </mxGeometry>
        </mxCell>
        <mxCell id="iUn0GgRghp78xL2DHV3C-439" style="edgeStyle=orthogonalEdgeStyle;rounded=0;orthogonalLoop=1;jettySize=auto;html=1;exitX=0;exitY=0;exitDx=150;exitDy=65;exitPerimeter=0;entryX=0;entryY=0.5;entryDx=0;entryDy=0;fontFamily=Helvetica;fontSize=12;fontColor=#000000;" parent="1" source="iUn0GgRghp78xL2DHV3C-398" target="iUn0GgRghp78xL2DHV3C-418" edge="1">
          <mxGeometry relative="1" as="geometry">
            <Array as="points">
              <mxPoint x="780" y="4360" />
              <mxPoint x="780" y="5050" />
              <mxPoint x="979" y="5050" />
            </Array>
          </mxGeometry>
        </mxCell>
        <mxCell id="iUn0GgRghp78xL2DHV3C-440" value="/&lt;span style=&quot;font-weight: 700; background-color: rgb(251, 251, 251);&quot;&gt;alarm_event&lt;/span&gt;" style="edgeLabel;html=1;align=center;verticalAlign=middle;resizable=0;points=[];fontSize=12;fontFamily=Helvetica;fontColor=#000000;" parent="iUn0GgRghp78xL2DHV3C-439" vertex="1" connectable="0">
          <mxGeometry x="0.7312" y="1" relative="1" as="geometry">
            <mxPoint x="-7" y="-9" as="offset" />
          </mxGeometry>
        </mxCell>
        <mxCell id="iUn0GgRghp78xL2DHV3C-748" style="edgeStyle=orthogonalEdgeStyle;rounded=0;orthogonalLoop=1;jettySize=auto;html=1;exitX=0;exitY=0;exitDx=150;exitDy=65;exitPerimeter=0;entryX=0;entryY=0.5;entryDx=0;entryDy=0;fontFamily=Helvetica;fontSize=12;fontColor=#000000;" parent="1" source="iUn0GgRghp78xL2DHV3C-398" target="iUn0GgRghp78xL2DHV3C-419" edge="1">
          <mxGeometry relative="1" as="geometry">
            <Array as="points">
              <mxPoint x="780" y="4360" />
              <mxPoint x="780" y="5160" />
            </Array>
          </mxGeometry>
        </mxCell>
        <mxCell id="iUn0GgRghp78xL2DHV3C-749" value="&lt;b&gt;/node_list&lt;/b&gt;" style="edgeLabel;html=1;align=center;verticalAlign=middle;resizable=0;points=[];fontSize=12;fontFamily=Helvetica;fontColor=#000000;" parent="iUn0GgRghp78xL2DHV3C-748" vertex="1" connectable="0">
          <mxGeometry x="0.7399" y="4" relative="1" as="geometry">
            <mxPoint as="offset" />
          </mxGeometry>
        </mxCell>
        <mxCell id="iUn0GgRghp78xL2DHV3C-398" value="ehdd" style="shape=folder;fontStyle=1;tabWidth=110;tabHeight=30;tabPosition=left;html=1;boundedLbl=1;labelInHeader=1;container=1;collapsible=0;strokeColor=default;strokeWidth=3;fontFamily=Helvetica;fontSize=12;fontColor=#000000;fillColor=#F0A30A;" parent="1" vertex="1">
          <mxGeometry x="590" y="4295" width="150" height="100" as="geometry" />
        </mxCell>
        <mxCell id="iUn0GgRghp78xL2DHV3C-399" value="&lt;span style=&quot;font-weight: 700;&quot;&gt;云磁盘资源请求&lt;/span&gt;" style="html=1;strokeColor=none;resizeWidth=1;resizeHeight=1;fillColor=none;part=1;connectable=0;allowArrows=0;deletable=0;strokeWidth=3;fontFamily=Helvetica;fontSize=12;fontColor=#000000;" parent="iUn0GgRghp78xL2DHV3C-398" vertex="1">
          <mxGeometry width="150" height="70" relative="1" as="geometry">
            <mxPoint y="30" as="offset" />
          </mxGeometry>
        </mxCell>
        <mxCell id="iUn0GgRghp78xL2DHV3C-400" value="compute" style="shape=folder;fontStyle=1;tabWidth=110;tabHeight=30;tabPosition=left;html=1;boundedLbl=1;labelInHeader=1;container=1;collapsible=0;strokeColor=default;strokeWidth=3;fontFamily=Helvetica;fontSize=12;fontColor=#000000;fillColor=#E6FFCC;" parent="1" vertex="1">
          <mxGeometry x="593" y="4410" width="150" height="100" as="geometry" />
        </mxCell>
        <mxCell id="iUn0GgRghp78xL2DHV3C-401" value="&lt;b&gt;计算业务线&lt;/b&gt;" style="html=1;strokeColor=none;resizeWidth=1;resizeHeight=1;fillColor=none;part=1;connectable=0;allowArrows=0;deletable=0;strokeWidth=3;fontFamily=Helvetica;fontSize=12;fontColor=#000000;" parent="iUn0GgRghp78xL2DHV3C-400" vertex="1">
          <mxGeometry width="150" height="70" relative="1" as="geometry">
            <mxPoint y="30" as="offset" />
          </mxGeometry>
        </mxCell>
        <mxCell id="iUn0GgRghp78xL2DHV3C-402" value="sdn" style="shape=folder;fontStyle=1;tabWidth=110;tabHeight=30;tabPosition=left;html=1;boundedLbl=1;labelInHeader=1;container=1;collapsible=0;strokeColor=default;strokeWidth=3;fontFamily=Helvetica;fontSize=12;fontColor=#000000;fillColor=#E6FFCC;" parent="1" vertex="1">
          <mxGeometry x="593" y="4527.5" width="150" height="100" as="geometry" />
        </mxCell>
        <mxCell id="iUn0GgRghp78xL2DHV3C-403" value="&lt;span style=&quot;font-weight: 700;&quot;&gt;网络业务线&lt;/span&gt;" style="html=1;strokeColor=none;resizeWidth=1;resizeHeight=1;fillColor=none;part=1;connectable=0;allowArrows=0;deletable=0;strokeWidth=3;fontFamily=Helvetica;fontSize=12;fontColor=#000000;" parent="iUn0GgRghp78xL2DHV3C-402" vertex="1">
          <mxGeometry width="150" height="70" relative="1" as="geometry">
            <mxPoint y="30" as="offset" />
          </mxGeometry>
        </mxCell>
        <mxCell id="iUn0GgRghp78xL2DHV3C-404" value="console" style="shape=folder;fontStyle=1;tabWidth=110;tabHeight=30;tabPosition=left;html=1;boundedLbl=1;labelInHeader=1;container=1;collapsible=0;strokeColor=default;strokeWidth=3;fontFamily=Helvetica;fontSize=12;fontColor=#000000;fillColor=#E6FFCC;" parent="1" vertex="1">
          <mxGeometry x="593" y="4647.5" width="150" height="100" as="geometry" />
        </mxCell>
        <mxCell id="iUn0GgRghp78xL2DHV3C-405" value="&lt;span style=&quot;font-weight: 700;&quot;&gt;基础服务业务线&lt;/span&gt;" style="html=1;strokeColor=none;resizeWidth=1;resizeHeight=1;fillColor=none;part=1;connectable=0;allowArrows=0;deletable=0;strokeWidth=3;fontFamily=Helvetica;fontSize=12;fontColor=#000000;" parent="iUn0GgRghp78xL2DHV3C-404" vertex="1">
          <mxGeometry width="150" height="70" relative="1" as="geometry">
            <mxPoint y="30" as="offset" />
          </mxGeometry>
        </mxCell>
        <mxCell id="iUn0GgRghp78xL2DHV3C-448" style="edgeStyle=orthogonalEdgeStyle;rounded=0;orthogonalLoop=1;jettySize=auto;html=1;exitX=1;exitY=0.5;exitDx=0;exitDy=0;entryX=0;entryY=0;entryDx=0;entryDy=65;entryPerimeter=0;fontFamily=Helvetica;fontSize=12;fontColor=#000000;fontStyle=1" parent="1" source="iUn0GgRghp78xL2DHV3C-409" target="iUn0GgRghp78xL2DHV3C-445" edge="1">
          <mxGeometry relative="1" as="geometry">
            <Array as="points">
              <mxPoint x="1280" y="4028" />
              <mxPoint x="1280" y="4488" />
            </Array>
          </mxGeometry>
        </mxCell>
        <mxCell id="iUn0GgRghp78xL2DHV3C-475" value="&lt;b&gt;1.2&lt;/b&gt;" style="edgeLabel;html=1;align=center;verticalAlign=middle;resizable=0;points=[];fontSize=12;fontFamily=Helvetica;fontColor=#000000;" parent="iUn0GgRghp78xL2DHV3C-448" vertex="1" connectable="0">
          <mxGeometry x="-0.2301" y="4" relative="1" as="geometry">
            <mxPoint x="-34" y="-109" as="offset" />
          </mxGeometry>
        </mxCell>
        <mxCell id="iUn0GgRghp78xL2DHV3C-409" value="&lt;p style=&quot;margin: 4px 0px 0px; text-align: center;&quot;&gt;ehdd_sla&lt;br&gt;&lt;/p&gt;&lt;hr&gt;&lt;p style=&quot;margin: 0px; margin-left: 8px;&quot;&gt;EHDD集群SLA监控数据&lt;br&gt;&lt;/p&gt;" style="verticalAlign=middle;align=center;overflow=fill;fontSize=12;fontFamily=Helvetica;html=1;rounded=1;fontStyle=1;strokeWidth=3;fillColor=#FFFFCC;" parent="1" vertex="1">
          <mxGeometry x="1000" y="3990" width="150" height="75" as="geometry" />
        </mxCell>
        <mxCell id="iUn0GgRghp78xL2DHV3C-410" value="&lt;p style=&quot;margin: 4px 0px 0px; text-align: center;&quot;&gt;resource_allocation&lt;br&gt;&lt;/p&gt;&lt;hr&gt;&lt;p style=&quot;margin: 0px; margin-left: 8px;&quot;&gt;资源分配情况(TB)&lt;br&gt;&lt;/p&gt;" style="verticalAlign=middle;align=center;overflow=fill;fontSize=12;fontFamily=Helvetica;html=1;rounded=1;fontStyle=1;strokeWidth=3;fillColor=#FFFFCC;" parent="1" vertex="1">
          <mxGeometry x="1005" y="4524" width="150" height="75" as="geometry" />
        </mxCell>
        <mxCell id="iUn0GgRghp78xL2DHV3C-411" value="&lt;p style=&quot;margin: 4px 0px 0px; text-align: center;&quot;&gt;vdi_topn&lt;br&gt;&lt;/p&gt;&lt;hr&gt;&lt;p style=&quot;margin: 0px; margin-left: 8px;&quot;&gt;sla top5&lt;br&gt;&lt;/p&gt;" style="verticalAlign=middle;align=center;overflow=fill;fontSize=12;fontFamily=Helvetica;html=1;rounded=1;fontStyle=1;strokeWidth=3;fillColor=#FFFFCC;" parent="1" vertex="1">
          <mxGeometry x="1000" y="4414" width="150" height="75" as="geometry" />
        </mxCell>
        <mxCell id="iUn0GgRghp78xL2DHV3C-412" value="&lt;p style=&quot;margin: 4px 0px 0px; text-align: center;&quot;&gt;ehdd_sla_total&lt;br&gt;&lt;/p&gt;&lt;hr&gt;&lt;p style=&quot;margin: 0px; margin-left: 8px;&quot;&gt;EHDD集群SLA监控数据汇总&lt;br&gt;&lt;/p&gt;" style="verticalAlign=middle;align=center;overflow=fill;fontSize=12;fontFamily=Helvetica;html=1;rounded=1;fontStyle=1;strokeWidth=3;fillColor=#FFFFCC;" parent="1" vertex="1">
          <mxGeometry x="990" y="4092" width="170.5" height="70" as="geometry" />
        </mxCell>
        <mxCell id="iUn0GgRghp78xL2DHV3C-413" value="&lt;p style=&quot;margin: 4px 0px 0px; text-align: center;&quot;&gt;cluster_capacity&lt;br&gt;&lt;/p&gt;&lt;hr&gt;&lt;p style=&quot;margin: 0px; margin-left: 8px;&quot;&gt;集群容量(TB)&lt;br&gt;&lt;/p&gt;" style="verticalAlign=middle;align=center;overflow=fill;fontSize=12;fontFamily=Helvetica;html=1;rounded=1;fontStyle=1;strokeWidth=3;fillColor=#FFFFCC;" parent="1" vertex="1">
          <mxGeometry x="1000.25" y="4295" width="150" height="75" as="geometry" />
        </mxCell>
        <mxCell id="iUn0GgRghp78xL2DHV3C-750" style="edgeStyle=orthogonalEdgeStyle;rounded=0;orthogonalLoop=1;jettySize=auto;html=1;exitX=1;exitY=0.5;exitDx=0;exitDy=0;entryX=0;entryY=0;entryDx=55;entryDy=0;entryPerimeter=0;fontFamily=Helvetica;fontSize=12;fontColor=#000000;" parent="1" source="iUn0GgRghp78xL2DHV3C-414" target="iUn0GgRghp78xL2DHV3C-445" edge="1">
          <mxGeometry relative="1" as="geometry" />
        </mxCell>
        <mxCell id="iUn0GgRghp78xL2DHV3C-751" value="&lt;b&gt;2.2&lt;/b&gt;" style="edgeLabel;html=1;align=center;verticalAlign=middle;resizable=0;points=[];fontSize=12;fontFamily=Helvetica;fontColor=#000000;" parent="iUn0GgRghp78xL2DHV3C-750" vertex="1" connectable="0">
          <mxGeometry x="-0.0128" relative="1" as="geometry">
            <mxPoint x="-17" as="offset" />
          </mxGeometry>
        </mxCell>
        <mxCell id="iUn0GgRghp78xL2DHV3C-414" value="&lt;p style=&quot;margin: 4px 0px 0px; text-align: center;&quot;&gt;vdi_type&lt;br&gt;&lt;/p&gt;&lt;hr&gt;&lt;p style=&quot;margin: 0px; margin-left: 8px;&quot;&gt;集群属性&lt;br&gt;&lt;/p&gt;" style="verticalAlign=middle;align=center;overflow=fill;fontSize=12;fontFamily=Helvetica;html=1;rounded=1;fontStyle=1;strokeWidth=3;fillColor=#FFFFCC;" parent="1" vertex="1">
          <mxGeometry x="994" y="4192.5" width="150" height="75" as="geometry" />
        </mxCell>
        <mxCell id="iUn0GgRghp78xL2DHV3C-415" value="&lt;p style=&quot;margin: 4px 0px 0px; text-align: center;&quot;&gt;zone_info&lt;br&gt;&lt;/p&gt;&lt;hr&gt;&lt;p style=&quot;margin: 0px; margin-left: 8px;&quot;&gt;zone信息&lt;br&gt;&lt;/p&gt;" style="verticalAlign=middle;align=center;overflow=fill;fontSize=12;fontFamily=Helvetica;html=1;rounded=1;fontStyle=1;strokeWidth=3;fillColor=#FFFFCC;" parent="1" vertex="1">
          <mxGeometry x="1005" y="4770" width="150" height="75" as="geometry" />
        </mxCell>
        <mxCell id="iUn0GgRghp78xL2DHV3C-416" value="&lt;p style=&quot;margin: 4px 0px 0px; text-align: center;&quot;&gt;cluster_replica&lt;br&gt;&lt;/p&gt;&lt;hr&gt;&lt;p style=&quot;margin: 0px; margin-left: 8px;&quot;&gt;副本数量&lt;br&gt;&lt;/p&gt;" style="verticalAlign=middle;align=center;overflow=fill;fontSize=12;fontFamily=Helvetica;html=1;rounded=1;fontStyle=1;strokeWidth=3;fillColor=#FFFFCC;" parent="1" vertex="1">
          <mxGeometry x="1005" y="4640" width="150" height="75" as="geometry" />
        </mxCell>
        <mxCell id="iUn0GgRghp78xL2DHV3C-417" value="&lt;p style=&quot;margin: 4px 0px 0px; text-align: center;&quot;&gt;disk_used&lt;br&gt;&lt;/p&gt;&lt;hr&gt;&lt;p style=&quot;margin: 0px; margin-left: 8px;&quot;&gt;磁盘使用信息&lt;br&gt;&lt;/p&gt;" style="verticalAlign=middle;align=center;overflow=fill;fontSize=12;fontFamily=Helvetica;html=1;rounded=1;fontStyle=1;strokeWidth=3;fillColor=#FFFFCC;" parent="1" vertex="1">
          <mxGeometry x="1005" y="4900" width="150" height="75" as="geometry" />
        </mxCell>
        <mxCell id="iUn0GgRghp78xL2DHV3C-418" value="&lt;p style=&quot;margin: 4px 0px 0px; text-align: center;&quot;&gt;alarm_event&lt;br&gt;&lt;/p&gt;&lt;hr&gt;&lt;p style=&quot;margin: 0px; margin-left: 8px;&quot;&gt;今天的告警事件，包含告警和恢复&lt;br&gt;&lt;/p&gt;" style="verticalAlign=middle;align=center;overflow=fill;fontSize=12;fontFamily=Helvetica;html=1;rounded=1;fontStyle=1;strokeWidth=3;fillColor=#FFFFCC;" parent="1" vertex="1">
          <mxGeometry x="986.75" y="5020" width="200.5" height="64" as="geometry" />
        </mxCell>
        <mxCell id="iUn0GgRghp78xL2DHV3C-419" value="&lt;p style=&quot;margin: 4px 0px 0px; text-align: center;&quot;&gt;node_list&lt;br&gt;&lt;/p&gt;&lt;hr&gt;&lt;p style=&quot;margin: 0px; margin-left: 8px;&quot;&gt;节点信息&lt;br&gt;&lt;/p&gt;" style="verticalAlign=middle;align=center;overflow=fill;fontSize=12;fontFamily=Helvetica;html=1;rounded=1;fontStyle=1;strokeWidth=3;fillColor=#FFFFCC;" parent="1" vertex="1">
          <mxGeometry x="1000.25" y="5130" width="150" height="60" as="geometry" />
        </mxCell>
        <mxCell id="iUn0GgRghp78xL2DHV3C-449" style="edgeStyle=orthogonalEdgeStyle;rounded=0;orthogonalLoop=1;jettySize=auto;html=1;exitX=0;exitY=0;exitDx=150;exitDy=65;exitPerimeter=0;entryX=0;entryY=0.5;entryDx=0;entryDy=0;fontFamily=Helvetica;fontSize=12;fontColor=#000000;" parent="1" source="iUn0GgRghp78xL2DHV3C-445" target="iUn0GgRghp78xL2DHV3C-447" edge="1">
          <mxGeometry relative="1" as="geometry" />
        </mxCell>
        <mxCell id="iUn0GgRghp78xL2DHV3C-445" value="auth" style="shape=folder;fontStyle=1;tabWidth=110;tabHeight=30;tabPosition=left;html=1;boundedLbl=1;labelInHeader=1;container=1;collapsible=0;strokeColor=default;strokeWidth=3;fontFamily=Helvetica;fontSize=12;fontColor=#000000;fillColor=#E6FFCC;" parent="1" vertex="1">
          <mxGeometry x="1317" y="4424" width="150" height="100" as="geometry" />
        </mxCell>
        <mxCell id="iUn0GgRghp78xL2DHV3C-446" value="&lt;b&gt;jwt_get_current_user&lt;/b&gt;" style="html=1;strokeColor=none;resizeWidth=1;resizeHeight=1;fillColor=none;part=1;connectable=0;allowArrows=0;deletable=0;strokeWidth=3;fontFamily=Helvetica;fontSize=12;fontColor=#000000;" parent="iUn0GgRghp78xL2DHV3C-445" vertex="1">
          <mxGeometry width="150" height="70" relative="1" as="geometry">
            <mxPoint y="30" as="offset" />
          </mxGeometry>
        </mxCell>
        <mxCell id="iUn0GgRghp78xL2DHV3C-451" value="" style="edgeStyle=orthogonalEdgeStyle;rounded=0;orthogonalLoop=1;jettySize=auto;html=1;fontFamily=Helvetica;fontSize=12;fontColor=#000000;entryX=0.51;entryY=0;entryDx=0;entryDy=0;entryPerimeter=0;" parent="1" source="iUn0GgRghp78xL2DHV3C-447" target="iUn0GgRghp78xL2DHV3C-496" edge="1">
          <mxGeometry relative="1" as="geometry">
            <mxPoint x="1745.375" y="4651" as="targetPoint" />
          </mxGeometry>
        </mxCell>
        <mxCell id="iUn0GgRghp78xL2DHV3C-452" value="N" style="edgeLabel;html=1;align=center;verticalAlign=middle;resizable=0;points=[];fontSize=12;fontFamily=Helvetica;fontColor=#000000;" parent="iUn0GgRghp78xL2DHV3C-451" vertex="1" connectable="0">
          <mxGeometry x="-0.2656" y="-2" relative="1" as="geometry">
            <mxPoint as="offset" />
          </mxGeometry>
        </mxCell>
        <mxCell id="iUn0GgRghp78xL2DHV3C-466" style="edgeStyle=orthogonalEdgeStyle;rounded=0;orthogonalLoop=1;jettySize=auto;html=1;exitX=1;exitY=0.5;exitDx=0;exitDy=0;entryX=0;entryY=0.5;entryDx=0;entryDy=0;fontFamily=Helvetica;fontSize=12;fontColor=#000000;" parent="1" source="iUn0GgRghp78xL2DHV3C-447" target="iUn0GgRghp78xL2DHV3C-465" edge="1">
          <mxGeometry relative="1" as="geometry">
            <Array as="points">
              <mxPoint x="1591" y="4489" />
              <mxPoint x="1591" y="4140" />
            </Array>
          </mxGeometry>
        </mxCell>
        <mxCell id="iUn0GgRghp78xL2DHV3C-473" value="&lt;b&gt;1.3&lt;/b&gt;" style="edgeLabel;html=1;align=center;verticalAlign=middle;resizable=0;points=[];fontSize=12;fontFamily=Helvetica;fontColor=#000000;" parent="iUn0GgRghp78xL2DHV3C-466" vertex="1" connectable="0">
          <mxGeometry x="-0.081" y="2" relative="1" as="geometry">
            <mxPoint x="56" y="-149" as="offset" />
          </mxGeometry>
        </mxCell>
        <mxCell id="iUn0GgRghp78xL2DHV3C-493" style="edgeStyle=orthogonalEdgeStyle;rounded=0;orthogonalLoop=1;jettySize=auto;html=1;entryX=0;entryY=0.5;entryDx=0;entryDy=0;fontFamily=Helvetica;fontSize=12;fontColor=#000000;" parent="1" source="iUn0GgRghp78xL2DHV3C-447" target="iUn0GgRghp78xL2DHV3C-492" edge="1">
          <mxGeometry relative="1" as="geometry">
            <Array as="points">
              <mxPoint x="1591" y="4345" />
            </Array>
          </mxGeometry>
        </mxCell>
        <mxCell id="iUn0GgRghp78xL2DHV3C-494" value="&lt;b&gt;2.3&lt;/b&gt;" style="edgeLabel;html=1;align=center;verticalAlign=middle;resizable=0;points=[];fontSize=12;fontFamily=Helvetica;fontColor=#000000;" parent="iUn0GgRghp78xL2DHV3C-493" vertex="1" connectable="0">
          <mxGeometry x="0.7246" y="1" relative="1" as="geometry">
            <mxPoint x="-95" y="1" as="offset" />
          </mxGeometry>
        </mxCell>
        <mxCell id="iUn0GgRghp78xL2DHV3C-804" value="&lt;b&gt;Y&lt;/b&gt;" style="edgeLabel;html=1;align=center;verticalAlign=middle;resizable=0;points=[];fontSize=12;fontFamily=Helvetica;fontColor=#000000;" parent="iUn0GgRghp78xL2DHV3C-493" vertex="1" connectable="0">
          <mxGeometry x="-0.5335" y="-2" relative="1" as="geometry">
            <mxPoint x="-3" y="12" as="offset" />
          </mxGeometry>
        </mxCell>
        <mxCell id="iUn0GgRghp78xL2DHV3C-447" value="&lt;b&gt;是否有效用户？&lt;/b&gt;" style="shape=rhombus;html=1;dashed=0;whitespace=wrap;perimeter=rhombusPerimeter;strokeColor=default;strokeWidth=3;fontFamily=Helvetica;fontSize=12;fontColor=#000000;fillColor=#FFFFCC;" parent="1" vertex="1">
          <mxGeometry x="1506.75" y="4428" width="168" height="122" as="geometry" />
        </mxCell>
        <mxCell id="iUn0GgRghp78xL2DHV3C-468" style="edgeStyle=orthogonalEdgeStyle;rounded=0;orthogonalLoop=1;jettySize=auto;html=1;exitX=1;exitY=0.5;exitDx=0;exitDy=0;entryX=0;entryY=0.5;entryDx=0;entryDy=0;fontFamily=Helvetica;fontSize=12;fontColor=#000000;" parent="1" source="iUn0GgRghp78xL2DHV3C-465" target="iUn0GgRghp78xL2DHV3C-467" edge="1">
          <mxGeometry relative="1" as="geometry" />
        </mxCell>
        <mxCell id="iUn0GgRghp78xL2DHV3C-476" value="&lt;b&gt;1.4&lt;/b&gt;" style="edgeLabel;html=1;align=center;verticalAlign=middle;resizable=0;points=[];fontSize=12;fontFamily=Helvetica;fontColor=#000000;" parent="iUn0GgRghp78xL2DHV3C-468" vertex="1" connectable="0">
          <mxGeometry x="0.0709" y="1" relative="1" as="geometry">
            <mxPoint x="-41" y="1" as="offset" />
          </mxGeometry>
        </mxCell>
        <mxCell id="iUn0GgRghp78xL2DHV3C-469" style="edgeStyle=orthogonalEdgeStyle;rounded=0;orthogonalLoop=1;jettySize=auto;html=1;entryX=0.5;entryY=0.5;entryDx=0;entryDy=-15;entryPerimeter=0;fontFamily=Helvetica;fontSize=12;fontColor=#000000;" parent="1" source="iUn0GgRghp78xL2DHV3C-465" target="iUn0GgRghp78xL2DHV3C-381" edge="1">
          <mxGeometry relative="1" as="geometry">
            <Array as="points">
              <mxPoint x="1840" y="3900" />
              <mxPoint x="145" y="3900" />
            </Array>
          </mxGeometry>
        </mxCell>
        <mxCell id="iUn0GgRghp78xL2DHV3C-477" value="&lt;b&gt;1.5&lt;/b&gt;" style="edgeLabel;html=1;align=center;verticalAlign=middle;resizable=0;points=[];fontSize=12;fontFamily=Helvetica;fontColor=#000000;" parent="iUn0GgRghp78xL2DHV3C-469" vertex="1" connectable="0">
          <mxGeometry x="-0.4925" y="-3" relative="1" as="geometry">
            <mxPoint as="offset" />
          </mxGeometry>
        </mxCell>
        <mxCell id="iUn0GgRghp78xL2DHV3C-465" value="utils:query_sla_metric" style="whiteSpace=wrap;html=1;fillColor=#FFFFCC;fontStyle=1;strokeWidth=3;" parent="1" vertex="1">
          <mxGeometry x="1776" y="4110" width="145" height="60" as="geometry" />
        </mxCell>
        <mxCell id="iUn0GgRghp78xL2DHV3C-467" value="MySQL" style="shape=cylinder;whiteSpace=wrap;html=1;boundedLbl=1;backgroundOutline=1;strokeColor=default;strokeWidth=3;fontFamily=Helvetica;fontSize=12;fontColor=#000000;fillColor=#FFFFCC;" parent="1" vertex="1">
          <mxGeometry x="2047.5" y="4100" width="60" height="80" as="geometry" />
        </mxCell>
        <mxCell id="iUn0GgRghp78xL2DHV3C-478" value="utils:query_sla_total_metric" style="whiteSpace=wrap;html=1;fillColor=#FFFFCC;fontStyle=1;strokeWidth=3;" parent="1" vertex="1">
          <mxGeometry x="1770" y="4210" width="167.5" height="60" as="geometry" />
        </mxCell>
        <mxCell id="iUn0GgRghp78xL2DHV3C-501" style="edgeStyle=orthogonalEdgeStyle;rounded=0;orthogonalLoop=1;jettySize=auto;html=1;fontFamily=Helvetica;fontSize=12;fontColor=#000000;" parent="1" source="iUn0GgRghp78xL2DHV3C-492" edge="1">
          <mxGeometry relative="1" as="geometry">
            <mxPoint x="146.47058823529366" y="4450" as="targetPoint" />
            <Array as="points">
              <mxPoint x="2020" y="4345" />
              <mxPoint x="2020" y="3930" />
              <mxPoint x="147" y="3930" />
            </Array>
          </mxGeometry>
        </mxCell>
        <mxCell id="iUn0GgRghp78xL2DHV3C-503" value="&lt;b&gt;2.5&lt;/b&gt;" style="edgeLabel;html=1;align=center;verticalAlign=middle;resizable=0;points=[];fontSize=12;fontFamily=Helvetica;fontColor=#000000;" parent="iUn0GgRghp78xL2DHV3C-501" vertex="1" connectable="0">
          <mxGeometry x="-0.2652" relative="1" as="geometry">
            <mxPoint x="-1" as="offset" />
          </mxGeometry>
        </mxCell>
        <mxCell id="iUn0GgRghp78xL2DHV3C-752" style="edgeStyle=orthogonalEdgeStyle;rounded=0;orthogonalLoop=1;jettySize=auto;html=1;entryX=-0.006;entryY=0.551;entryDx=0;entryDy=0;entryPerimeter=0;fontFamily=Helvetica;fontSize=12;fontColor=#000000;" parent="1" source="iUn0GgRghp78xL2DHV3C-492" target="iUn0GgRghp78xL2DHV3C-497" edge="1">
          <mxGeometry x="-1" y="-100" relative="1" as="geometry">
            <Array as="points">
              <mxPoint x="1849" y="4447" />
            </Array>
            <mxPoint x="-84" y="-45" as="offset" />
          </mxGeometry>
        </mxCell>
        <mxCell id="iUn0GgRghp78xL2DHV3C-753" value="2.4" style="edgeLabel;html=1;align=center;verticalAlign=middle;resizable=0;points=[];fontSize=12;fontFamily=Helvetica;fontColor=#000000;" parent="iUn0GgRghp78xL2DHV3C-752" vertex="1" connectable="0">
          <mxGeometry x="0.0904" y="-1" relative="1" as="geometry">
            <mxPoint as="offset" />
          </mxGeometry>
        </mxCell>
        <mxCell id="iUn0GgRghp78xL2DHV3C-492" value="ehdd:cluster_vid_type" style="whiteSpace=wrap;html=1;fillColor=#FFFFCC;fontStyle=1;strokeWidth=3;" parent="1" vertex="1">
          <mxGeometry x="1764.75" y="4315" width="167.5" height="60" as="geometry" />
        </mxCell>
        <mxCell id="iUn0GgRghp78xL2DHV3C-496" value="400" style="shape=ellipse;html=1;dashed=0;whitespace=wrap;aspect=fixed;strokeWidth=5;perimeter=ellipsePerimeter;strokeColor=default;fontFamily=Helvetica;fontSize=12;fontColor=default;fillColor=#FF0000;" parent="1" vertex="1">
          <mxGeometry x="1560.75" y="4600" width="60" height="60" as="geometry" />
        </mxCell>
        <mxCell id="iUn0GgRghp78xL2DHV3C-497" value="ssh远程执行命令" style="html=1;dashed=0;whitespace=wrap;shape=mxgraph.dfd.loop;strokeColor=default;strokeWidth=3;fontFamily=Helvetica;fontSize=12;fontColor=#000000;fillColor=#FFFFCC;" parent="1" vertex="1">
          <mxGeometry x="2012.75" y="4430" width="110" height="35" as="geometry" />
        </mxCell>
        <mxCell id="iUn0GgRghp78xL2DHV3C-504" value="" style="edgeStyle=orthogonalEdgeStyle;rounded=0;orthogonalLoop=1;jettySize=auto;html=1;exitX=1;exitY=0.5;exitDx=0;exitDy=0;exitPerimeter=0;" parent="1" source="iUn0GgRghp78xL2DHV3C-519" target="iUn0GgRghp78xL2DHV3C-516" edge="1">
          <mxGeometry relative="1" as="geometry">
            <mxPoint x="74.5" y="6090" as="sourcePoint" />
          </mxGeometry>
        </mxCell>
        <mxCell id="iUn0GgRghp78xL2DHV3C-505" style="edgeStyle=orthogonalEdgeStyle;rounded=0;orthogonalLoop=1;jettySize=auto;html=1;exitX=1;exitY=0.5;exitDx=0;exitDy=0;entryX=0;entryY=0;entryDx=0;entryDy=47.5;entryPerimeter=0;" parent="1" source="iUn0GgRghp78xL2DHV3C-516" target="iUn0GgRghp78xL2DHV3C-534" edge="1">
          <mxGeometry relative="1" as="geometry">
            <mxPoint x="645.9999999999995" y="5855" as="targetPoint" />
          </mxGeometry>
        </mxCell>
        <mxCell id="iUn0GgRghp78xL2DHV3C-507" value="&#xa;&lt;b style=&quot;border-color: var(--border-color); color: rgb(0, 0, 0); font-family: Helvetica; font-size: 12px; font-style: normal; font-variant-ligatures: normal; font-variant-caps: normal; letter-spacing: normal; orphans: 2; text-align: center; text-indent: 0px; text-transform: none; widows: 2; word-spacing: 0px; -webkit-text-stroke-width: 0px; background-color: rgb(251, 251, 251); text-decoration-thickness: initial; text-decoration-style: initial; text-decoration-color: initial;&quot;&gt;/auth&lt;/b&gt;&#xa;&#xa;" style="edgeLabel;html=1;align=center;verticalAlign=middle;resizable=0;points=[];fontSize=12;fontFamily=Helvetica;fontColor=#000000;" parent="iUn0GgRghp78xL2DHV3C-505" vertex="1" connectable="0">
          <mxGeometry x="0.7379" y="1" relative="1" as="geometry">
            <mxPoint x="10" as="offset" />
          </mxGeometry>
        </mxCell>
        <mxCell id="iUn0GgRghp78xL2DHV3C-510" style="edgeStyle=orthogonalEdgeStyle;rounded=0;orthogonalLoop=1;jettySize=auto;html=1;exitX=1;exitY=0.5;exitDx=0;exitDy=0;entryX=0;entryY=0;entryDx=0;entryDy=65;entryPerimeter=0;fontFamily=Helvetica;fontSize=12;fontColor=#000000;" parent="1" source="iUn0GgRghp78xL2DHV3C-516" target="iUn0GgRghp78xL2DHV3C-538" edge="1">
          <mxGeometry relative="1" as="geometry" />
        </mxCell>
        <mxCell id="iUn0GgRghp78xL2DHV3C-511" value="&lt;b&gt;/compute&lt;/b&gt;" style="edgeLabel;html=1;align=center;verticalAlign=middle;resizable=0;points=[];fontSize=12;fontFamily=Helvetica;fontColor=#000000;" parent="iUn0GgRghp78xL2DHV3C-510" vertex="1" connectable="0">
          <mxGeometry x="0.2985" y="-1" relative="1" as="geometry">
            <mxPoint x="11" y="-1" as="offset" />
          </mxGeometry>
        </mxCell>
        <mxCell id="iUn0GgRghp78xL2DHV3C-512" style="edgeStyle=orthogonalEdgeStyle;rounded=0;orthogonalLoop=1;jettySize=auto;html=1;exitX=1;exitY=0.5;exitDx=0;exitDy=0;entryX=0;entryY=0;entryDx=0;entryDy=65;entryPerimeter=0;fontFamily=Helvetica;fontSize=12;fontColor=#000000;" parent="1" edge="1">
          <mxGeometry relative="1" as="geometry">
            <Array as="points">
              <mxPoint x="448" y="6105" />
              <mxPoint x="448" y="6225" />
              <mxPoint x="518" y="6225" />
            </Array>
            <mxPoint x="368.5" y="6105" as="sourcePoint" />
            <mxPoint x="517.9999999999995" y="6235" as="targetPoint" />
          </mxGeometry>
        </mxCell>
        <mxCell id="iUn0GgRghp78xL2DHV3C-513" value="&lt;b&gt;/sdn&lt;/b&gt;" style="edgeLabel;html=1;align=center;verticalAlign=middle;resizable=0;points=[];fontSize=12;fontFamily=Helvetica;fontColor=#000000;" parent="iUn0GgRghp78xL2DHV3C-512" vertex="1" connectable="0">
          <mxGeometry x="0.4853" y="2" relative="1" as="geometry">
            <mxPoint x="28" as="offset" />
          </mxGeometry>
        </mxCell>
        <mxCell id="iUn0GgRghp78xL2DHV3C-514" style="edgeStyle=orthogonalEdgeStyle;rounded=0;orthogonalLoop=1;jettySize=auto;html=1;entryX=0;entryY=0;entryDx=0;entryDy=65;entryPerimeter=0;fontFamily=Helvetica;fontSize=12;fontColor=#000000;" parent="1" target="iUn0GgRghp78xL2DHV3C-542" edge="1">
          <mxGeometry relative="1" as="geometry">
            <Array as="points">
              <mxPoint x="447" y="6105" />
              <mxPoint x="447" y="6355" />
              <mxPoint x="520" y="6355" />
            </Array>
            <mxPoint x="367.5" y="6105" as="sourcePoint" />
            <mxPoint x="636.9999999999995" y="6355" as="targetPoint" />
          </mxGeometry>
        </mxCell>
        <mxCell id="iUn0GgRghp78xL2DHV3C-515" value="&lt;b&gt;/console&lt;/b&gt;" style="edgeLabel;html=1;align=center;verticalAlign=middle;resizable=0;points=[];fontSize=12;fontFamily=Helvetica;fontColor=#000000;" parent="iUn0GgRghp78xL2DHV3C-514" vertex="1" connectable="0">
          <mxGeometry x="0.6917" y="-2" relative="1" as="geometry">
            <mxPoint x="18" y="-2" as="offset" />
          </mxGeometry>
        </mxCell>
        <mxCell id="iUn0GgRghp78xL2DHV3C-792" style="edgeStyle=orthogonalEdgeStyle;rounded=0;orthogonalLoop=1;jettySize=auto;html=1;exitX=1;exitY=0.5;exitDx=0;exitDy=0;entryX=0.001;entryY=0.571;entryDx=0;entryDy=0;entryPerimeter=0;fontFamily=Helvetica;fontSize=12;fontColor=#000000;" parent="1" source="iUn0GgRghp78xL2DHV3C-516" target="iUn0GgRghp78xL2DHV3C-536" edge="1">
          <mxGeometry relative="1" as="geometry" />
        </mxCell>
        <mxCell id="iUn0GgRghp78xL2DHV3C-793" value="&lt;b style=&quot;border-color: var(--border-color);&quot;&gt;/ehdd&lt;/b&gt;" style="edgeLabel;html=1;align=center;verticalAlign=middle;resizable=0;points=[];fontSize=12;fontFamily=Helvetica;fontColor=#000000;" parent="iUn0GgRghp78xL2DHV3C-792" vertex="1" connectable="0">
          <mxGeometry x="0.2208" y="-2" relative="1" as="geometry">
            <mxPoint x="33" y="-30" as="offset" />
          </mxGeometry>
        </mxCell>
        <mxCell id="iUn0GgRghp78xL2DHV3C-516" value="Uvicorn server  listening..." style="shape=process;whiteSpace=wrap;align=center;verticalAlign=middle;size=0.0475;fontStyle=1;strokeWidth=3;fillColor=#FFCCCC" parent="1" vertex="1">
          <mxGeometry x="95.5" y="6080" width="275" height="50" as="geometry" />
        </mxCell>
        <mxCell id="iUn0GgRghp78xL2DHV3C-519" value="浏览器" style="html=1;dashed=0;whitespace=wrap;shape=mxgraph.dfd.start;strokeColor=default;strokeWidth=3;fontFamily=Helvetica;fontSize=12;fontColor=default;fillColor=#FFFFCC;" parent="1" vertex="1">
          <mxGeometry x="-15" y="6089" width="80" height="30" as="geometry" />
        </mxCell>
        <mxCell id="iUn0GgRghp78xL2DHV3C-527" style="edgeStyle=orthogonalEdgeStyle;rounded=0;orthogonalLoop=1;jettySize=auto;html=1;entryX=0;entryY=0.5;entryDx=0;entryDy=0;entryPerimeter=0;fontFamily=Helvetica;fontSize=12;fontColor=#000000;" parent="1" source="iUn0GgRghp78xL2DHV3C-528" target="iUn0GgRghp78xL2DHV3C-519" edge="1">
          <mxGeometry relative="1" as="geometry" />
        </mxCell>
        <mxCell id="iUn0GgRghp78xL2DHV3C-528" value="用户" style="shape=umlActor;verticalLabelPosition=bottom;verticalAlign=top;html=1;outlineConnect=0;strokeColor=default;strokeWidth=3;fontFamily=Helvetica;fontSize=12;fontColor=default;fillColor=#FFFFCC;" parent="1" vertex="1">
          <mxGeometry x="-84" y="6073" width="30" height="60" as="geometry" />
        </mxCell>
        <mxCell id="iUn0GgRghp78xL2DHV3C-534" value="auth" style="shape=folder;fontStyle=1;tabWidth=110;tabHeight=30;tabPosition=left;html=1;boundedLbl=1;labelInHeader=1;container=1;collapsible=0;strokeColor=default;strokeWidth=3;fontFamily=Helvetica;fontSize=12;fontColor=#000000;fillColor=#E6FFCC;" parent="1" vertex="1">
          <mxGeometry x="520" y="5812" width="150" height="100" as="geometry" />
        </mxCell>
        <mxCell id="iUn0GgRghp78xL2DHV3C-535" value="&lt;span style=&quot;font-weight: 700;&quot;&gt;登录认证，鉴权&lt;/span&gt;" style="html=1;strokeColor=none;resizeWidth=1;resizeHeight=1;fillColor=none;part=1;connectable=0;allowArrows=0;deletable=0;strokeWidth=3;fontFamily=Helvetica;fontSize=12;fontColor=#000000;" parent="iUn0GgRghp78xL2DHV3C-534" vertex="1">
          <mxGeometry width="150" height="70" relative="1" as="geometry">
            <mxPoint y="30" as="offset" />
          </mxGeometry>
        </mxCell>
        <mxCell id="iUn0GgRghp78xL2DHV3C-536" value="ehdd" style="shape=folder;fontStyle=1;tabWidth=110;tabHeight=30;tabPosition=left;html=1;boundedLbl=1;labelInHeader=1;container=1;collapsible=0;strokeColor=default;strokeWidth=3;fontFamily=Helvetica;fontSize=12;fontColor=#000000;fillColor=#E6FFCC;" parent="1" vertex="1">
          <mxGeometry x="520" y="5921" width="150" height="100" as="geometry" />
        </mxCell>
        <mxCell id="iUn0GgRghp78xL2DHV3C-537" value="&lt;span style=&quot;font-weight: 700;&quot;&gt;云磁盘资源请求&lt;/span&gt;" style="html=1;strokeColor=none;resizeWidth=1;resizeHeight=1;fillColor=none;part=1;connectable=0;allowArrows=0;deletable=0;strokeWidth=3;fontFamily=Helvetica;fontSize=12;fontColor=#000000;" parent="iUn0GgRghp78xL2DHV3C-536" vertex="1">
          <mxGeometry width="150" height="70" relative="1" as="geometry">
            <mxPoint y="30" as="offset" />
          </mxGeometry>
        </mxCell>
        <mxCell id="iUn0GgRghp78xL2DHV3C-538" value="compute" style="shape=folder;fontStyle=1;tabWidth=110;tabHeight=30;tabPosition=left;html=1;boundedLbl=1;labelInHeader=1;container=1;collapsible=0;strokeColor=default;strokeWidth=3;fontFamily=Helvetica;fontSize=12;fontColor=#000000;fillColor=#E6FFCC;" parent="1" vertex="1">
          <mxGeometry x="520" y="6041" width="150" height="100" as="geometry" />
        </mxCell>
        <mxCell id="iUn0GgRghp78xL2DHV3C-539" value="&lt;b&gt;计算业务线&lt;/b&gt;" style="html=1;strokeColor=none;resizeWidth=1;resizeHeight=1;fillColor=none;part=1;connectable=0;allowArrows=0;deletable=0;strokeWidth=3;fontFamily=Helvetica;fontSize=12;fontColor=#000000;" parent="iUn0GgRghp78xL2DHV3C-538" vertex="1">
          <mxGeometry width="150" height="70" relative="1" as="geometry">
            <mxPoint y="30" as="offset" />
          </mxGeometry>
        </mxCell>
        <mxCell id="iUn0GgRghp78xL2DHV3C-550" style="edgeStyle=orthogonalEdgeStyle;rounded=0;orthogonalLoop=1;jettySize=auto;html=1;exitX=0;exitY=0;exitDx=150;exitDy=65;exitPerimeter=0;entryX=0;entryY=0.5;entryDx=0;entryDy=0;fontFamily=Helvetica;fontSize=12;fontColor=#000000;" parent="1" source="iUn0GgRghp78xL2DHV3C-540" target="iUn0GgRghp78xL2DHV3C-547" edge="1">
          <mxGeometry relative="1" as="geometry">
            <Array as="points">
              <mxPoint x="670" y="6225" />
              <mxPoint x="700" y="6225" />
              <mxPoint x="700" y="5820" />
            </Array>
          </mxGeometry>
        </mxCell>
        <mxCell id="iUn0GgRghp78xL2DHV3C-551" value="&lt;b&gt;/keystone_user&lt;/b&gt;" style="edgeLabel;html=1;align=center;verticalAlign=middle;resizable=0;points=[];fontSize=12;fontFamily=Helvetica;fontColor=#000000;" parent="iUn0GgRghp78xL2DHV3C-550" vertex="1" connectable="0">
          <mxGeometry x="0.4786" relative="1" as="geometry">
            <mxPoint x="62" as="offset" />
          </mxGeometry>
        </mxCell>
        <mxCell id="iUn0GgRghp78xL2DHV3C-598" value="&lt;b&gt;1.1&lt;/b&gt;" style="edgeLabel;html=1;align=center;verticalAlign=middle;resizable=0;points=[];fontSize=12;fontFamily=Helvetica;fontColor=#000000;" parent="iUn0GgRghp78xL2DHV3C-550" vertex="1" connectable="0">
          <mxGeometry x="0.5014" y="-1" relative="1" as="geometry">
            <mxPoint as="offset" />
          </mxGeometry>
        </mxCell>
        <mxCell id="iUn0GgRghp78xL2DHV3C-552" style="edgeStyle=orthogonalEdgeStyle;rounded=0;orthogonalLoop=1;jettySize=auto;html=1;exitX=0;exitY=0;exitDx=150;exitDy=65;exitPerimeter=0;entryX=0;entryY=0.5;entryDx=0;entryDy=0;fontFamily=Helvetica;fontSize=12;fontColor=#000000;" parent="1" source="iUn0GgRghp78xL2DHV3C-540" target="iUn0GgRghp78xL2DHV3C-548" edge="1">
          <mxGeometry x="0.071" y="120" relative="1" as="geometry">
            <Array as="points">
              <mxPoint x="670" y="6225" />
              <mxPoint x="700" y="6225" />
              <mxPoint x="700" y="5910" />
            </Array>
            <mxPoint y="1" as="offset" />
          </mxGeometry>
        </mxCell>
        <mxCell id="iUn0GgRghp78xL2DHV3C-553" value="&lt;b&gt;/xgw_cluster&lt;/b&gt;" style="edgeLabel;html=1;align=center;verticalAlign=middle;resizable=0;points=[];fontSize=12;fontFamily=Helvetica;fontColor=#000000;" parent="iUn0GgRghp78xL2DHV3C-552" vertex="1" connectable="0">
          <mxGeometry x="0.1081" relative="1" as="geometry">
            <mxPoint x="51" y="-67" as="offset" />
          </mxGeometry>
        </mxCell>
        <mxCell id="iUn0GgRghp78xL2DHV3C-554" style="edgeStyle=orthogonalEdgeStyle;rounded=0;orthogonalLoop=1;jettySize=auto;html=1;exitX=0;exitY=0;exitDx=150;exitDy=65;exitPerimeter=0;entryX=0;entryY=0.5;entryDx=0;entryDy=0;fontFamily=Helvetica;fontSize=12;fontColor=#000000;" parent="1" source="iUn0GgRghp78xL2DHV3C-540" target="iUn0GgRghp78xL2DHV3C-549" edge="1">
          <mxGeometry relative="1" as="geometry">
            <Array as="points">
              <mxPoint x="670" y="6225" />
              <mxPoint x="700" y="6225" />
              <mxPoint x="700" y="6011" />
            </Array>
          </mxGeometry>
        </mxCell>
        <mxCell id="iUn0GgRghp78xL2DHV3C-555" value="&lt;b&gt;/region_ipv6&lt;/b&gt;" style="edgeLabel;html=1;align=center;verticalAlign=middle;resizable=0;points=[];fontSize=12;fontFamily=Helvetica;fontColor=#000000;" parent="iUn0GgRghp78xL2DHV3C-554" vertex="1" connectable="0">
          <mxGeometry x="0.1224" y="1" relative="1" as="geometry">
            <mxPoint x="56" y="-21" as="offset" />
          </mxGeometry>
        </mxCell>
        <mxCell id="iUn0GgRghp78xL2DHV3C-557" style="edgeStyle=orthogonalEdgeStyle;rounded=0;orthogonalLoop=1;jettySize=auto;html=1;exitX=0;exitY=0;exitDx=150;exitDy=65;exitPerimeter=0;entryX=0;entryY=0.5;entryDx=0;entryDy=0;fontFamily=Helvetica;fontSize=12;fontColor=#000000;" parent="1" source="iUn0GgRghp78xL2DHV3C-540" target="iUn0GgRghp78xL2DHV3C-556" edge="1">
          <mxGeometry relative="1" as="geometry">
            <Array as="points">
              <mxPoint x="670" y="6225" />
              <mxPoint x="700" y="6225" />
              <mxPoint x="700" y="6110" />
            </Array>
          </mxGeometry>
        </mxCell>
        <mxCell id="iUn0GgRghp78xL2DHV3C-558" value="&lt;b&gt;/gw_agent&lt;/b&gt;" style="edgeLabel;html=1;align=center;verticalAlign=middle;resizable=0;points=[];fontSize=12;fontFamily=Helvetica;fontColor=#000000;" parent="iUn0GgRghp78xL2DHV3C-557" vertex="1" connectable="0">
          <mxGeometry x="0.4255" y="1" relative="1" as="geometry">
            <mxPoint x="-29" y="1" as="offset" />
          </mxGeometry>
        </mxCell>
        <mxCell id="iUn0GgRghp78xL2DHV3C-560" style="edgeStyle=orthogonalEdgeStyle;rounded=0;orthogonalLoop=1;jettySize=auto;html=1;exitX=0;exitY=0;exitDx=150;exitDy=65;exitPerimeter=0;entryX=0;entryY=0.5;entryDx=0;entryDy=0;fontFamily=Helvetica;fontSize=12;fontColor=#000000;" parent="1" source="iUn0GgRghp78xL2DHV3C-540" target="iUn0GgRghp78xL2DHV3C-559" edge="1">
          <mxGeometry relative="1" as="geometry">
            <Array as="points">
              <mxPoint x="670" y="6225" />
              <mxPoint x="700" y="6225" />
              <mxPoint x="700" y="6200" />
            </Array>
          </mxGeometry>
        </mxCell>
        <mxCell id="iUn0GgRghp78xL2DHV3C-561" value="&lt;b&gt;/network_info&lt;/b&gt;" style="edgeLabel;html=1;align=center;verticalAlign=middle;resizable=0;points=[];fontSize=12;fontFamily=Helvetica;fontColor=#000000;" parent="iUn0GgRghp78xL2DHV3C-560" vertex="1" connectable="0">
          <mxGeometry x="0.4709" y="2" relative="1" as="geometry">
            <mxPoint x="-39" y="2" as="offset" />
          </mxGeometry>
        </mxCell>
        <mxCell id="iUn0GgRghp78xL2DHV3C-565" style="edgeStyle=orthogonalEdgeStyle;rounded=0;orthogonalLoop=1;jettySize=auto;html=1;exitX=0;exitY=0;exitDx=150;exitDy=65;exitPerimeter=0;entryX=0;entryY=0.5;entryDx=0;entryDy=0;fontFamily=Helvetica;fontSize=12;fontColor=#000000;" parent="1" source="iUn0GgRghp78xL2DHV3C-540" target="iUn0GgRghp78xL2DHV3C-562" edge="1">
          <mxGeometry relative="1" as="geometry">
            <Array as="points">
              <mxPoint x="670" y="6225" />
              <mxPoint x="700" y="6225" />
              <mxPoint x="700" y="6300" />
            </Array>
          </mxGeometry>
        </mxCell>
        <mxCell id="iUn0GgRghp78xL2DHV3C-566" value="&lt;b&gt;/create_network&lt;/b&gt;" style="edgeLabel;html=1;align=center;verticalAlign=middle;resizable=0;points=[];fontSize=12;fontFamily=Helvetica;fontColor=#000000;" parent="iUn0GgRghp78xL2DHV3C-565" vertex="1" connectable="0">
          <mxGeometry x="0.5937" relative="1" as="geometry">
            <mxPoint x="-35" as="offset" />
          </mxGeometry>
        </mxCell>
        <mxCell id="iUn0GgRghp78xL2DHV3C-794" value="&lt;b&gt;2.1&lt;/b&gt;" style="edgeLabel;html=1;align=center;verticalAlign=middle;resizable=0;points=[];fontSize=12;fontFamily=Helvetica;fontColor=#000000;" parent="iUn0GgRghp78xL2DHV3C-565" vertex="1" connectable="0">
          <mxGeometry x="-0.073" y="-1" relative="1" as="geometry">
            <mxPoint x="-1" as="offset" />
          </mxGeometry>
        </mxCell>
        <mxCell id="iUn0GgRghp78xL2DHV3C-567" style="edgeStyle=orthogonalEdgeStyle;rounded=0;orthogonalLoop=1;jettySize=auto;html=1;exitX=0;exitY=0;exitDx=150;exitDy=65;exitPerimeter=0;entryX=0;entryY=0.5;entryDx=0;entryDy=0;fontFamily=Helvetica;fontSize=12;fontColor=#000000;" parent="1" source="iUn0GgRghp78xL2DHV3C-540" target="iUn0GgRghp78xL2DHV3C-563" edge="1">
          <mxGeometry x="-0.0468" y="-120" relative="1" as="geometry">
            <Array as="points">
              <mxPoint x="670" y="6225" />
              <mxPoint x="700" y="6225" />
              <mxPoint x="700" y="6490" />
            </Array>
            <mxPoint y="-1" as="offset" />
          </mxGeometry>
        </mxCell>
        <mxCell id="iUn0GgRghp78xL2DHV3C-568" value="&lt;b&gt;/delete_network&lt;/b&gt;" style="edgeLabel;html=1;align=center;verticalAlign=middle;resizable=0;points=[];fontSize=12;fontFamily=Helvetica;fontColor=#000000;" parent="iUn0GgRghp78xL2DHV3C-567" vertex="1" connectable="0">
          <mxGeometry x="0.6513" y="-2" relative="1" as="geometry">
            <mxPoint x="-9" y="-2" as="offset" />
          </mxGeometry>
        </mxCell>
        <mxCell id="iUn0GgRghp78xL2DHV3C-569" style="edgeStyle=orthogonalEdgeStyle;rounded=0;orthogonalLoop=1;jettySize=auto;html=1;exitX=0;exitY=0;exitDx=150;exitDy=65;exitPerimeter=0;entryX=0;entryY=0.5;entryDx=0;entryDy=0;fontFamily=Helvetica;fontSize=12;fontColor=#000000;" parent="1" source="iUn0GgRghp78xL2DHV3C-540" target="iUn0GgRghp78xL2DHV3C-564" edge="1">
          <mxGeometry relative="1" as="geometry">
            <Array as="points">
              <mxPoint x="670" y="6225" />
              <mxPoint x="700" y="6225" />
              <mxPoint x="700" y="6580" />
            </Array>
          </mxGeometry>
        </mxCell>
        <mxCell id="iUn0GgRghp78xL2DHV3C-570" value="&lt;b&gt;/create_subnet&lt;/b&gt;" style="edgeLabel;html=1;align=center;verticalAlign=middle;resizable=0;points=[];fontSize=12;fontFamily=Helvetica;fontColor=#000000;" parent="iUn0GgRghp78xL2DHV3C-569" vertex="1" connectable="0">
          <mxGeometry x="0.7115" y="1" relative="1" as="geometry">
            <mxPoint x="-18" y="1" as="offset" />
          </mxGeometry>
        </mxCell>
        <mxCell id="iUn0GgRghp78xL2DHV3C-574" style="edgeStyle=orthogonalEdgeStyle;rounded=0;orthogonalLoop=1;jettySize=auto;html=1;exitX=0;exitY=0;exitDx=150;exitDy=65;exitPerimeter=0;entryX=0;entryY=0.5;entryDx=0;entryDy=0;fontFamily=Helvetica;fontSize=12;fontColor=#000000;" parent="1" source="iUn0GgRghp78xL2DHV3C-540" target="iUn0GgRghp78xL2DHV3C-571" edge="1">
          <mxGeometry relative="1" as="geometry">
            <Array as="points">
              <mxPoint x="670" y="6225" />
              <mxPoint x="700" y="6225" />
              <mxPoint x="700" y="6670" />
            </Array>
          </mxGeometry>
        </mxCell>
        <mxCell id="iUn0GgRghp78xL2DHV3C-575" value="&lt;b&gt;/delete_subnet&lt;/b&gt;" style="edgeLabel;html=1;align=center;verticalAlign=middle;resizable=0;points=[];fontSize=12;fontFamily=Helvetica;fontColor=#000000;" parent="iUn0GgRghp78xL2DHV3C-574" vertex="1" connectable="0">
          <mxGeometry x="0.7335" y="-1" relative="1" as="geometry">
            <mxPoint x="-25" y="-11" as="offset" />
          </mxGeometry>
        </mxCell>
        <mxCell id="iUn0GgRghp78xL2DHV3C-576" style="edgeStyle=orthogonalEdgeStyle;rounded=0;orthogonalLoop=1;jettySize=auto;html=1;exitX=0;exitY=0;exitDx=150;exitDy=65;exitPerimeter=0;entryX=0;entryY=0.5;entryDx=0;entryDy=0;fontFamily=Helvetica;fontSize=12;fontColor=#000000;" parent="1" source="iUn0GgRghp78xL2DHV3C-540" target="iUn0GgRghp78xL2DHV3C-572" edge="1">
          <mxGeometry relative="1" as="geometry">
            <Array as="points">
              <mxPoint x="670" y="6225" />
              <mxPoint x="700" y="6225" />
              <mxPoint x="700" y="6760" />
            </Array>
          </mxGeometry>
        </mxCell>
        <mxCell id="iUn0GgRghp78xL2DHV3C-577" value="&lt;b&gt;/publish_eipsubnet&lt;/b&gt;" style="edgeLabel;html=1;align=center;verticalAlign=middle;resizable=0;points=[];fontSize=12;fontFamily=Helvetica;fontColor=#000000;" parent="iUn0GgRghp78xL2DHV3C-576" vertex="1" connectable="0">
          <mxGeometry x="0.7671" y="-3" relative="1" as="geometry">
            <mxPoint x="-17" y="-13" as="offset" />
          </mxGeometry>
        </mxCell>
        <mxCell id="iUn0GgRghp78xL2DHV3C-578" style="edgeStyle=orthogonalEdgeStyle;rounded=0;orthogonalLoop=1;jettySize=auto;html=1;exitX=0;exitY=0;exitDx=150;exitDy=65;exitPerimeter=0;entryX=0;entryY=0.5;entryDx=0;entryDy=0;fontFamily=Helvetica;fontSize=12;fontColor=#000000;" parent="1" source="iUn0GgRghp78xL2DHV3C-540" target="iUn0GgRghp78xL2DHV3C-573" edge="1">
          <mxGeometry relative="1" as="geometry">
            <Array as="points">
              <mxPoint x="670" y="6225" />
              <mxPoint x="700" y="6225" />
              <mxPoint x="700" y="6860" />
            </Array>
          </mxGeometry>
        </mxCell>
        <mxCell id="iUn0GgRghp78xL2DHV3C-579" value="&lt;b&gt;/rollback_eipsubnet&lt;/b&gt;" style="edgeLabel;html=1;align=center;verticalAlign=middle;resizable=0;points=[];fontSize=12;fontFamily=Helvetica;fontColor=#000000;" parent="iUn0GgRghp78xL2DHV3C-578" vertex="1" connectable="0">
          <mxGeometry x="0.795" y="-1" relative="1" as="geometry">
            <mxPoint x="-21" y="-1" as="offset" />
          </mxGeometry>
        </mxCell>
        <mxCell id="iUn0GgRghp78xL2DHV3C-586" style="edgeStyle=orthogonalEdgeStyle;rounded=0;orthogonalLoop=1;jettySize=auto;html=1;exitX=0;exitY=0;exitDx=150;exitDy=65;exitPerimeter=0;entryX=0;entryY=0.5;entryDx=0;entryDy=0;fontFamily=Helvetica;fontSize=12;fontColor=#000000;" parent="1" source="iUn0GgRghp78xL2DHV3C-540" target="iUn0GgRghp78xL2DHV3C-580" edge="1">
          <mxGeometry relative="1" as="geometry">
            <Array as="points">
              <mxPoint x="670" y="6225" />
              <mxPoint x="700" y="6225" />
              <mxPoint x="700" y="7044" />
            </Array>
          </mxGeometry>
        </mxCell>
        <mxCell id="iUn0GgRghp78xL2DHV3C-587" value="&lt;b&gt;/delete_region_ipv6&lt;/b&gt;" style="edgeLabel;html=1;align=center;verticalAlign=middle;resizable=0;points=[];fontSize=12;fontFamily=Helvetica;fontColor=#000000;" parent="iUn0GgRghp78xL2DHV3C-586" vertex="1" connectable="0">
          <mxGeometry x="0.8043" relative="1" as="geometry">
            <mxPoint x="-6" as="offset" />
          </mxGeometry>
        </mxCell>
        <mxCell id="iUn0GgRghp78xL2DHV3C-799" style="edgeStyle=orthogonalEdgeStyle;rounded=0;orthogonalLoop=1;jettySize=auto;html=1;entryX=0;entryY=0.5;entryDx=0;entryDy=0;fontFamily=Helvetica;fontSize=12;fontColor=#000000;" parent="1" source="iUn0GgRghp78xL2DHV3C-540" target="iUn0GgRghp78xL2DHV3C-581" edge="1">
          <mxGeometry relative="1" as="geometry">
            <Array as="points">
              <mxPoint x="700" y="6220" />
              <mxPoint x="700" y="6960" />
            </Array>
          </mxGeometry>
        </mxCell>
        <mxCell id="iUn0GgRghp78xL2DHV3C-800" value="&lt;b style=&quot;border-color: var(--border-color);&quot;&gt;/create_region_ipv6&lt;/b&gt;" style="edgeLabel;html=1;align=center;verticalAlign=middle;resizable=0;points=[];fontSize=12;fontFamily=Helvetica;fontColor=#000000;" parent="iUn0GgRghp78xL2DHV3C-799" vertex="1" connectable="0">
          <mxGeometry x="0.6999" relative="1" as="geometry">
            <mxPoint x="34" as="offset" />
          </mxGeometry>
        </mxCell>
        <mxCell id="iUn0GgRghp78xL2DHV3C-540" value="sdn" style="shape=folder;fontStyle=1;tabWidth=110;tabHeight=30;tabPosition=left;html=1;boundedLbl=1;labelInHeader=1;container=1;collapsible=0;strokeColor=default;strokeWidth=3;fontFamily=Helvetica;fontSize=12;fontColor=#000000;fillColor=#F0A30A;" parent="1" vertex="1">
          <mxGeometry x="520" y="6170" width="150" height="100" as="geometry" />
        </mxCell>
        <mxCell id="iUn0GgRghp78xL2DHV3C-541" value="&lt;span style=&quot;font-weight: 700;&quot;&gt;网络业务线&lt;/span&gt;" style="html=1;strokeColor=none;resizeWidth=1;resizeHeight=1;fillColor=none;part=1;connectable=0;allowArrows=0;deletable=0;strokeWidth=3;fontFamily=Helvetica;fontSize=12;fontColor=#000000;" parent="iUn0GgRghp78xL2DHV3C-540" vertex="1">
          <mxGeometry width="150" height="70" relative="1" as="geometry">
            <mxPoint y="30" as="offset" />
          </mxGeometry>
        </mxCell>
        <mxCell id="iUn0GgRghp78xL2DHV3C-542" value="console" style="shape=folder;fontStyle=1;tabWidth=110;tabHeight=30;tabPosition=left;html=1;boundedLbl=1;labelInHeader=1;container=1;collapsible=0;strokeColor=default;strokeWidth=3;fontFamily=Helvetica;fontSize=12;fontColor=#000000;fillColor=#E6FFCC;" parent="1" vertex="1">
          <mxGeometry x="520" y="6290" width="150" height="100" as="geometry" />
        </mxCell>
        <mxCell id="iUn0GgRghp78xL2DHV3C-543" value="&lt;span style=&quot;font-weight: 700;&quot;&gt;基础服务业务线&lt;/span&gt;" style="html=1;strokeColor=none;resizeWidth=1;resizeHeight=1;fillColor=none;part=1;connectable=0;allowArrows=0;deletable=0;strokeWidth=3;fontFamily=Helvetica;fontSize=12;fontColor=#000000;" parent="iUn0GgRghp78xL2DHV3C-542" vertex="1">
          <mxGeometry width="150" height="70" relative="1" as="geometry">
            <mxPoint y="30" as="offset" />
          </mxGeometry>
        </mxCell>
        <mxCell id="iUn0GgRghp78xL2DHV3C-795" style="edgeStyle=orthogonalEdgeStyle;rounded=0;orthogonalLoop=1;jettySize=auto;html=1;exitX=1;exitY=0.5;exitDx=0;exitDy=0;entryX=0;entryY=0;entryDx=55;entryDy=0;entryPerimeter=0;fontFamily=Helvetica;fontSize=12;fontColor=#000000;" parent="1" source="iUn0GgRghp78xL2DHV3C-547" target="iUn0GgRghp78xL2DHV3C-588" edge="1">
          <mxGeometry relative="1" as="geometry" />
        </mxCell>
        <mxCell id="iUn0GgRghp78xL2DHV3C-796" value="&lt;b&gt;1.2&lt;/b&gt;" style="edgeLabel;html=1;align=center;verticalAlign=middle;resizable=0;points=[];fontSize=12;fontFamily=Helvetica;fontColor=#000000;" parent="iUn0GgRghp78xL2DHV3C-795" vertex="1" connectable="0">
          <mxGeometry x="0.1007" y="1" relative="1" as="geometry">
            <mxPoint as="offset" />
          </mxGeometry>
        </mxCell>
        <mxCell id="iUn0GgRghp78xL2DHV3C-547" value="&lt;p style=&quot;margin: 4px 0px 0px; text-align: center;&quot;&gt;user_list&lt;br&gt;&lt;/p&gt;&lt;hr&gt;&lt;p style=&quot;margin: 0px; margin-left: 8px;&quot;&gt;账号信息&lt;br&gt;&lt;/p&gt;" style="verticalAlign=middle;align=center;overflow=fill;fontSize=12;fontFamily=Helvetica;html=1;rounded=1;fontStyle=1;strokeWidth=3;fillColor=#FFFFCC;" parent="1" vertex="1">
          <mxGeometry x="886" y="5790" width="150" height="60" as="geometry" />
        </mxCell>
        <mxCell id="iUn0GgRghp78xL2DHV3C-548" value="&lt;p style=&quot;margin: 4px 0px 0px; text-align: center;&quot;&gt;xgw_cluster&lt;br&gt;&lt;/p&gt;&lt;hr&gt;&lt;p style=&quot;margin: 0px; margin-left: 8px;&quot;&gt;xgw集群信息&lt;br&gt;&lt;/p&gt;" style="verticalAlign=middle;align=center;overflow=fill;fontSize=12;fontFamily=Helvetica;html=1;rounded=1;fontStyle=1;strokeWidth=3;fillColor=#FFFFCC;" parent="1" vertex="1">
          <mxGeometry x="885" y="5880" width="150" height="60" as="geometry" />
        </mxCell>
        <mxCell id="iUn0GgRghp78xL2DHV3C-549" value="&lt;p style=&quot;margin: 4px 0px 0px; text-align: center;&quot;&gt;region_ipv6&lt;br&gt;&lt;/p&gt;&lt;hr&gt;&lt;p style=&quot;margin: 0px; margin-left: 8px;&quot;&gt;集群ipv6信息&lt;br&gt;&lt;/p&gt;" style="verticalAlign=middle;align=center;overflow=fill;fontSize=12;fontFamily=Helvetica;html=1;rounded=1;fontStyle=1;strokeWidth=3;fillColor=#FFFFCC;" parent="1" vertex="1">
          <mxGeometry x="883" y="5981" width="150" height="60" as="geometry" />
        </mxCell>
        <mxCell id="iUn0GgRghp78xL2DHV3C-556" value="&lt;p style=&quot;margin: 4px 0px 0px; text-align: center;&quot;&gt;gw_agent&lt;br&gt;&lt;/p&gt;&lt;hr&gt;&lt;p style=&quot;margin: 0px; margin-left: 8px;&quot;&gt;neutron-agent信息&lt;br&gt;&lt;/p&gt;" style="verticalAlign=middle;align=center;overflow=fill;fontSize=12;fontFamily=Helvetica;html=1;rounded=1;fontStyle=1;strokeWidth=3;fillColor=#FFFFCC;" parent="1" vertex="1">
          <mxGeometry x="884" y="6080" width="150" height="60" as="geometry" />
        </mxCell>
        <mxCell id="iUn0GgRghp78xL2DHV3C-559" value="&lt;p style=&quot;margin: 4px 0px 0px; text-align: center;&quot;&gt;network_info&lt;br&gt;&lt;/p&gt;&lt;hr&gt;&lt;p style=&quot;margin: 0px; margin-left: 8px;&quot;&gt;获取链路类型&lt;br&gt;&lt;/p&gt;" style="verticalAlign=middle;align=center;overflow=fill;fontSize=12;fontFamily=Helvetica;html=1;rounded=1;fontStyle=1;strokeWidth=3;fillColor=#FFFFCC;" parent="1" vertex="1">
          <mxGeometry x="883" y="6170" width="150" height="60" as="geometry" />
        </mxCell>
        <mxCell id="iUn0GgRghp78xL2DHV3C-611" style="edgeStyle=orthogonalEdgeStyle;rounded=0;orthogonalLoop=1;jettySize=auto;html=1;entryX=0;entryY=0;entryDx=0;entryDy=65;entryPerimeter=0;fontFamily=Helvetica;fontSize=12;fontColor=#000000;" parent="1" source="iUn0GgRghp78xL2DHV3C-562" target="iUn0GgRghp78xL2DHV3C-588" edge="1">
          <mxGeometry relative="1" as="geometry" />
        </mxCell>
        <mxCell id="iUn0GgRghp78xL2DHV3C-612" value="&lt;b&gt;2.2&lt;/b&gt;" style="edgeLabel;html=1;align=center;verticalAlign=middle;resizable=0;points=[];fontSize=12;fontFamily=Helvetica;fontColor=#000000;" parent="iUn0GgRghp78xL2DHV3C-611" vertex="1" connectable="0">
          <mxGeometry x="-0.3723" relative="1" as="geometry">
            <mxPoint x="8" as="offset" />
          </mxGeometry>
        </mxCell>
        <mxCell id="iUn0GgRghp78xL2DHV3C-797" style="edgeStyle=orthogonalEdgeStyle;rounded=0;orthogonalLoop=1;jettySize=auto;html=1;exitX=0.5;exitY=1;exitDx=0;exitDy=0;entryX=0.5;entryY=0.5;entryDx=0;entryDy=15.000000000000002;entryPerimeter=0;fontFamily=Helvetica;fontSize=12;fontColor=#000000;" parent="1" source="iUn0GgRghp78xL2DHV3C-562" target="iUn0GgRghp78xL2DHV3C-519" edge="1">
          <mxGeometry x="0.0407" y="60" relative="1" as="geometry">
            <Array as="points">
              <mxPoint x="954" y="6420" />
              <mxPoint x="25" y="6420" />
            </Array>
            <mxPoint as="offset" />
          </mxGeometry>
        </mxCell>
        <mxCell id="iUn0GgRghp78xL2DHV3C-798" value="&lt;b&gt;2.4 返回创建成功/失败信息&lt;/b&gt;" style="edgeLabel;html=1;align=center;verticalAlign=middle;resizable=0;points=[];fontSize=12;fontFamily=Helvetica;fontColor=#000000;" parent="iUn0GgRghp78xL2DHV3C-797" vertex="1" connectable="0">
          <mxGeometry x="0.0576" relative="1" as="geometry">
            <mxPoint as="offset" />
          </mxGeometry>
        </mxCell>
        <mxCell id="iUn0GgRghp78xL2DHV3C-562" value="&lt;p style=&quot;margin: 4px 0px 0px; text-align: center;&quot;&gt;create_network&lt;br&gt;&lt;/p&gt;&lt;hr&gt;&lt;p style=&quot;margin: 0px; margin-left: 8px;&quot;&gt;创建xgw链路&lt;br&gt;&lt;/p&gt;" style="verticalAlign=middle;align=center;overflow=fill;fontSize=12;fontFamily=Helvetica;html=1;rounded=1;fontStyle=1;strokeWidth=3;fillColor=#FFFFCC;" parent="1" vertex="1">
          <mxGeometry x="879" y="6270" width="150" height="60" as="geometry" />
        </mxCell>
        <mxCell id="iUn0GgRghp78xL2DHV3C-563" value="&lt;p style=&quot;margin: 4px 0px 0px; text-align: center;&quot;&gt;delete_network&lt;br&gt;&lt;/p&gt;&lt;hr&gt;&lt;p style=&quot;margin: 0px; margin-left: 8px;&quot;&gt;删除xgw链路&lt;br&gt;&lt;/p&gt;" style="verticalAlign=middle;align=center;overflow=fill;fontSize=12;fontFamily=Helvetica;html=1;rounded=1;fontStyle=1;strokeWidth=3;fillColor=#FFFFCC;" parent="1" vertex="1">
          <mxGeometry x="882" y="6460" width="150" height="60" as="geometry" />
        </mxCell>
        <mxCell id="iUn0GgRghp78xL2DHV3C-564" value="&lt;p style=&quot;margin: 4px 0px 0px; text-align: center;&quot;&gt;create_subnet&lt;br&gt;&lt;/p&gt;&lt;hr&gt;&lt;p style=&quot;margin: 0px; margin-left: 8px;&quot;&gt;创建子网&lt;br&gt;&lt;/p&gt;" style="verticalAlign=middle;align=center;overflow=fill;fontSize=12;fontFamily=Helvetica;html=1;rounded=1;fontStyle=1;strokeWidth=3;fillColor=#FFFFCC;" parent="1" vertex="1">
          <mxGeometry x="879" y="6550" width="150" height="60" as="geometry" />
        </mxCell>
        <mxCell id="iUn0GgRghp78xL2DHV3C-571" value="&lt;p style=&quot;margin: 4px 0px 0px; text-align: center;&quot;&gt;delete_subnet&lt;br&gt;&lt;/p&gt;&lt;hr&gt;&lt;p style=&quot;margin: 0px; margin-left: 8px;&quot;&gt;删除子网&lt;br&gt;&lt;/p&gt;" style="verticalAlign=middle;align=center;overflow=fill;fontSize=12;fontFamily=Helvetica;html=1;rounded=1;fontStyle=1;strokeWidth=3;fillColor=#FFFFCC;" parent="1" vertex="1">
          <mxGeometry x="882" y="6640" width="150" height="60" as="geometry" />
        </mxCell>
        <mxCell id="iUn0GgRghp78xL2DHV3C-572" value="&lt;p style=&quot;margin: 4px 0px 0px; text-align: center;&quot;&gt;publish_eipsubnet&lt;br&gt;&lt;/p&gt;&lt;hr&gt;&lt;p style=&quot;margin: 0px; margin-left: 8px;&quot;&gt;发布EIP地址段&lt;br&gt;&lt;/p&gt;" style="verticalAlign=middle;align=center;overflow=fill;fontSize=12;fontFamily=Helvetica;html=1;rounded=1;fontStyle=1;strokeWidth=3;fillColor=#FFFFCC;" parent="1" vertex="1">
          <mxGeometry x="879" y="6730" width="150" height="60" as="geometry" />
        </mxCell>
        <mxCell id="iUn0GgRghp78xL2DHV3C-573" value="&lt;p style=&quot;margin: 4px 0px 0px; text-align: center;&quot;&gt;rollback_eipsubnet&lt;br&gt;&lt;/p&gt;&lt;hr&gt;&lt;p style=&quot;margin: 0px; margin-left: 8px;&quot;&gt;删除(回滚)EIP地址段&lt;br&gt;&lt;/p&gt;" style="verticalAlign=middle;align=center;overflow=fill;fontSize=12;fontFamily=Helvetica;html=1;rounded=1;fontStyle=1;strokeWidth=3;fillColor=#FFFFCC;" parent="1" vertex="1">
          <mxGeometry x="879" y="6830" width="150" height="60" as="geometry" />
        </mxCell>
        <mxCell id="iUn0GgRghp78xL2DHV3C-580" value="&lt;p style=&quot;margin: 4px 0px 0px; text-align: center;&quot;&gt;delete_region_ipv6&lt;br&gt;&lt;/p&gt;&lt;hr&gt;&lt;p style=&quot;margin: 0px; margin-left: 8px;&quot;&gt;删除Ipv6信息&lt;br&gt;&lt;/p&gt;" style="verticalAlign=middle;align=center;overflow=fill;fontSize=12;fontFamily=Helvetica;html=1;rounded=1;fontStyle=1;strokeWidth=3;fillColor=#FFFFCC;" parent="1" vertex="1">
          <mxGeometry x="878" y="7014" width="150" height="60" as="geometry" />
        </mxCell>
        <mxCell id="iUn0GgRghp78xL2DHV3C-581" value="&lt;p style=&quot;margin: 4px 0px 0px; text-align: center;&quot;&gt;create_region_ipv6&lt;br&gt;&lt;/p&gt;&lt;hr&gt;&lt;p style=&quot;margin: 0px; margin-left: 8px;&quot;&gt;创建Ipv6信息&lt;br&gt;&lt;/p&gt;" style="verticalAlign=middle;align=center;overflow=fill;fontSize=12;fontFamily=Helvetica;html=1;rounded=1;fontStyle=1;strokeWidth=3;fillColor=#FFFFCC;" parent="1" vertex="1">
          <mxGeometry x="879" y="6930" width="150" height="60" as="geometry" />
        </mxCell>
        <mxCell id="iUn0GgRghp78xL2DHV3C-595" style="edgeStyle=orthogonalEdgeStyle;rounded=0;orthogonalLoop=1;jettySize=auto;html=1;entryX=0;entryY=0.5;entryDx=0;entryDy=0;fontFamily=Helvetica;fontSize=12;fontColor=#000000;" parent="1" source="iUn0GgRghp78xL2DHV3C-588" target="iUn0GgRghp78xL2DHV3C-590" edge="1">
          <mxGeometry relative="1" as="geometry" />
        </mxCell>
        <mxCell id="iUn0GgRghp78xL2DHV3C-588" value="auth" style="shape=folder;fontStyle=1;tabWidth=110;tabHeight=30;tabPosition=left;html=1;boundedLbl=1;labelInHeader=1;container=1;collapsible=0;strokeColor=default;strokeWidth=3;fontFamily=Helvetica;fontSize=12;fontColor=#000000;fillColor=#E6FFCC;" parent="1" vertex="1">
          <mxGeometry x="1180.5" y="6235" width="150" height="100" as="geometry" />
        </mxCell>
        <mxCell id="iUn0GgRghp78xL2DHV3C-589" value="&lt;b&gt;jwt_get_current_user&lt;/b&gt;" style="html=1;strokeColor=none;resizeWidth=1;resizeHeight=1;fillColor=none;part=1;connectable=0;allowArrows=0;deletable=0;strokeWidth=3;fontFamily=Helvetica;fontSize=12;fontColor=#000000;" parent="iUn0GgRghp78xL2DHV3C-588" vertex="1">
          <mxGeometry width="150" height="70" relative="1" as="geometry">
            <mxPoint y="30" as="offset" />
          </mxGeometry>
        </mxCell>
        <mxCell id="iUn0GgRghp78xL2DHV3C-596" style="edgeStyle=orthogonalEdgeStyle;rounded=0;orthogonalLoop=1;jettySize=auto;html=1;exitX=0.5;exitY=1;exitDx=0;exitDy=0;entryX=0.5;entryY=0;entryDx=0;entryDy=0;fontFamily=Helvetica;fontSize=12;fontColor=#000000;" parent="1" source="iUn0GgRghp78xL2DHV3C-590" target="iUn0GgRghp78xL2DHV3C-591" edge="1">
          <mxGeometry relative="1" as="geometry">
            <Array as="points">
              <mxPoint x="1440" y="6390" />
              <mxPoint x="1440" y="6390" />
            </Array>
          </mxGeometry>
        </mxCell>
        <mxCell id="iUn0GgRghp78xL2DHV3C-803" value="N" style="edgeLabel;html=1;align=center;verticalAlign=middle;resizable=0;points=[];fontSize=12;fontFamily=Helvetica;fontColor=#000000;" parent="iUn0GgRghp78xL2DHV3C-596" vertex="1" connectable="0">
          <mxGeometry x="-0.2249" relative="1" as="geometry">
            <mxPoint as="offset" />
          </mxGeometry>
        </mxCell>
        <mxCell id="iUn0GgRghp78xL2DHV3C-602" style="edgeStyle=orthogonalEdgeStyle;rounded=0;orthogonalLoop=1;jettySize=auto;html=1;exitX=1;exitY=0.5;exitDx=0;exitDy=0;entryX=0;entryY=0.5;entryDx=0;entryDy=0;fontFamily=Helvetica;fontSize=12;fontColor=#000000;" parent="1" source="iUn0GgRghp78xL2DHV3C-590" target="iUn0GgRghp78xL2DHV3C-601" edge="1">
          <mxGeometry relative="1" as="geometry">
            <Array as="points">
              <mxPoint x="1440" y="6285" />
              <mxPoint x="1440" y="5842" />
            </Array>
          </mxGeometry>
        </mxCell>
        <mxCell id="iUn0GgRghp78xL2DHV3C-603" value="&lt;b&gt;1.3&lt;/b&gt;" style="edgeLabel;html=1;align=center;verticalAlign=middle;resizable=0;points=[];fontSize=12;fontFamily=Helvetica;fontColor=#000000;" parent="iUn0GgRghp78xL2DHV3C-602" vertex="1" connectable="0">
          <mxGeometry x="0.7264" y="1" relative="1" as="geometry">
            <mxPoint x="-51" y="159" as="offset" />
          </mxGeometry>
        </mxCell>
        <mxCell id="iUn0GgRghp78xL2DHV3C-614" style="edgeStyle=orthogonalEdgeStyle;rounded=0;orthogonalLoop=1;jettySize=auto;html=1;entryX=0;entryY=0.5;entryDx=0;entryDy=0;fontFamily=Helvetica;fontSize=12;fontColor=#000000;exitX=0.5;exitY=0;exitDx=0;exitDy=0;" parent="1" source="iUn0GgRghp78xL2DHV3C-590" target="iUn0GgRghp78xL2DHV3C-613" edge="1">
          <mxGeometry relative="1" as="geometry">
            <Array as="points">
              <mxPoint x="1440" y="6149" />
            </Array>
          </mxGeometry>
        </mxCell>
        <mxCell id="iUn0GgRghp78xL2DHV3C-615" value="&lt;b&gt;2.3&lt;/b&gt;" style="edgeLabel;html=1;align=center;verticalAlign=middle;resizable=0;points=[];fontSize=12;fontFamily=Helvetica;fontColor=#000000;" parent="iUn0GgRghp78xL2DHV3C-614" vertex="1" connectable="0">
          <mxGeometry x="-0.0622" y="-3" relative="1" as="geometry">
            <mxPoint x="63" y="-3" as="offset" />
          </mxGeometry>
        </mxCell>
        <mxCell id="iUn0GgRghp78xL2DHV3C-801" value="&lt;b&gt;Y&lt;/b&gt;" style="edgeLabel;html=1;align=center;verticalAlign=middle;resizable=0;points=[];fontSize=12;fontFamily=Helvetica;fontColor=#000000;" parent="iUn0GgRghp78xL2DHV3C-614" vertex="1" connectable="0">
          <mxGeometry x="-0.9147" y="1" relative="1" as="geometry">
            <mxPoint x="1" y="-14" as="offset" />
          </mxGeometry>
        </mxCell>
        <mxCell id="iUn0GgRghp78xL2DHV3C-590" value="&lt;b&gt;是否有效用户？&lt;/b&gt;" style="shape=rhombus;html=1;dashed=0;whitespace=wrap;perimeter=rhombusPerimeter;strokeColor=default;strokeWidth=3;fontFamily=Helvetica;fontSize=12;fontColor=#000000;fillColor=#FFFFCC;" parent="1" vertex="1">
          <mxGeometry x="1370" y="6225" width="140" height="120" as="geometry" />
        </mxCell>
        <mxCell id="iUn0GgRghp78xL2DHV3C-591" value="400" style="shape=ellipse;html=1;dashed=0;whitespace=wrap;aspect=fixed;strokeWidth=5;perimeter=ellipsePerimeter;strokeColor=default;fontFamily=Helvetica;fontSize=12;fontColor=default;fillColor=#FF0000;" parent="1" vertex="1">
          <mxGeometry x="1410" y="6410" width="60" height="60" as="geometry" />
        </mxCell>
        <mxCell id="iUn0GgRghp78xL2DHV3C-605" style="edgeStyle=orthogonalEdgeStyle;rounded=0;orthogonalLoop=1;jettySize=auto;html=1;entryX=0;entryY=0.5;entryDx=0;entryDy=0;fontFamily=Helvetica;fontSize=12;fontColor=#000000;" parent="1" source="iUn0GgRghp78xL2DHV3C-601" target="iUn0GgRghp78xL2DHV3C-604" edge="1">
          <mxGeometry relative="1" as="geometry" />
        </mxCell>
        <mxCell id="iUn0GgRghp78xL2DHV3C-606" value="&lt;b&gt;1.4&lt;/b&gt;" style="edgeLabel;html=1;align=center;verticalAlign=middle;resizable=0;points=[];fontSize=12;fontFamily=Helvetica;fontColor=#000000;" parent="iUn0GgRghp78xL2DHV3C-605" vertex="1" connectable="0">
          <mxGeometry x="0.162" y="-1" relative="1" as="geometry">
            <mxPoint x="-1" as="offset" />
          </mxGeometry>
        </mxCell>
        <mxCell id="iUn0GgRghp78xL2DHV3C-608" style="edgeStyle=orthogonalEdgeStyle;rounded=0;orthogonalLoop=1;jettySize=auto;html=1;fontFamily=Helvetica;fontSize=12;fontColor=#000000;entryX=0.5;entryY=0.5;entryDx=0;entryDy=-15;entryPerimeter=0;exitX=0.5;exitY=0;exitDx=0;exitDy=0;" parent="1" source="iUn0GgRghp78xL2DHV3C-547" target="iUn0GgRghp78xL2DHV3C-519" edge="1">
          <mxGeometry relative="1" as="geometry">
            <mxPoint x="47.64705882352896" y="6080" as="targetPoint" />
            <Array as="points">
              <mxPoint x="961" y="5720" />
              <mxPoint x="25" y="5720" />
            </Array>
          </mxGeometry>
        </mxCell>
        <mxCell id="iUn0GgRghp78xL2DHV3C-609" value="&lt;b&gt;1.5&lt;/b&gt;" style="edgeLabel;html=1;align=center;verticalAlign=middle;resizable=0;points=[];fontSize=12;fontFamily=Helvetica;fontColor=#000000;" parent="iUn0GgRghp78xL2DHV3C-608" vertex="1" connectable="0">
          <mxGeometry x="-0.3535" y="-3" relative="1" as="geometry">
            <mxPoint x="-164" as="offset" />
          </mxGeometry>
        </mxCell>
        <mxCell id="iUn0GgRghp78xL2DHV3C-601" value="get_target_tenant" style="whiteSpace=wrap;html=1;fillColor=#FFFFCC;fontStyle=1;strokeWidth=3;" parent="1" vertex="1">
          <mxGeometry x="1580" y="5812" width="167.5" height="60" as="geometry" />
        </mxCell>
        <mxCell id="iUn0GgRghp78xL2DHV3C-604" value="get请求&lt;br&gt;keystone_url" style="whiteSpace=wrap;html=1;fillColor=#FFFFCC;fontStyle=1;strokeWidth=3;" parent="1" vertex="1">
          <mxGeometry x="1858" y="5812" width="120" height="60" as="geometry" />
        </mxCell>
        <mxCell id="iUn0GgRghp78xL2DHV3C-613" value="post请求&lt;br&gt;op_operate_url" style="whiteSpace=wrap;html=1;fillColor=#FFFFCC;fontStyle=1;strokeWidth=3;" parent="1" vertex="1">
          <mxGeometry x="1860" y="6119" width="120" height="60" as="geometry" />
        </mxCell>
        <mxCell id="iUn0GgRghp78xL2DHV3C-618" value="" style="edgeStyle=orthogonalEdgeStyle;rounded=0;orthogonalLoop=1;jettySize=auto;html=1;exitX=1;exitY=0.5;exitDx=0;exitDy=0;exitPerimeter=0;" parent="1" source="iUn0GgRghp78xL2DHV3C-633" target="iUn0GgRghp78xL2DHV3C-630" edge="1">
          <mxGeometry relative="1" as="geometry">
            <mxPoint x="38.5" y="7660" as="sourcePoint" />
          </mxGeometry>
        </mxCell>
        <mxCell id="iUn0GgRghp78xL2DHV3C-619" style="edgeStyle=orthogonalEdgeStyle;rounded=0;orthogonalLoop=1;jettySize=auto;html=1;exitX=1;exitY=0.5;exitDx=0;exitDy=0;entryX=0;entryY=0;entryDx=0;entryDy=47.5;entryPerimeter=0;" parent="1" source="iUn0GgRghp78xL2DHV3C-630" target="iUn0GgRghp78xL2DHV3C-648" edge="1">
          <mxGeometry relative="1" as="geometry">
            <mxPoint x="609.9999999999995" y="7425" as="targetPoint" />
          </mxGeometry>
        </mxCell>
        <mxCell id="iUn0GgRghp78xL2DHV3C-621" value="&#xa;&lt;b style=&quot;border-color: var(--border-color); color: rgb(0, 0, 0); font-family: Helvetica; font-size: 12px; font-style: normal; font-variant-ligatures: normal; font-variant-caps: normal; letter-spacing: normal; orphans: 2; text-align: center; text-indent: 0px; text-transform: none; widows: 2; word-spacing: 0px; -webkit-text-stroke-width: 0px; background-color: rgb(251, 251, 251); text-decoration-thickness: initial; text-decoration-style: initial; text-decoration-color: initial;&quot;&gt;/auth&lt;/b&gt;&#xa;&#xa;" style="edgeLabel;html=1;align=center;verticalAlign=middle;resizable=0;points=[];fontSize=12;fontFamily=Helvetica;fontColor=#000000;" parent="iUn0GgRghp78xL2DHV3C-619" vertex="1" connectable="0">
          <mxGeometry x="0.7379" y="1" relative="1" as="geometry">
            <mxPoint x="10" as="offset" />
          </mxGeometry>
        </mxCell>
        <mxCell id="iUn0GgRghp78xL2DHV3C-622" style="edgeStyle=orthogonalEdgeStyle;rounded=0;orthogonalLoop=1;jettySize=auto;html=1;exitX=1;exitY=0.5;exitDx=0;exitDy=0;entryX=0;entryY=0;entryDx=0;entryDy=47.5;entryPerimeter=0;fontFamily=Helvetica;fontSize=12;fontColor=#000000;" parent="1" source="iUn0GgRghp78xL2DHV3C-630" target="iUn0GgRghp78xL2DHV3C-650" edge="1">
          <mxGeometry relative="1" as="geometry">
            <Array as="points">
              <mxPoint x="520" y="7675" />
              <mxPoint x="520" y="7542" />
            </Array>
          </mxGeometry>
        </mxCell>
        <mxCell id="iUn0GgRghp78xL2DHV3C-623" value="&lt;b&gt;/ehdd&lt;/b&gt;" style="edgeLabel;html=1;align=center;verticalAlign=middle;resizable=0;points=[];fontSize=12;fontFamily=Helvetica;fontColor=#000000;" parent="iUn0GgRghp78xL2DHV3C-622" vertex="1" connectable="0">
          <mxGeometry x="0.6554" y="-1" relative="1" as="geometry">
            <mxPoint as="offset" />
          </mxGeometry>
        </mxCell>
        <mxCell id="iUn0GgRghp78xL2DHV3C-624" style="edgeStyle=orthogonalEdgeStyle;rounded=0;orthogonalLoop=1;jettySize=auto;html=1;exitX=1;exitY=0.5;exitDx=0;exitDy=0;entryX=0;entryY=0;entryDx=0;entryDy=65;entryPerimeter=0;fontFamily=Helvetica;fontSize=12;fontColor=#000000;" parent="1" source="iUn0GgRghp78xL2DHV3C-630" target="iUn0GgRghp78xL2DHV3C-652" edge="1">
          <mxGeometry relative="1" as="geometry" />
        </mxCell>
        <mxCell id="iUn0GgRghp78xL2DHV3C-625" value="&lt;b&gt;/compute&lt;/b&gt;" style="edgeLabel;html=1;align=center;verticalAlign=middle;resizable=0;points=[];fontSize=12;fontFamily=Helvetica;fontColor=#000000;" parent="iUn0GgRghp78xL2DHV3C-624" vertex="1" connectable="0">
          <mxGeometry x="0.2985" y="-1" relative="1" as="geometry">
            <mxPoint x="11" y="-1" as="offset" />
          </mxGeometry>
        </mxCell>
        <mxCell id="iUn0GgRghp78xL2DHV3C-626" style="edgeStyle=orthogonalEdgeStyle;rounded=0;orthogonalLoop=1;jettySize=auto;html=1;exitX=1;exitY=0.5;exitDx=0;exitDy=0;entryX=0;entryY=0;entryDx=0;entryDy=65;entryPerimeter=0;fontFamily=Helvetica;fontSize=12;fontColor=#000000;" parent="1" source="iUn0GgRghp78xL2DHV3C-630" target="iUn0GgRghp78xL2DHV3C-654" edge="1">
          <mxGeometry relative="1" as="geometry">
            <Array as="points">
              <mxPoint x="521" y="7675" />
              <mxPoint x="521" y="7795" />
            </Array>
          </mxGeometry>
        </mxCell>
        <mxCell id="iUn0GgRghp78xL2DHV3C-627" value="&lt;b&gt;/sdn&lt;/b&gt;" style="edgeLabel;html=1;align=center;verticalAlign=middle;resizable=0;points=[];fontSize=12;fontFamily=Helvetica;fontColor=#000000;" parent="iUn0GgRghp78xL2DHV3C-626" vertex="1" connectable="0">
          <mxGeometry x="0.4853" y="2" relative="1" as="geometry">
            <mxPoint x="28" as="offset" />
          </mxGeometry>
        </mxCell>
        <mxCell id="iUn0GgRghp78xL2DHV3C-628" style="edgeStyle=orthogonalEdgeStyle;rounded=0;orthogonalLoop=1;jettySize=auto;html=1;entryX=0;entryY=0;entryDx=0;entryDy=65;entryPerimeter=0;fontFamily=Helvetica;fontSize=12;fontColor=#000000;" parent="1" source="iUn0GgRghp78xL2DHV3C-630" target="iUn0GgRghp78xL2DHV3C-656" edge="1">
          <mxGeometry relative="1" as="geometry">
            <Array as="points">
              <mxPoint x="521" y="7675" />
              <mxPoint x="521" y="7925" />
            </Array>
          </mxGeometry>
        </mxCell>
        <mxCell id="iUn0GgRghp78xL2DHV3C-629" value="&lt;b&gt;/console&lt;/b&gt;" style="edgeLabel;html=1;align=center;verticalAlign=middle;resizable=0;points=[];fontSize=12;fontFamily=Helvetica;fontColor=#000000;" parent="iUn0GgRghp78xL2DHV3C-628" vertex="1" connectable="0">
          <mxGeometry x="0.6917" y="-2" relative="1" as="geometry">
            <mxPoint x="18" y="-2" as="offset" />
          </mxGeometry>
        </mxCell>
        <mxCell id="iUn0GgRghp78xL2DHV3C-630" value="Uvicorn server  listening..." style="shape=process;whiteSpace=wrap;align=center;verticalAlign=middle;size=0.0475;fontStyle=1;strokeWidth=3;fillColor=#FFCCCC" parent="1" vertex="1">
          <mxGeometry x="195" y="7650" width="246.5" height="50" as="geometry" />
        </mxCell>
        <mxCell id="iUn0GgRghp78xL2DHV3C-633" value="浏览器" style="html=1;dashed=0;whitespace=wrap;shape=mxgraph.dfd.start;strokeColor=default;strokeWidth=3;fontFamily=Helvetica;fontSize=12;fontColor=default;fillColor=#FFFFCC;" parent="1" vertex="1">
          <mxGeometry x="80" y="7659" width="80" height="30" as="geometry" />
        </mxCell>
        <mxCell id="iUn0GgRghp78xL2DHV3C-641" style="edgeStyle=orthogonalEdgeStyle;rounded=0;orthogonalLoop=1;jettySize=auto;html=1;entryX=0;entryY=0.5;entryDx=0;entryDy=0;entryPerimeter=0;fontFamily=Helvetica;fontSize=12;fontColor=#000000;" parent="1" source="iUn0GgRghp78xL2DHV3C-642" target="iUn0GgRghp78xL2DHV3C-633" edge="1">
          <mxGeometry relative="1" as="geometry" />
        </mxCell>
        <mxCell id="iUn0GgRghp78xL2DHV3C-642" value="用户" style="shape=umlActor;verticalLabelPosition=bottom;verticalAlign=top;html=1;outlineConnect=0;strokeColor=default;strokeWidth=3;fontFamily=Helvetica;fontSize=12;fontColor=default;fillColor=#FFFFCC;" parent="1" vertex="1">
          <mxGeometry x="10" y="7644" width="30" height="60" as="geometry" />
        </mxCell>
        <mxCell id="iUn0GgRghp78xL2DHV3C-648" value="auth" style="shape=folder;fontStyle=1;tabWidth=110;tabHeight=30;tabPosition=left;html=1;boundedLbl=1;labelInHeader=1;container=1;collapsible=0;strokeColor=default;strokeWidth=3;fontFamily=Helvetica;fontSize=12;fontColor=#000000;fillColor=#E6FFCC;" parent="1" vertex="1">
          <mxGeometry x="601" y="7380" width="150" height="100" as="geometry" />
        </mxCell>
        <mxCell id="iUn0GgRghp78xL2DHV3C-649" value="&lt;span style=&quot;font-weight: 700;&quot;&gt;登录认证，鉴权&lt;/span&gt;" style="html=1;strokeColor=none;resizeWidth=1;resizeHeight=1;fillColor=none;part=1;connectable=0;allowArrows=0;deletable=0;strokeWidth=3;fontFamily=Helvetica;fontSize=12;fontColor=#000000;" parent="iUn0GgRghp78xL2DHV3C-648" vertex="1">
          <mxGeometry width="150" height="70" relative="1" as="geometry">
            <mxPoint y="30" as="offset" />
          </mxGeometry>
        </mxCell>
        <mxCell id="iUn0GgRghp78xL2DHV3C-650" value="ehdd" style="shape=folder;fontStyle=1;tabWidth=110;tabHeight=30;tabPosition=left;html=1;boundedLbl=1;labelInHeader=1;container=1;collapsible=0;strokeColor=default;strokeWidth=3;fontFamily=Helvetica;fontSize=12;fontColor=#000000;fillColor=#E6FFCC;" parent="1" vertex="1">
          <mxGeometry x="603" y="7495" width="150" height="100" as="geometry" />
        </mxCell>
        <mxCell id="iUn0GgRghp78xL2DHV3C-651" value="&lt;span style=&quot;font-weight: 700;&quot;&gt;云磁盘资源请求&lt;/span&gt;" style="html=1;strokeColor=none;resizeWidth=1;resizeHeight=1;fillColor=none;part=1;connectable=0;allowArrows=0;deletable=0;strokeWidth=3;fontFamily=Helvetica;fontSize=12;fontColor=#000000;" parent="iUn0GgRghp78xL2DHV3C-650" vertex="1">
          <mxGeometry width="150" height="70" relative="1" as="geometry">
            <mxPoint y="30" as="offset" />
          </mxGeometry>
        </mxCell>
        <mxCell id="iUn0GgRghp78xL2DHV3C-652" value="compute" style="shape=folder;fontStyle=1;tabWidth=110;tabHeight=30;tabPosition=left;html=1;boundedLbl=1;labelInHeader=1;container=1;collapsible=0;strokeColor=default;strokeWidth=3;fontFamily=Helvetica;fontSize=12;fontColor=#000000;fillColor=#E6FFCC;" parent="1" vertex="1">
          <mxGeometry x="605" y="7610" width="150" height="100" as="geometry" />
        </mxCell>
        <mxCell id="iUn0GgRghp78xL2DHV3C-653" value="&lt;b&gt;计算业务线&lt;/b&gt;" style="html=1;strokeColor=none;resizeWidth=1;resizeHeight=1;fillColor=none;part=1;connectable=0;allowArrows=0;deletable=0;strokeWidth=3;fontFamily=Helvetica;fontSize=12;fontColor=#000000;" parent="iUn0GgRghp78xL2DHV3C-652" vertex="1">
          <mxGeometry width="150" height="70" relative="1" as="geometry">
            <mxPoint y="30" as="offset" />
          </mxGeometry>
        </mxCell>
        <mxCell id="iUn0GgRghp78xL2DHV3C-654" value="sdn" style="shape=folder;fontStyle=1;tabWidth=110;tabHeight=30;tabPosition=left;html=1;boundedLbl=1;labelInHeader=1;container=1;collapsible=0;strokeColor=default;strokeWidth=3;fontFamily=Helvetica;fontSize=12;fontColor=#000000;fillColor=#E6FFCC;" parent="1" vertex="1">
          <mxGeometry x="604" y="7730" width="150" height="100" as="geometry" />
        </mxCell>
        <mxCell id="iUn0GgRghp78xL2DHV3C-655" value="&lt;span style=&quot;font-weight: 700;&quot;&gt;网络业务线&lt;/span&gt;" style="html=1;strokeColor=none;resizeWidth=1;resizeHeight=1;fillColor=none;part=1;connectable=0;allowArrows=0;deletable=0;strokeWidth=3;fontFamily=Helvetica;fontSize=12;fontColor=#000000;" parent="iUn0GgRghp78xL2DHV3C-654" vertex="1">
          <mxGeometry width="150" height="70" relative="1" as="geometry">
            <mxPoint y="30" as="offset" />
          </mxGeometry>
        </mxCell>
        <mxCell id="iUn0GgRghp78xL2DHV3C-663" style="edgeStyle=orthogonalEdgeStyle;rounded=0;orthogonalLoop=1;jettySize=auto;html=1;exitX=0;exitY=0;exitDx=150;exitDy=65;exitPerimeter=0;entryX=0;entryY=0.5;entryDx=0;entryDy=0;fontFamily=Helvetica;fontSize=12;fontColor=#000000;" parent="1" source="iUn0GgRghp78xL2DHV3C-656" target="iUn0GgRghp78xL2DHV3C-661" edge="1">
          <mxGeometry relative="1" as="geometry">
            <Array as="points">
              <mxPoint x="770" y="7925" />
              <mxPoint x="770" y="7800" />
            </Array>
          </mxGeometry>
        </mxCell>
        <mxCell id="iUn0GgRghp78xL2DHV3C-664" value="&lt;b&gt;/update_apollo_namespace&lt;/b&gt;" style="edgeLabel;html=1;align=center;verticalAlign=middle;resizable=0;points=[];fontSize=12;fontFamily=Helvetica;fontColor=#000000;" parent="iUn0GgRghp78xL2DHV3C-663" vertex="1" connectable="0">
          <mxGeometry x="0.3337" y="1" relative="1" as="geometry">
            <mxPoint as="offset" />
          </mxGeometry>
        </mxCell>
        <mxCell id="iUn0GgRghp78xL2DHV3C-675" value="&lt;b&gt;1.1&lt;/b&gt;" style="edgeLabel;html=1;align=center;verticalAlign=middle;resizable=0;points=[];fontSize=12;fontFamily=Helvetica;fontColor=#000000;" parent="iUn0GgRghp78xL2DHV3C-663" vertex="1" connectable="0">
          <mxGeometry x="-0.1383" y="-3" relative="1" as="geometry">
            <mxPoint x="-10" y="-3" as="offset" />
          </mxGeometry>
        </mxCell>
        <mxCell id="iUn0GgRghp78xL2DHV3C-665" style="edgeStyle=orthogonalEdgeStyle;rounded=0;orthogonalLoop=1;jettySize=auto;html=1;exitX=0;exitY=0;exitDx=150;exitDy=65;exitPerimeter=0;entryX=0;entryY=0.5;entryDx=0;entryDy=0;fontFamily=Helvetica;fontSize=12;fontColor=#000000;" parent="1" source="iUn0GgRghp78xL2DHV3C-656" target="iUn0GgRghp78xL2DHV3C-662" edge="1">
          <mxGeometry relative="1" as="geometry" />
        </mxCell>
        <mxCell id="iUn0GgRghp78xL2DHV3C-666" value="&lt;b&gt;/update_apollo_cluster&lt;/b&gt;" style="edgeLabel;html=1;align=center;verticalAlign=middle;resizable=0;points=[];fontSize=12;fontFamily=Helvetica;fontColor=#000000;" parent="iUn0GgRghp78xL2DHV3C-665" vertex="1" connectable="0">
          <mxGeometry x="-0.2293" y="1" relative="1" as="geometry">
            <mxPoint x="29" as="offset" />
          </mxGeometry>
        </mxCell>
        <mxCell id="iUn0GgRghp78xL2DHV3C-682" value="&lt;b&gt;2.1&lt;/b&gt;" style="edgeLabel;html=1;align=center;verticalAlign=middle;resizable=0;points=[];fontSize=12;fontFamily=Helvetica;fontColor=#000000;" parent="iUn0GgRghp78xL2DHV3C-665" vertex="1" connectable="0">
          <mxGeometry x="-0.6872" relative="1" as="geometry">
            <mxPoint as="offset" />
          </mxGeometry>
        </mxCell>
        <mxCell id="iUn0GgRghp78xL2DHV3C-656" value="console" style="shape=folder;fontStyle=1;tabWidth=110;tabHeight=30;tabPosition=left;html=1;boundedLbl=1;labelInHeader=1;container=1;collapsible=0;strokeColor=default;strokeWidth=3;fontFamily=Helvetica;fontSize=12;fontColor=#000000;fillColor=#F0A30A;" parent="1" vertex="1">
          <mxGeometry x="604" y="7860" width="150" height="100" as="geometry" />
        </mxCell>
        <mxCell id="iUn0GgRghp78xL2DHV3C-657" value="&lt;span style=&quot;font-weight: 700;&quot;&gt;基础服务业务线&lt;/span&gt;" style="html=1;strokeColor=none;resizeWidth=1;resizeHeight=1;fillColor=none;part=1;connectable=0;allowArrows=0;deletable=0;strokeWidth=3;fontFamily=Helvetica;fontSize=12;fontColor=#000000;" parent="iUn0GgRghp78xL2DHV3C-656" vertex="1">
          <mxGeometry width="150" height="70" relative="1" as="geometry">
            <mxPoint y="30" as="offset" />
          </mxGeometry>
        </mxCell>
        <mxCell id="iUn0GgRghp78xL2DHV3C-672" style="edgeStyle=orthogonalEdgeStyle;rounded=0;orthogonalLoop=1;jettySize=auto;html=1;exitX=1;exitY=0.5;exitDx=0;exitDy=0;entryX=0;entryY=0;entryDx=0;entryDy=65;entryPerimeter=0;fontFamily=Helvetica;fontSize=12;fontColor=#000000;" parent="1" source="iUn0GgRghp78xL2DHV3C-661" target="iUn0GgRghp78xL2DHV3C-667" edge="1">
          <mxGeometry x="0.0047" y="-10" relative="1" as="geometry">
            <Array as="points">
              <mxPoint x="1260" y="7800" />
              <mxPoint x="1260" y="7865" />
            </Array>
            <mxPoint as="offset" />
          </mxGeometry>
        </mxCell>
        <mxCell id="iUn0GgRghp78xL2DHV3C-676" value="&lt;b&gt;1.2&lt;/b&gt;" style="edgeLabel;html=1;align=center;verticalAlign=middle;resizable=0;points=[];fontSize=12;fontFamily=Helvetica;fontColor=#000000;" parent="iUn0GgRghp78xL2DHV3C-672" vertex="1" connectable="0">
          <mxGeometry x="-0.3751" y="-1" relative="1" as="geometry">
            <mxPoint as="offset" />
          </mxGeometry>
        </mxCell>
        <mxCell id="iUn0GgRghp78xL2DHV3C-661" value="&lt;p style=&quot;margin: 4px 0px 0px; text-align: center;&quot;&gt;update_apollo_namespace&lt;br&gt;&lt;/p&gt;&lt;hr&gt;&lt;p style=&quot;margin: 0px; margin-left: 8px;&quot;&gt;更新单个namespace的信息&lt;br&gt;&lt;/p&gt;" style="verticalAlign=middle;align=center;overflow=fill;fontSize=12;fontFamily=Helvetica;html=1;rounded=1;fontStyle=1;strokeWidth=3;fillColor=#FFFFCC;" parent="1" vertex="1">
          <mxGeometry x="1004" y="7770" width="170" height="60" as="geometry" />
        </mxCell>
        <mxCell id="iUn0GgRghp78xL2DHV3C-683" style="edgeStyle=orthogonalEdgeStyle;rounded=0;orthogonalLoop=1;jettySize=auto;html=1;exitX=1;exitY=0.5;exitDx=0;exitDy=0;entryX=0;entryY=0;entryDx=0;entryDy=65;entryPerimeter=0;fontFamily=Helvetica;fontSize=12;fontColor=#000000;" parent="1" source="iUn0GgRghp78xL2DHV3C-662" target="iUn0GgRghp78xL2DHV3C-667" edge="1">
          <mxGeometry relative="1" as="geometry">
            <Array as="points">
              <mxPoint x="1260" y="7924" />
              <mxPoint x="1260" y="7865" />
            </Array>
          </mxGeometry>
        </mxCell>
        <mxCell id="iUn0GgRghp78xL2DHV3C-684" value="&lt;b&gt;2.2&lt;/b&gt;" style="edgeLabel;html=1;align=center;verticalAlign=middle;resizable=0;points=[];fontSize=12;fontFamily=Helvetica;fontColor=#000000;" parent="iUn0GgRghp78xL2DHV3C-683" vertex="1" connectable="0">
          <mxGeometry x="-0.5241" relative="1" as="geometry">
            <mxPoint as="offset" />
          </mxGeometry>
        </mxCell>
        <mxCell id="iUn0GgRghp78xL2DHV3C-662" value="&lt;p style=&quot;margin: 4px 0px 0px; text-align: center;&quot;&gt;update_apollo_namespace&lt;br&gt;&lt;/p&gt;&lt;hr&gt;&lt;p style=&quot;margin: 0px; margin-left: 8px;&quot;&gt;替换单个cluster下所有值相同的value&lt;br&gt;&lt;/p&gt;" style="verticalAlign=middle;align=center;overflow=fill;fontSize=12;fontFamily=Helvetica;html=1;rounded=1;fontStyle=1;strokeWidth=3;fillColor=#FFFFCC;" parent="1" vertex="1">
          <mxGeometry x="979" y="7894" width="216" height="60" as="geometry" />
        </mxCell>
        <mxCell id="iUn0GgRghp78xL2DHV3C-673" style="edgeStyle=orthogonalEdgeStyle;rounded=0;orthogonalLoop=1;jettySize=auto;html=1;exitX=0;exitY=0;exitDx=150;exitDy=65;exitPerimeter=0;fontFamily=Helvetica;fontSize=12;fontColor=#000000;" parent="1" source="iUn0GgRghp78xL2DHV3C-667" target="iUn0GgRghp78xL2DHV3C-669" edge="1">
          <mxGeometry relative="1" as="geometry" />
        </mxCell>
        <mxCell id="iUn0GgRghp78xL2DHV3C-667" value="auth" style="shape=folder;fontStyle=1;tabWidth=110;tabHeight=30;tabPosition=left;html=1;boundedLbl=1;labelInHeader=1;container=1;collapsible=0;strokeColor=default;strokeWidth=3;fontFamily=Helvetica;fontSize=12;fontColor=#000000;fillColor=#E6FFCC;" parent="1" vertex="1">
          <mxGeometry x="1320" y="7800" width="150" height="100" as="geometry" />
        </mxCell>
        <mxCell id="iUn0GgRghp78xL2DHV3C-668" value="&lt;b&gt;jwt_get_current_user&lt;/b&gt;" style="html=1;strokeColor=none;resizeWidth=1;resizeHeight=1;fillColor=none;part=1;connectable=0;allowArrows=0;deletable=0;strokeWidth=3;fontFamily=Helvetica;fontSize=12;fontColor=#000000;" parent="iUn0GgRghp78xL2DHV3C-667" vertex="1">
          <mxGeometry width="150" height="70" relative="1" as="geometry">
            <mxPoint y="30" as="offset" />
          </mxGeometry>
        </mxCell>
        <mxCell id="iUn0GgRghp78xL2DHV3C-674" style="edgeStyle=orthogonalEdgeStyle;rounded=0;orthogonalLoop=1;jettySize=auto;html=1;exitX=0.5;exitY=1;exitDx=0;exitDy=0;entryX=0.5;entryY=0;entryDx=0;entryDy=0;fontFamily=Helvetica;fontSize=12;fontColor=#000000;" parent="1" source="iUn0GgRghp78xL2DHV3C-669" target="iUn0GgRghp78xL2DHV3C-670" edge="1">
          <mxGeometry relative="1" as="geometry" />
        </mxCell>
        <mxCell id="iUn0GgRghp78xL2DHV3C-680" style="edgeStyle=orthogonalEdgeStyle;rounded=0;orthogonalLoop=1;jettySize=auto;html=1;exitX=1;exitY=0.5;exitDx=0;exitDy=0;entryX=0;entryY=0.5;entryDx=0;entryDy=0;fontFamily=Helvetica;fontSize=12;fontColor=#000000;" parent="1" source="iUn0GgRghp78xL2DHV3C-669" target="iUn0GgRghp78xL2DHV3C-678" edge="1">
          <mxGeometry relative="1" as="geometry">
            <Array as="points">
              <mxPoint x="1700" y="7864" />
              <mxPoint x="1700" y="7770" />
            </Array>
          </mxGeometry>
        </mxCell>
        <mxCell id="iUn0GgRghp78xL2DHV3C-681" value="&lt;b&gt;1.3&lt;/b&gt;" style="edgeLabel;html=1;align=center;verticalAlign=middle;resizable=0;points=[];fontSize=12;fontFamily=Helvetica;fontColor=#000000;" parent="iUn0GgRghp78xL2DHV3C-680" vertex="1" connectable="0">
          <mxGeometry x="0.252" y="2" relative="1" as="geometry">
            <mxPoint x="13" y="2" as="offset" />
          </mxGeometry>
        </mxCell>
        <mxCell id="iUn0GgRghp78xL2DHV3C-686" style="edgeStyle=orthogonalEdgeStyle;rounded=0;orthogonalLoop=1;jettySize=auto;html=1;exitX=1;exitY=0.5;exitDx=0;exitDy=0;entryX=0;entryY=0.5;entryDx=0;entryDy=0;fontFamily=Helvetica;fontSize=12;fontColor=#000000;" parent="1" source="iUn0GgRghp78xL2DHV3C-669" target="iUn0GgRghp78xL2DHV3C-679" edge="1">
          <mxGeometry relative="1" as="geometry">
            <Array as="points">
              <mxPoint x="1700" y="7864" />
              <mxPoint x="1700" y="7920" />
            </Array>
          </mxGeometry>
        </mxCell>
        <mxCell id="iUn0GgRghp78xL2DHV3C-687" value="&lt;b&gt;2.3&lt;/b&gt;" style="edgeLabel;html=1;align=center;verticalAlign=middle;resizable=0;points=[];fontSize=12;fontFamily=Helvetica;fontColor=#000000;" parent="iUn0GgRghp78xL2DHV3C-686" vertex="1" connectable="0">
          <mxGeometry x="0.1061" y="1" relative="1" as="geometry">
            <mxPoint x="15" y="1" as="offset" />
          </mxGeometry>
        </mxCell>
        <mxCell id="iUn0GgRghp78xL2DHV3C-669" value="&lt;b&gt;是否有效用户？&lt;/b&gt;" style="shape=rhombus;html=1;dashed=0;whitespace=wrap;perimeter=rhombusPerimeter;strokeColor=default;strokeWidth=3;fontFamily=Helvetica;fontSize=12;fontColor=#000000;fillColor=#FFFFCC;" parent="1" vertex="1">
          <mxGeometry x="1500.75" y="7804" width="140" height="120" as="geometry" />
        </mxCell>
        <mxCell id="iUn0GgRghp78xL2DHV3C-670" value="400" style="shape=ellipse;html=1;dashed=0;whitespace=wrap;aspect=fixed;strokeWidth=5;perimeter=ellipsePerimeter;strokeColor=default;fontFamily=Helvetica;fontSize=12;fontColor=default;fillColor=#FF0000;" parent="1" vertex="1">
          <mxGeometry x="1540" y="7960" width="60" height="60" as="geometry" />
        </mxCell>
        <mxCell id="iUn0GgRghp78xL2DHV3C-691" style="edgeStyle=orthogonalEdgeStyle;rounded=0;orthogonalLoop=1;jettySize=auto;html=1;entryX=1;entryY=0.5;entryDx=0;entryDy=0;fontFamily=Helvetica;fontSize=12;fontColor=#000000;" parent="1" source="iUn0GgRghp78xL2DHV3C-678" target="iUn0GgRghp78xL2DHV3C-689" edge="1">
          <mxGeometry relative="1" as="geometry">
            <Array as="points">
              <mxPoint x="2110" y="7770" />
              <mxPoint x="2110" y="8030" />
            </Array>
          </mxGeometry>
        </mxCell>
        <mxCell id="iUn0GgRghp78xL2DHV3C-692" value="&lt;b&gt;1.4&lt;/b&gt;" style="edgeLabel;html=1;align=center;verticalAlign=middle;resizable=0;points=[];fontSize=12;fontFamily=Helvetica;fontColor=#000000;" parent="iUn0GgRghp78xL2DHV3C-691" vertex="1" connectable="0">
          <mxGeometry x="-0.186" y="-1" relative="1" as="geometry">
            <mxPoint y="34" as="offset" />
          </mxGeometry>
        </mxCell>
        <mxCell id="iUn0GgRghp78xL2DHV3C-698" style="edgeStyle=orthogonalEdgeStyle;rounded=0;orthogonalLoop=1;jettySize=auto;html=1;exitX=1;exitY=0.5;exitDx=0;exitDy=0;entryX=0.5;entryY=0;entryDx=0;entryDy=0;fontFamily=Helvetica;fontSize=12;fontColor=#000000;" parent="1" source="iUn0GgRghp78xL2DHV3C-678" target="iUn0GgRghp78xL2DHV3C-697" edge="1">
          <mxGeometry relative="1" as="geometry" />
        </mxCell>
        <mxCell id="iUn0GgRghp78xL2DHV3C-699" value="&lt;b&gt;1.5&lt;/b&gt;" style="edgeLabel;html=1;align=center;verticalAlign=middle;resizable=0;points=[];fontSize=12;fontFamily=Helvetica;fontColor=#000000;" parent="iUn0GgRghp78xL2DHV3C-698" vertex="1" connectable="0">
          <mxGeometry x="0.389" relative="1" as="geometry">
            <mxPoint as="offset" />
          </mxGeometry>
        </mxCell>
        <mxCell id="iUn0GgRghp78xL2DHV3C-678" value="updateOneNamespace" style="whiteSpace=wrap;html=1;fillColor=#FFFFCC;fontStyle=1;strokeWidth=3;" parent="1" vertex="1">
          <mxGeometry x="1819.75" y="7740" width="167.5" height="60" as="geometry" />
        </mxCell>
        <mxCell id="iUn0GgRghp78xL2DHV3C-709" style="edgeStyle=orthogonalEdgeStyle;rounded=0;orthogonalLoop=1;jettySize=auto;html=1;entryX=1;entryY=0.5;entryDx=0;entryDy=0;fontFamily=Helvetica;fontSize=12;fontColor=#000000;" parent="1" source="iUn0GgRghp78xL2DHV3C-679" target="iUn0GgRghp78xL2DHV3C-708" edge="1">
          <mxGeometry relative="1" as="geometry">
            <Array as="points">
              <mxPoint x="2080" y="7920" />
              <mxPoint x="2080" y="8420" />
            </Array>
          </mxGeometry>
        </mxCell>
        <mxCell id="iUn0GgRghp78xL2DHV3C-710" value="&lt;b&gt;2.4&lt;/b&gt;" style="edgeLabel;html=1;align=center;verticalAlign=middle;resizable=0;points=[];fontSize=12;fontFamily=Helvetica;fontColor=#000000;" parent="iUn0GgRghp78xL2DHV3C-709" vertex="1" connectable="0">
          <mxGeometry x="-0.5706" y="1" relative="1" as="geometry">
            <mxPoint as="offset" />
          </mxGeometry>
        </mxCell>
        <mxCell id="iUn0GgRghp78xL2DHV3C-714" style="edgeStyle=orthogonalEdgeStyle;rounded=0;orthogonalLoop=1;jettySize=auto;html=1;entryX=0.5;entryY=1;entryDx=0;entryDy=0;fontFamily=Helvetica;fontSize=12;fontColor=#000000;" parent="1" source="iUn0GgRghp78xL2DHV3C-679" target="iUn0GgRghp78xL2DHV3C-688" edge="1">
          <mxGeometry x="-0.0219" y="-109" relative="1" as="geometry">
            <Array as="points">
              <mxPoint x="1903" y="7970" />
              <mxPoint x="1670" y="7970" />
              <mxPoint x="1670" y="8180" />
              <mxPoint x="1903" y="8180" />
            </Array>
            <mxPoint as="offset" />
          </mxGeometry>
        </mxCell>
        <mxCell id="iUn0GgRghp78xL2DHV3C-715" value="&lt;b&gt;2.5&lt;/b&gt;" style="edgeLabel;html=1;align=center;verticalAlign=middle;resizable=0;points=[];fontSize=12;fontFamily=Helvetica;fontColor=#000000;" parent="iUn0GgRghp78xL2DHV3C-714" vertex="1" connectable="0">
          <mxGeometry x="-0.0347" y="3" relative="1" as="geometry">
            <mxPoint as="offset" />
          </mxGeometry>
        </mxCell>
        <mxCell id="iUn0GgRghp78xL2DHV3C-716" style="edgeStyle=orthogonalEdgeStyle;rounded=0;orthogonalLoop=1;jettySize=auto;html=1;entryX=0.5;entryY=1;entryDx=0;entryDy=0;fontFamily=Helvetica;fontSize=12;fontColor=#000000;" parent="1" source="iUn0GgRghp78xL2DHV3C-679" target="iUn0GgRghp78xL2DHV3C-690" edge="1">
          <mxGeometry x="0.0093" y="10" relative="1" as="geometry">
            <Array as="points">
              <mxPoint x="1903" y="7970" />
              <mxPoint x="1650" y="7970" />
              <mxPoint x="1650" y="8378" />
              <mxPoint x="1905" y="8378" />
            </Array>
            <mxPoint as="offset" />
          </mxGeometry>
        </mxCell>
        <mxCell id="iUn0GgRghp78xL2DHV3C-717" value="&lt;b&gt;2.6&lt;/b&gt;" style="edgeLabel;html=1;align=center;verticalAlign=middle;resizable=0;points=[];fontSize=12;fontFamily=Helvetica;fontColor=#000000;" parent="iUn0GgRghp78xL2DHV3C-716" vertex="1" connectable="0">
          <mxGeometry x="0.0912" y="-2" relative="1" as="geometry">
            <mxPoint as="offset" />
          </mxGeometry>
        </mxCell>
        <mxCell id="iUn0GgRghp78xL2DHV3C-679" value="replaceSamevalue" style="whiteSpace=wrap;html=1;fillColor=#FFFFCC;fontStyle=1;strokeWidth=3;" parent="1" vertex="1">
          <mxGeometry x="1818.75" y="7890" width="167.5" height="60" as="geometry" />
        </mxCell>
        <mxCell id="iUn0GgRghp78xL2DHV3C-704" style="edgeStyle=orthogonalEdgeStyle;rounded=0;orthogonalLoop=1;jettySize=auto;html=1;entryX=0;entryY=0.5;entryDx=0;entryDy=0;fontFamily=Helvetica;fontSize=12;fontColor=#000000;" parent="1" source="iUn0GgRghp78xL2DHV3C-688" target="iUn0GgRghp78xL2DHV3C-690" edge="1">
          <mxGeometry relative="1" as="geometry">
            <Array as="points">
              <mxPoint x="1720" y="8130" />
              <mxPoint x="1720" y="8330" />
              <mxPoint x="1819" y="8330" />
            </Array>
          </mxGeometry>
        </mxCell>
        <mxCell id="iUn0GgRghp78xL2DHV3C-706" value="&lt;b&gt;1.6&lt;/b&gt;" style="edgeLabel;html=1;align=center;verticalAlign=middle;resizable=0;points=[];fontSize=12;fontFamily=Helvetica;fontColor=#000000;" parent="iUn0GgRghp78xL2DHV3C-704" vertex="1" connectable="0">
          <mxGeometry x="-0.837" relative="1" as="geometry">
            <mxPoint as="offset" />
          </mxGeometry>
        </mxCell>
        <mxCell id="iUn0GgRghp78xL2DHV3C-688" value="updateNmaespaceKey" style="whiteSpace=wrap;html=1;fillColor=#FFFFCC;fontStyle=1;strokeWidth=3;" parent="1" vertex="1">
          <mxGeometry x="1818.75" y="8100" width="167.5" height="60" as="geometry" />
        </mxCell>
        <mxCell id="iUn0GgRghp78xL2DHV3C-689" value="getOneNamespace" style="whiteSpace=wrap;html=1;fillColor=#FFFFCC;fontStyle=1;strokeWidth=3;" parent="1" vertex="1">
          <mxGeometry x="1818.75" y="8000" width="167.5" height="60" as="geometry" />
        </mxCell>
        <mxCell id="iUn0GgRghp78xL2DHV3C-690" value="deploymaespace" style="whiteSpace=wrap;html=1;fillColor=#FFFFCC;fontStyle=1;strokeWidth=3;" parent="1" vertex="1">
          <mxGeometry x="1821.75" y="8298" width="167.5" height="60" as="geometry" />
        </mxCell>
        <mxCell id="iUn0GgRghp78xL2DHV3C-705" style="edgeStyle=orthogonalEdgeStyle;rounded=0;orthogonalLoop=1;jettySize=auto;html=1;fontFamily=Helvetica;fontSize=12;fontColor=#000000;entryX=0;entryY=0.5;entryDx=0;entryDy=0;" parent="1" source="iUn0GgRghp78xL2DHV3C-695" target="iUn0GgRghp78xL2DHV3C-690" edge="1">
          <mxGeometry relative="1" as="geometry">
            <mxPoint x="1720" y="8320" as="targetPoint" />
            <Array as="points">
              <mxPoint x="1720" y="8220" />
              <mxPoint x="1720" y="8328" />
            </Array>
          </mxGeometry>
        </mxCell>
        <mxCell id="iUn0GgRghp78xL2DHV3C-707" value="&lt;b&gt;1.6&lt;/b&gt;" style="edgeLabel;html=1;align=center;verticalAlign=middle;resizable=0;points=[];fontSize=12;fontFamily=Helvetica;fontColor=#000000;" parent="iUn0GgRghp78xL2DHV3C-705" vertex="1" connectable="0">
          <mxGeometry x="-0.6449" y="-2" relative="1" as="geometry">
            <mxPoint x="17" y="2" as="offset" />
          </mxGeometry>
        </mxCell>
        <mxCell id="iUn0GgRghp78xL2DHV3C-695" value="addNmaespaceKey" style="whiteSpace=wrap;html=1;fillColor=#FFFFCC;fontStyle=1;strokeWidth=3;" parent="1" vertex="1">
          <mxGeometry x="1818.75" y="8190" width="167.5" height="60" as="geometry" />
        </mxCell>
        <mxCell id="iUn0GgRghp78xL2DHV3C-700" style="edgeStyle=orthogonalEdgeStyle;rounded=0;orthogonalLoop=1;jettySize=auto;html=1;entryX=1;entryY=0.5;entryDx=0;entryDy=0;fontFamily=Helvetica;fontSize=12;fontColor=#000000;" parent="1" source="iUn0GgRghp78xL2DHV3C-697" target="iUn0GgRghp78xL2DHV3C-688" edge="1">
          <mxGeometry relative="1" as="geometry">
            <Array as="points">
              <mxPoint x="2130" y="7992" />
              <mxPoint x="2130" y="8130" />
            </Array>
          </mxGeometry>
        </mxCell>
        <mxCell id="iUn0GgRghp78xL2DHV3C-701" style="edgeStyle=orthogonalEdgeStyle;rounded=0;orthogonalLoop=1;jettySize=auto;html=1;entryX=1;entryY=0.5;entryDx=0;entryDy=0;fontFamily=Helvetica;fontSize=12;fontColor=#000000;" parent="1" source="iUn0GgRghp78xL2DHV3C-697" target="iUn0GgRghp78xL2DHV3C-695" edge="1">
          <mxGeometry x="0.0202" y="122" relative="1" as="geometry">
            <Array as="points">
              <mxPoint x="2250" y="7992" />
              <mxPoint x="2250" y="8220" />
            </Array>
            <mxPoint as="offset" />
          </mxGeometry>
        </mxCell>
        <mxCell id="iUn0GgRghp78xL2DHV3C-697" value="更新/新增" style="shape=rhombus;html=1;dashed=0;whitespace=wrap;perimeter=rhombusPerimeter;strokeColor=default;strokeWidth=3;fontFamily=Helvetica;fontSize=12;fontColor=#000000;fillColor=#FFFFCC;" parent="1" vertex="1">
          <mxGeometry x="2150" y="7954" width="90" height="76" as="geometry" />
        </mxCell>
        <mxCell id="iUn0GgRghp78xL2DHV3C-708" value="getAllNamespacedata" style="whiteSpace=wrap;html=1;fillColor=#FFFFCC;fontStyle=1;strokeWidth=3;" parent="1" vertex="1">
          <mxGeometry x="1821.75" y="8390" width="167.5" height="60" as="geometry" />
        </mxCell>
        <mxCell id="SfJX6UGtgSNlBsrT9A-r-96" value="MySQL存放业务数据" style="sketch=0;aspect=fixed;html=1;points=[];align=center;image;fontSize=12;image=img/lib/mscae/Azure_Database_for_MySQL_servers.svg;" parent="1" vertex="1">
          <mxGeometry x="238" y="8982" width="38" height="50" as="geometry" />
        </mxCell>
        <mxCell id="SfJX6UGtgSNlBsrT9A-r-99" value="" style="sketch=0;pointerEvents=1;shadow=0;dashed=0;html=1;strokeColor=none;labelPosition=center;verticalLabelPosition=bottom;verticalAlign=top;align=center;fillColor=#515151;shape=mxgraph.mscae.system_center.admin_console" parent="1" vertex="1">
          <mxGeometry x="74" y="8546" width="50" height="36" as="geometry" />
        </mxCell>
        <mxCell id="SfJX6UGtgSNlBsrT9A-r-100" value="访问层" style="text;html=1;align=center;verticalAlign=middle;resizable=0;points=[];autosize=1;strokeColor=none;fillColor=none;" parent="1" vertex="1">
          <mxGeometry x="-240" y="8549" width="60" height="30" as="geometry" />
        </mxCell>
        <mxCell id="SfJX6UGtgSNlBsrT9A-r-101" value="" style="endArrow=none;dashed=1;html=1;rounded=0;" parent="1" edge="1">
          <mxGeometry width="50" height="50" relative="1" as="geometry">
            <mxPoint x="-240" y="8616" as="sourcePoint" />
            <mxPoint x="460" y="8616" as="targetPoint" />
          </mxGeometry>
        </mxCell>
        <mxCell id="SfJX6UGtgSNlBsrT9A-r-102" value="" style="endArrow=none;dashed=1;html=1;rounded=0;" parent="1" edge="1">
          <mxGeometry width="50" height="50" relative="1" as="geometry">
            <mxPoint x="-240" y="8721" as="sourcePoint" />
            <mxPoint x="460" y="8721" as="targetPoint" />
          </mxGeometry>
        </mxCell>
        <mxCell id="SfJX6UGtgSNlBsrT9A-r-103" value="" style="endArrow=none;dashed=1;html=1;rounded=0;" parent="1" edge="1">
          <mxGeometry width="50" height="50" relative="1" as="geometry">
            <mxPoint x="-240" y="8827" as="sourcePoint" />
            <mxPoint x="460" y="8827" as="targetPoint" />
          </mxGeometry>
        </mxCell>
        <mxCell id="SfJX6UGtgSNlBsrT9A-r-104" value="" style="endArrow=none;dashed=1;html=1;rounded=0;" parent="1" edge="1">
          <mxGeometry width="50" height="50" relative="1" as="geometry">
            <mxPoint x="-242.00000000000023" y="8954" as="sourcePoint" />
            <mxPoint x="460" y="8954" as="targetPoint" />
          </mxGeometry>
        </mxCell>
        <mxCell id="SfJX6UGtgSNlBsrT9A-r-105" value="前端ui" style="text;html=1;align=center;verticalAlign=middle;resizable=0;points=[];autosize=1;strokeColor=none;fillColor=none;" parent="1" vertex="1">
          <mxGeometry x="-240" y="8655" width="60" height="30" as="geometry" />
        </mxCell>
        <mxCell id="SfJX6UGtgSNlBsrT9A-r-106" value="交互层" style="text;html=1;align=center;verticalAlign=middle;resizable=0;points=[];autosize=1;strokeColor=none;fillColor=none;" parent="1" vertex="1">
          <mxGeometry x="-240" y="8752" width="60" height="30" as="geometry" />
        </mxCell>
        <mxCell id="SfJX6UGtgSNlBsrT9A-r-107" value="FastAPI应用服务" style="text;html=1;align=center;verticalAlign=middle;resizable=0;points=[];autosize=1;strokeColor=none;fillColor=none;" parent="1" vertex="1">
          <mxGeometry x="-235" y="8878" width="110" height="30" as="geometry" />
        </mxCell>
        <mxCell id="SfJX6UGtgSNlBsrT9A-r-108" value="数据库" style="text;html=1;align=center;verticalAlign=middle;resizable=0;points=[];autosize=1;strokeColor=none;fillColor=none;" parent="1" vertex="1">
          <mxGeometry x="-219" y="9002" width="60" height="30" as="geometry" />
        </mxCell>
        <mxCell id="CsERCyUt-G2kQSy3FByw-98" value="" style="rounded=1;whiteSpace=wrap;html=1;fillColor=#E6FFCC;" vertex="1" parent="1">
          <mxGeometry x="-245" y="8745" width="705" height="62" as="geometry" />
        </mxCell>
        <mxCell id="CsERCyUt-G2kQSy3FByw-103" value="html" style="rounded=0;whiteSpace=wrap;html=1;" vertex="1" parent="1">
          <mxGeometry x="-66" y="8645" width="82" height="50" as="geometry" />
        </mxCell>
        <mxCell id="CsERCyUt-G2kQSy3FByw-104" value="css" style="rounded=0;whiteSpace=wrap;html=1;" vertex="1" parent="1">
          <mxGeometry x="60" y="8645" width="82" height="50" as="geometry" />
        </mxCell>
        <mxCell id="CsERCyUt-G2kQSy3FByw-105" value="ui组件" style="rounded=0;whiteSpace=wrap;html=1;" vertex="1" parent="1">
          <mxGeometry x="188" y="8645" width="82" height="50" as="geometry" />
        </mxCell>
        <mxCell id="CsERCyUt-G2kQSy3FByw-107" value="前端框架" style="rounded=0;whiteSpace=wrap;html=1;" vertex="1" parent="1">
          <mxGeometry x="49" y="8750.5" width="110" height="50" as="geometry" />
        </mxCell>
        <mxCell id="CsERCyUt-G2kQSy3FByw-109" value="交互层" style="text;html=1;align=center;verticalAlign=middle;resizable=0;points=[];autosize=1;strokeColor=none;fillColor=none;" vertex="1" parent="1">
          <mxGeometry x="-240" y="8760" width="60" height="30" as="geometry" />
        </mxCell>
        <mxCell id="CsERCyUt-G2kQSy3FByw-111" value="auth" style="rounded=0;whiteSpace=wrap;html=1;" vertex="1" parent="1">
          <mxGeometry x="-115" y="8868" width="82" height="50" as="geometry" />
        </mxCell>
        <mxCell id="CsERCyUt-G2kQSy3FByw-112" value="compute" style="rounded=0;whiteSpace=wrap;html=1;" vertex="1" parent="1">
          <mxGeometry x="1" y="8868" width="82" height="50" as="geometry" />
        </mxCell>
        <mxCell id="CsERCyUt-G2kQSy3FByw-113" value="console" style="rounded=0;whiteSpace=wrap;html=1;" vertex="1" parent="1">
          <mxGeometry x="118" y="8868" width="82" height="50" as="geometry" />
        </mxCell>
        <mxCell id="CsERCyUt-G2kQSy3FByw-114" value="ehdd" style="rounded=0;whiteSpace=wrap;html=1;" vertex="1" parent="1">
          <mxGeometry x="237" y="8867" width="82" height="50" as="geometry" />
        </mxCell>
        <mxCell id="CsERCyUt-G2kQSy3FByw-115" value="sdn" style="rounded=0;whiteSpace=wrap;html=1;" vertex="1" parent="1">
          <mxGeometry x="350" y="8867" width="82" height="50" as="geometry" />
        </mxCell>
        <mxCell id="CsERCyUt-G2kQSy3FByw-116" value="TinyDB记录请求日志" style="sketch=0;aspect=fixed;html=1;points=[];align=center;image;fontSize=12;image=img/lib/mscae/Database_General.svg;" vertex="1" parent="1">
          <mxGeometry x="-3" y="8982" width="38" height="50" as="geometry" />
        </mxCell>
        <mxCell id="CsERCyUt-G2kQSy3FByw-118" value="" style="shape=flexArrow;endArrow=classic;html=1;rounded=0;entryX=0.163;entryY=0;entryDx=0;entryDy=0;entryPerimeter=0;" edge="1" parent="1">
          <mxGeometry width="50" height="50" relative="1" as="geometry">
            <mxPoint x="-97" y="8598" as="sourcePoint" />
            <mxPoint x="-97.08500000000004" y="8637" as="targetPoint" />
          </mxGeometry>
        </mxCell>
        <mxCell id="CsERCyUt-G2kQSy3FByw-119" value="" style="shape=flexArrow;endArrow=classic;html=1;rounded=0;entryX=0.163;entryY=0;entryDx=0;entryDy=0;entryPerimeter=0;" edge="1" parent="1">
          <mxGeometry width="50" height="50" relative="1" as="geometry">
            <mxPoint x="-96" y="8703" as="sourcePoint" />
            <mxPoint x="-96.08500000000004" y="8742" as="targetPoint" />
          </mxGeometry>
        </mxCell>
        <mxCell id="CsERCyUt-G2kQSy3FByw-120" value="" style="shape=flexArrow;endArrow=classic;html=1;rounded=0;entryX=0.163;entryY=0;entryDx=0;entryDy=0;entryPerimeter=0;" edge="1" parent="1">
          <mxGeometry width="50" height="50" relative="1" as="geometry">
            <mxPoint x="-96" y="8809" as="sourcePoint" />
            <mxPoint x="-96.08500000000004" y="8848" as="targetPoint" />
          </mxGeometry>
        </mxCell>
        <mxCell id="CsERCyUt-G2kQSy3FByw-121" value="" style="shape=flexArrow;endArrow=classic;html=1;rounded=0;entryX=0.163;entryY=0;entryDx=0;entryDy=0;entryPerimeter=0;" edge="1" parent="1">
          <mxGeometry width="50" height="50" relative="1" as="geometry">
            <mxPoint x="-97" y="8936" as="sourcePoint" />
            <mxPoint x="-97.08500000000004" y="8975" as="targetPoint" />
          </mxGeometry>
        </mxCell>
        <mxCell id="CsERCyUt-G2kQSy3FByw-123" value="" style="shape=flexArrow;endArrow=classic;html=1;rounded=0;entryX=0.754;entryY=0.774;entryDx=0;entryDy=0;entryPerimeter=0;" edge="1" parent="1">
          <mxGeometry width="50" height="50" relative="1" as="geometry">
            <mxPoint x="303" y="8636" as="sourcePoint" />
            <mxPoint x="302.57000000000016" y="8595.988" as="targetPoint" />
          </mxGeometry>
        </mxCell>
        <mxCell id="CsERCyUt-G2kQSy3FByw-124" value="" style="shape=flexArrow;endArrow=classic;html=1;rounded=0;entryX=0.754;entryY=0.774;entryDx=0;entryDy=0;entryPerimeter=0;" edge="1" parent="1">
          <mxGeometry width="50" height="50" relative="1" as="geometry">
            <mxPoint x="305" y="8743" as="sourcePoint" />
            <mxPoint x="304.57000000000016" y="8702.988" as="targetPoint" />
          </mxGeometry>
        </mxCell>
        <mxCell id="CsERCyUt-G2kQSy3FByw-125" value="" style="shape=flexArrow;endArrow=classic;html=1;rounded=0;entryX=0.754;entryY=0.774;entryDx=0;entryDy=0;entryPerimeter=0;" edge="1" parent="1">
          <mxGeometry width="50" height="50" relative="1" as="geometry">
            <mxPoint x="306" y="8850" as="sourcePoint" />
            <mxPoint x="305.57000000000016" y="8809.988" as="targetPoint" />
          </mxGeometry>
        </mxCell>
        <mxCell id="CsERCyUt-G2kQSy3FByw-126" value="" style="shape=flexArrow;endArrow=classic;html=1;rounded=0;entryX=0.754;entryY=0.774;entryDx=0;entryDy=0;entryPerimeter=0;" edge="1" parent="1">
          <mxGeometry width="50" height="50" relative="1" as="geometry">
            <mxPoint x="310" y="8975" as="sourcePoint" />
            <mxPoint x="309.57000000000016" y="8934.988" as="targetPoint" />
          </mxGeometry>
        </mxCell>
        <mxCell id="CsERCyUt-G2kQSy3FByw-128" value="" style="swimlane;startSize=0;fillColor=#9AC7BF;strokeWidth=3;dashed=1;" vertex="1" parent="1">
          <mxGeometry x="-300" y="8840" width="800" height="240" as="geometry" />
        </mxCell>
      </root>
    </mxGraphModel>
  </diagram>
</mxfile>
